<?xml version="1.0" encoding="UTF-8"?>
<svg id="ouput-graphics" xmlns="http://www.w3.org/2000/svg" xmlns:xlink="http://www.w3.org/1999/xlink" viewBox="0 0 2423 1536">
  <defs>
    <radialGradient id="radial-gradient" cx="1118.06" cy="12699.48" fx="1118.06" fy="12638.14" r="61.34" gradientTransform="translate(12744.72 -1020.82) rotate(90)" gradientUnits="userSpaceOnUse">
      <stop offset="0" stop-color="#fcee21"/>
      <stop offset=".07" stop-color="#fce920" stop-opacity=".99"/>
      <stop offset=".14" stop-color="#fcdd1e" stop-opacity=".95"/>
      <stop offset=".22" stop-color="#fcc91b" stop-opacity=".9"/>
      <stop offset=".3" stop-color="#fcad17" stop-opacity=".82"/>
      <stop offset=".38" stop-color="#fd8812" stop-opacity=".72"/>
      <stop offset=".46" stop-color="#fe5b0c" stop-opacity=".59"/>
      <stop offset=".54" stop-color="#fe2805" stop-opacity=".45"/>
      <stop offset=".57" stop-color="#ff1603" stop-opacity=".4"/>
      <stop offset=".62" stop-color="#ff0f02" stop-opacity=".28"/>
      <stop offset=".68" stop-color="#ff0801" stop-opacity=".16"/>
      <stop offset=".75" stop-color="#ff0300" stop-opacity=".07"/>
      <stop offset=".81" stop-color="red" stop-opacity=".02"/>
      <stop offset=".86" stop-color="red" stop-opacity="0"/>
    </radialGradient>
    <radialGradient id="radial-gradient-2" cx="1118.06" cy="12699.48" fx="1118.06" fy="12654.66" r="44.83" gradientTransform="translate(12744.72 -1020.82) rotate(90)" gradientUnits="userSpaceOnUse">
      <stop offset="0" stop-color="#fcee21"/>
      <stop offset=".07" stop-color="#fce920" stop-opacity=".99"/>
      <stop offset=".14" stop-color="#fcdd1e" stop-opacity=".95"/>
      <stop offset=".22" stop-color="#fcc91b" stop-opacity=".9"/>
      <stop offset=".3" stop-color="#fcad17" stop-opacity=".82"/>
      <stop offset=".38" stop-color="#fd8812" stop-opacity=".72"/>
      <stop offset=".46" stop-color="#fe5b0c" stop-opacity=".59"/>
      <stop offset=".54" stop-color="#fe2805" stop-opacity=".45"/>
      <stop offset=".57" stop-color="#ff1603" stop-opacity=".4"/>
      <stop offset=".88" stop-color="red" stop-opacity="0"/>
    </radialGradient>
    <symbol id="character" viewBox="0 0 408.23 195.47">
      <g>
        <path d="M90.48,129.21c0,.34,0-27.77,0-31.74v-.47c0-3.97,0-32.08,0-31.74L0,56.93v80.6l90.48-8.32Z" style="fill: url(#radial-gradient);"/>
        <path d="M90.48,102.61c0,.06,0-4.67,0-5.33v-.08c0-.67,0-5.39,0-5.33L0,87.68v19.11l90.48-4.18Z" style="fill: url(#radial-gradient-2);"/>
        <polygon points="82.4 131.36 82.4 64.34 104 58.12 104 137.58 82.4 131.36" style="fill: #929292;"/>
        <polygon points="95.78 142.53 95.78 53.17 124.58 44.88 124.58 150.82 95.78 142.53" style="fill: #575756;"/>
        <path d="M222.71,25.08S160.51-24.51,78.09,15.78c-1.92,.94-1.45,4.43,.62,4.54,15.07,.82,53.62-.53,73.03,21.23l70.97-16.47Z" style="fill: #d80000;"/>
        <path d="M78.7,20.32c.27,.01,.56,.03,.84,.04,70.56-38.05,127.62-5.71,143.03,4.75l.13-.03S160.51-24.51,78.09,15.78c-1.92,.94-1.45,4.43,.62,4.54Z" style="fill: #ff7d7d;"/>
        <path d="M222.71,170.39s-62.2,49.59-144.62,9.3c-1.92-.94-1.45-4.43,.62-4.54,15.07-.82,53.62,.53,73.03-21.23l70.97,16.47Z" style="fill: #c60202;"/>
        <g>
          <path d="M151.74,153.92c-3.92,4.4-8.64,7.84-13.77,10.56l48.03,11.75s-31.84,20.51-77.45,14.78c66.82,17.13,114.17-20.61,114.17-20.61l-70.97-16.47Z" style="fill: #9e0404;"/>
          <path d="M79.56,175.11c3.05-.03,6.33-.13,9.73-.36-3.76,.15-7.06,.23-9.73,.36Z" style="fill: #9e0404;"/>
        </g>
        <path d="M406.3,97.47C368.62,25.98,171.03,7.16,116.84,39.88v115.48c54.48,32.81,251.92,13.75,289.47-57.59,.09,0,.1-.29,0-.3Z" style="fill: #ededed;"/>
        <path d="M408.15,97.76c-42.84,66.56-233.97,76.5-291.17,41.9v16.04c54.8,33.01,253.42,13.83,291.19-57.94,.05,0,.07-.07,.07-.14,0,.07-.04,.14-.08,.14Z" style="fill: #b2b2b2;"/>
        <g>
          <circle cx="285.58" cy="97.85" r="27.07" style="fill: #c7efff;"/>
          <polygon points="267.15 122.8 261.7 115.44 310.03 79.61 315.49 86.97 267.15 122.8" style="fill: #fff;"/>
          <polygon points="257.91 110.01 255.32 106.52 303.66 70.69 306.24 74.17 257.91 110.01" style="fill: #fff;"/>
          <path d="M305.41,69.9c-15.43-10.95-36.83-7.32-47.78,8.11s-7.32,36.83,8.11,47.78c15.43,10.95,36.83,7.32,47.78-8.11s7.32-36.83-8.11-47.78Zm-35.5,50.02c-12.19-8.65-15.06-25.55-6.41-37.74,8.65-12.19,25.55-15.06,37.74-6.41,12.19,8.65,15.06,25.55,6.41,37.74s-25.55,15.06-37.74,6.41Z" style="fill: #e2bd03;"/>
        </g>
        <path d="M152.11,167.36c4.49,.81,9.21,1.5,14.12,2.06V25.82c-4.91,.56-9.63,1.25-14.12,2.05V167.36Z" style="fill: #e2bd03;"/>
        <path d="M166.24,155.16c-4.9-.78-9.62-1.68-14.12-2.68v14.89c1.03,.19,2.07,.36,3.13,.54,.17,.03,.34,.06,.51,.08,1.07,.17,2.16,.34,3.26,.5,.01,0,.03,0,.04,0,1.14,.17,2.3,.32,3.47,.48,.04,0,.08,.01,.12,.02,1.19,.15,2.39,.3,3.6,.44,0,0,0,0,0,0v-14.26Z" style="fill: #ba9600;"/>
        <g>
          <ellipse cx="159.15" cy="31.47" rx="5.91" ry="4.87" style="fill: #ba9600;"/>
          <ellipse cx="159.15" cy="53.6" rx="5.91" ry="4.87" style="fill: #ba9600;"/>
          <ellipse cx="159.15" cy="75.72" rx="5.91" ry="4.87" style="fill: #ba9600;"/>
          <ellipse cx="159.15" cy="97.85" rx="5.91" ry="4.87" style="fill: #ba9600;"/>
          <ellipse cx="159.15" cy="119.98" rx="5.91" ry="4.87" style="fill: #ba9600;"/>
          <ellipse cx="159.15" cy="142.1" rx="5.91" ry="4.87" style="fill: #ba9600;"/>
          <ellipse cx="159.15" cy="164.23" rx="5.91" ry="4.87" style="fill: #8e6200;"/>
        </g>
        <path d="M205.86,108.09c16.07-.43,16.25-9.35,16.23-10.24,.02-.89-.15-9.81-16.23-10.24-13.01-.34-96.67,5.96-126.83,8.84-2.48,.24-2.48,2.56,0,2.8,30.16,2.88,113.82,9.18,126.83,8.84Z" style="fill: #d80000;"/>
        <path d="M77.18,97.78c-.05,.66,.57,1.35,1.85,1.47,30.16,2.88,113.82,9.18,126.83,8.84,16.07-.43,16.25-9.35,16.23-10.24,0-.02,0-.04,0-.07H77.18Z" style="fill: #9e0404;"/>
        <path d="M344.7,49.3v96.63c29.39-11.88,52.82-27.93,63.47-48.17,.09,0,.1-.29,0-.3-10.67-20.25-34.1-36.29-63.46-48.17Z" style="fill: #d80000;"/>
        <path d="M408.23,97.62c0,.07-.04,.14-.08,.14-11.83,18.37-34.96,32.43-63.45,42.42v5.75c1.81-.73,3.59-1.48,5.36-2.24,.13-.06,.26-.11,.39-.17,.72-.31,1.44-.63,2.15-.95,.21-.09,.42-.19,.63-.29,.63-.28,1.26-.57,1.88-.86,.24-.11,.48-.22,.71-.33,.6-.28,1.2-.56,1.79-.85,.24-.11,.48-.23,.72-.34,.6-.29,1.19-.58,1.78-.87,.22-.11,.45-.22,.67-.33,.63-.32,1.26-.64,1.88-.96,.17-.09,.34-.17,.51-.26,.78-.4,1.55-.81,2.32-1.22,0,0,.02-.01,.03-.02,.81-.43,1.61-.87,2.4-1.32,.03-.01,.05-.03,.07-.04,.73-.41,1.46-.82,2.17-1.24,.18-.11,.37-.22,.55-.32,.56-.32,1.11-.65,1.66-.98,.23-.14,.46-.28,.69-.42,.5-.3,.99-.61,1.48-.91,.24-.15,.49-.3,.73-.46,.47-.3,.94-.6,1.41-.9,.24-.16,.49-.32,.73-.48,.47-.31,.93-.61,1.39-.92,.23-.15,.46-.31,.68-.46,.49-.34,.98-.67,1.46-1.01,.18-.13,.37-.26,.55-.39,.62-.44,1.23-.88,1.84-1.33,.04-.03,.08-.06,.12-.09,.66-.49,1.31-.98,1.95-1.47,.13-.1,.25-.2,.38-.3,.5-.39,.99-.77,1.48-1.17,.2-.16,.4-.32,.6-.49,.41-.33,.81-.66,1.21-1,.22-.19,.44-.38,.66-.56,.37-.31,.73-.63,1.09-.95,.23-.2,.45-.4,.67-.6,.35-.31,.7-.63,1.04-.95,.22-.2,.44-.4,.65-.6,.35-.32,.68-.65,1.02-.98,.2-.2,.41-.39,.61-.59,.36-.35,.71-.71,1.06-1.07,.17-.17,.34-.34,.51-.52,.46-.48,.92-.96,1.36-1.45,.05-.05,.1-.1,.15-.16,.49-.54,.98-1.08,1.45-1.63,.14-.16,.28-.33,.42-.49,.33-.38,.65-.77,.97-1.15,.17-.21,.34-.42,.51-.63,.28-.35,.55-.69,.82-1.04,.17-.23,.35-.45,.52-.68,.25-.34,.5-.68,.75-1.02,.17-.24,.34-.47,.51-.71,.24-.34,.48-.68,.71-1.02,.16-.24,.32-.47,.48-.71,.23-.35,.46-.71,.69-1.07,.14-.23,.29-.45,.43-.68,.24-.39,.47-.79,.7-1.18,.11-.19,.23-.39,.34-.58,.34-.59,.67-1.19,.98-1.79,.02,0,.04-.02,.05-.04,.01-.03,.02-.06,.02-.1Z" style="fill: #9e0404;"/>
        <path d="M170.75,33.25s63.14-9.15,118.67,5.63c0,0-43.86-6.96-118.67-5.63Z" style="fill: #f6f6f6;"/>
      </g>
    </symbol>
    <radialGradient id="radial-gradient-3" cx="1211.5" cy="768" fx="939.42" fy="514.72" r="819.88" gradientUnits="userSpaceOnUse">
      <stop offset="0" stop-color="#fff"/>
      <stop offset="1" stop-color="#c1bcad" stop-opacity="0"/>
    </radialGradient>
    <linearGradient id="linear-gradient" x1="303.18" y1="1337.77" x2="1850.37" y2="482.01" gradientUnits="userSpaceOnUse">
      <stop offset="0" stop-color="#fff" stop-opacity="0"/>
      <stop offset=".58" stop-color="#fafaf7" stop-opacity=".9"/>
      <stop offset=".74" stop-color="#f9f9f6" stop-opacity=".89"/>
      <stop offset=".8" stop-color="#f9f9f6" stop-opacity=".87"/>
      <stop offset=".84" stop-color="#f9f9f6" stop-opacity=".82"/>
      <stop offset=".87" stop-color="#f9f9f6" stop-opacity=".75"/>
      <stop offset=".9" stop-color="#f9f8f5" stop-opacity=".66"/>
      <stop offset=".93" stop-color="#f8f8f4" stop-opacity=".55"/>
      <stop offset=".95" stop-color="#f8f7f3" stop-opacity=".42"/>
      <stop offset=".97" stop-color="#f7f7f2" stop-opacity=".27"/>
      <stop offset=".99" stop-color="#f7f6f1" stop-opacity=".11"/>
      <stop offset="1" stop-color="#f7f6f1" stop-opacity="0"/>
    </linearGradient>
  </defs>
  <circle cx="1667.39" cy="59.84" r="4.48" style="fill: #fcf99a;"/>
  <circle cx="2271.1" cy="155.64" r="4.48" style="fill: #fcf99a;"/>
  <rect x="-90.98" y="-60.72" width="2575.38" height="1731.2" style="fill: #00313c;"/>
  <path d="M2484.41,559.29V1670.48H-90.98V580.08c411.38-41.44,890.95-65.22,1403.01-65.22,419.08,0,816.4,15.92,1172.38,44.43Z" style="fill: #004053;"/>
  <path d="M2484.4,1109.28c-355.98-28.5-753.3-44.43-1172.37-44.43-512.06,0-991.63,23.78-1403.01,65.22v540.4H2484.4v-561.19Z" style="fill: #084c67;"/>
  <g style="opacity: .3;">
    <polygon points="357.02 195.07 368.47 218.27 394.07 221.99 375.54 240.05 379.92 265.54 357.02 253.5 334.12 265.54 338.5 240.05 319.97 221.99 345.57 218.27 357.02 195.07" style="fill: #fff;"/>
    <polygon points="1707.36 123.33 1718.81 146.53 1744.41 150.25 1725.88 168.3 1730.26 193.8 1707.36 181.76 1684.46 193.8 1688.84 168.3 1670.31 150.25 1695.91 146.53 1707.36 123.33" style="fill: #fff;"/>
    <polygon points="1051.34 52.83 1059.28 68.92 1077.04 71.5 1064.19 84.02 1067.22 101.7 1051.34 93.35 1035.46 101.7 1038.49 84.02 1025.65 71.5 1043.4 68.92 1051.34 52.83" style="fill: #fff;"/>
    <polygon points="2319.59 118.37 2327.53 134.46 2345.28 137.04 2332.44 149.57 2335.47 167.25 2319.59 158.9 2303.71 167.25 2306.74 149.57 2293.89 137.04 2311.65 134.46 2319.59 118.37" style="fill: #fff;"/>
    <polygon points="1382.01 324.48 1389.95 340.57 1407.71 343.15 1394.86 355.68 1397.89 373.36 1382.01 365.01 1366.13 373.36 1369.16 355.68 1356.31 343.15 1374.07 340.57 1382.01 324.48" style="fill: #fff;"/>
  </g>
  <g style="opacity: .2;">
    <polygon points="1503.54 671.82 1491.41 696.4 1464.28 700.35 1483.91 719.48 1479.28 746.49 1503.54 733.74 1527.8 746.49 1523.17 719.48 1542.8 700.35 1515.67 696.4 1503.54 671.82" style="fill: #fff;"/>
    <polygon points="2386.73 944.01 2376.79 964.14 2354.58 967.37 2370.66 983.03 2366.86 1005.16 2386.73 994.71 2406.6 1005.16 2402.8 983.03 2418.88 967.37 2396.66 964.14 2386.73 944.01" style="fill: #fff;"/>
    <polygon points="1802.52 979.16 1792.58 999.29 1770.37 1002.52 1786.44 1018.19 1782.65 1040.31 1802.52 1029.87 1822.38 1040.31 1818.59 1018.19 1834.66 1002.52 1812.45 999.29 1802.52 979.16" style="fill: #fff;"/>
    <polygon points="283.98 662.2 274.04 682.33 251.83 685.55 267.9 701.22 264.11 723.35 283.98 712.9 303.84 723.35 300.05 701.22 316.12 685.55 293.91 682.33 283.98 662.2" style="fill: #fff;"/>
    <polygon points="972.25 667.62 962.31 687.75 940.1 690.97 956.17 706.64 952.38 728.77 972.25 718.32 992.12 728.76 988.32 706.64 1004.39 690.97 982.18 687.75 972.25 667.62" style="fill: #fff;"/>
    <polygon points="630.82 916.91 620.89 937.04 598.67 940.27 614.75 955.94 610.95 978.06 630.82 967.62 650.69 978.06 646.9 955.94 662.97 940.27 640.76 937.04 630.82 916.91" style="fill: #fff;"/>
    <polygon points="2018.7 722.93 2011.81 736.89 1996.4 739.13 2007.55 750 2004.92 765.34 2018.7 758.1 2032.48 765.34 2029.85 750 2041 739.13 2025.59 736.89 2018.7 722.93" style="fill: #fff;"/>
    <polygon points="1200.05 855.74 1193.16 869.7 1177.75 871.94 1188.9 882.8 1186.27 898.15 1200.05 890.9 1213.83 898.15 1211.2 882.8 1222.35 871.94 1206.94 869.7 1200.05 855.74" style="fill: #fff;"/>
    <polygon points="604.22 647.06 597.33 661.02 581.92 663.26 593.07 674.13 590.44 689.47 604.22 682.22 618 689.47 615.37 674.13 626.52 663.26 611.11 661.02 604.22 647.06" style="fill: #fff;"/>
    <polygon points="99.59 912.61 92.7 926.57 77.29 928.81 88.44 939.68 85.81 955.02 99.59 947.78 113.37 955.02 110.74 939.68 121.89 928.81 106.48 926.57 99.59 912.61" style="fill: #fff;"/>
    <polygon points="913.13 1091.45 906.24 1105.42 890.83 1107.65 901.98 1118.52 899.35 1133.87 913.13 1126.62 926.91 1133.87 924.28 1118.52 935.43 1107.65 920.02 1105.42 913.13 1091.45" style="fill: #fff;"/>
  </g>
  <path d="M1854.94,768c0,45.51-4.72,89.86-13.71,132.61-2.95,14.03-12.36,27.88-16.2,41.55-19.61,69.62-44.69,134.37-85.08,192.23-6.79,9.73-15.85,15.26-23.16,24.59-22.89,29.22-46.25,60.42-73.79,85.33-73.36,66.36-162.08,117.04-260.2,144.07-24.77,6.82-50.14,10.2-76.01,14.04-31.09,4.62-62.91,9.01-95.28,9.01-62.62,0-123.14-11.94-180.37-28.62-24.47-7.13-48.34-12.39-71.52-21.87-51.97-21.25-100.44-51.58-144.33-85.93-17.18-13.44-33.65-32.74-49.37-47.83-24.68-23.7-47.48-44.35-68.14-71.7-46.54-61.6-82.25-131.84-104.31-207.88-2.29-7.9-1.44-15.86-3.43-23.89-3.71-14.93-11.17-30.06-14.19-45.39-7.08-35.85-7.78-72.72-7.78-110.34,0-26.32,5.58-52.28,8.65-77.79,8.18-68,22.95-132.83,50.6-192.74,8.19-17.74,20.16-35.05,29.86-51.89,16.32-28.31,31.72-55.27,51.99-80.68,48.56-60.85,107.85-112.74,174.99-152.69,27.09-16.12,56.47-27.3,85.93-39.34,33-13.48,66.36-27.28,101.82-35.13,44.95-9.94,91.66-13.19,139.6-13.19,72.3,0,141.81,14.92,206.68,36.91,21.35,7.24,45.2,13.54,65.48,22.86,92.43,42.45,171.51,108.57,233.39,185.54,32.34,40.22,60.71,79.77,82.28,128.24,35.8,80.46,55.61,175.78,55.61,269.89Z" style="fill: #fcf1d4;"/>
  <path d="M1211.5,1411.44c32.38,0,64.19-4.39,95.28-9.01,25.87-3.84,51.24-7.22,76.01-14.04,98.12-27.03,186.84-77.71,260.2-144.07,27.53-24.9,50.9-56.11,73.79-85.33,7.31-9.33,16.36-14.86,23.16-24.59,40.39-57.86,65.48-122.62,85.08-192.23,3.85-13.67,13.26-27.52,16.2-41.55,8.99-42.75,13.71-87.1,13.71-132.61,0-94.11-19.81-189.43-55.61-269.89-16.31-36.66-36.52-68.22-59.4-98.83-15.32,34.68-29.2,73.23-31.5,103.1-5.47,71.16-169.68,158.73-217.03,194.02-47.35,35.29-56.65,205.55-40.23,276.7,16.42,71.16,5.47,153.26-10.95,191.57-16.42,38.31-164.21,21.89-224.42,21.89s-125.89-54.74-164.21-65.68c-38.31-10.95-49.26-76.63-104-82.1-54.74-5.47-43.79-27.37-197.05-27.37s-54.74-76.63-65.68-153.26c-6.25-43.72-65.93-48.24-116.06-44.06,.91,21.73,2.85,43.16,7.02,64.24,3.02,15.32,10.48,30.46,14.19,45.39,1.99,8.02,1.14,15.99,3.43,23.89,22.06,76.04,57.78,146.28,104.31,207.88,20.66,27.35,43.46,48,68.14,71.7,15.71,15.09,32.19,34.38,49.37,47.83,43.89,34.35,92.36,64.69,144.33,85.93,23.17,9.47,47.04,14.74,71.52,21.87,57.23,16.68,117.76,28.62,180.37,28.62Z" style="fill: #ede3c8;"/>
  <path d="M939.53,319.52s-76.01,23.89-89.04,58.64c-13.03,34.75-10.86,65.15,26.06,41.26,36.92-23.89,112.93-97.73,62.98-99.9Z" style="fill: #e9e2d1;"/>
  <path d="M970.55,518.47s-67.32,32.58-69.5,80.35c-2.17,47.78,10.86,86.87,45.61,60.81,34.75-26.06,84.7-138.99,23.89-141.16Z" style="fill: #e9e2d1;"/>
  <path d="M713.72,621.3s-45.61,89.04-36.92,112.93,91.21-121.62,36.92-112.93Z" style="fill: #e9e2d1;"/>
  <path d="M702.86,411.68s-49.95,49.95-49.95,80.35,69.5-67.32,49.95-80.35Z" style="fill: #e9e2d1;"/>
  <path d="M856.01,827.57s-41.26-19.55-43.44,2.17,0,71.67,34.75,95.56,73.84,13.03,8.69-97.73Z" style="fill: #e9e2d1;"/>
  <path d="M1220.3,726.96s-17.37-21.72-69.5,23.89c-52.12,45.61-41.26,112.93-13.03,115.1,28.23,2.17,102.07,26.06,123.79-2.17s43.44-136.82-41.26-136.82Z" style="fill: #e9e2d1;"/>
  <path d="M1043.49,1145.78s-97.73-32.58-158.54-13.03,19.55,54.29,47.78,69.5c28.23,15.2,169.4-6.52,110.76-56.47Z" style="fill: #e9e2d1;"/>
  <path d="M1299.67,392.13s-8.69-28.23-52.12-2.17c-43.44,26.06-28.23,52.12-4.34,69.5s86.87,69.5,112.93,56.47c26.06-13.03-56.47-123.79-56.47-123.79Z" style="fill: #e9e2d1;"/>
  <path d="M1155.67,171.65s-99.9-2.17-110.76,15.2c-10.86,17.37,65.15,15.2,84.7,19.55s78.18-15.2,26.06-34.75Z" style="fill: #e9e2d1;"/>
  <path d="M627.84,935.64s-17.37,2.17-13.03,28.23c4.34,26.06,23.89,73.84,34.75,76.01,10.86,2.17,19.55-43.44-21.72-104.24Z" style="fill: #e9e2d1;"/>
  <path d="M1384.6,1030.2s-43.44-23.89-102.07-13.03-99.9,26.06-52.12,58.64c47.78,32.58,110.76,73.84,141.16,49.95,30.4-23.89,89.04-62.98,13.03-95.56Z" style="fill: #e9e2d1;"/>
  <path d="M1602.45,677.01s-91.21,4.34-78.18,97.73c13.03,93.39-4.34,108.59,54.29,82.53,58.64-26.06,84.7-186.77,23.89-180.26Z" style="fill: #e9e2d1;"/>
  <path d="M1658.15,991.11c-14.24-48.07-58.64,8.69-60.81,47.78-2.17,39.09-62.98,67.32-62.98,89.04s141.16-78.18,123.79-136.82Z" style="fill: #e9e2d1;"/>
  <path d="M1137.89,1295.64s66.34-20.37,87.79-14.87c21.45,5.5,77.95,6.35,86.28,13.32s3.25,20.48-33.5,16.34c-36.75-4.14-142.08,13.4-140.57-14.79Z" style="fill: #e9e2d1;"/>
  <path d="M1529.07,350.63s-17.37,8.69,4.34,41.26c21.72,32.58,32.58,58.64,47.78,80.35,15,21.42,32.58,15.2,26.06-26.06-6.52-41.26-52.12-102.07-78.18-95.56Z" style="fill: #e9e2d1;"/>
  <path d="M1785.94,520.96s-4.34,56.47,6.52,106.42,30.4,71.67,30.4,34.75-21.72-128.13-36.92-141.16Z" style="fill: #e9e2d1;"/>
  <path d="M1479.12,197.95s-21.72-10.86-2.17,19.55c19.55,30.4,93.39,84.7,102.07,78.18,8.69-6.52-71.67-95.56-99.9-97.73Z" style="fill: #e9e2d1;"/>
  <circle cx="1211.5" cy="768" r="739.38" style="fill: url(#radial-gradient-3);"/>
  <path d="M927.68,320.96s-69.1,21.72-80.95,53.31-9.87,59.23,23.69,37.51,102.66-88.84,57.26-90.82Z" style="fill: #ddd2bf;"/>
  <path d="M992.83,544.06s-61.2,29.61-63.18,73.05,9.87,78.97,41.46,55.28,77-126.36,21.72-128.33Z" style="fill: #ddd2bf;"/>
  <path d="M706.55,626.98s-41.46,80.95-33.56,102.66,82.92-110.56,33.56-102.66Z" style="fill: #ddd2bf;"/>
  <path d="M696.68,411.78s-45.41,45.41-45.41,73.05,63.18-61.2,45.41-73.05Z" style="fill: #ddd2bf;"/>
  <path d="M860.55,830.33s-37.51-17.77-39.49,1.97,0,65.15,31.59,86.87,67.13,11.85,7.9-88.84Z" style="fill: #ddd2bf;"/>
  <path d="M1219.88,733.59s-15.79-19.74-63.18,21.72-37.51,102.66-11.85,104.64,92.79,23.69,112.54-1.97,39.49-124.38-37.51-124.38Z" style="fill: #ddd2bf;"/>
  <path d="M1036.26,1144.25s-88.84-29.61-144.13-11.85c-55.28,17.77,17.77,49.36,43.44,63.18s154-5.92,100.69-51.33Z" style="fill: #ddd2bf;"/>
  <path d="M1300.82,394.01s-7.9-25.67-47.38-1.97-25.67,47.38-3.95,63.18,78.97,63.18,102.66,51.33-51.33-112.54-51.33-112.54Z" style="fill: #ddd2bf;"/>
  <path d="M1148.8,168.94s-90.82-1.97-100.69,13.82,59.23,13.82,77,17.77,71.08-13.82,23.69-31.59Z" style="fill: #ddd2bf;"/>
  <path d="M619.68,940.9s-15.79,1.97-11.85,25.67,21.72,67.13,31.59,69.1,17.77-39.49-19.74-94.77Z" style="fill: #ddd2bf;"/>
  <path d="M1379.8,1035.66s-39.49-21.72-92.79-11.85-90.82,23.69-47.38,53.31,100.69,67.13,128.33,45.41,80.95-57.26,11.85-86.87Z" style="fill: #ddd2bf;"/>
  <path d="M1600.92,688.18s-82.92,3.95-71.08,88.84-3.95,98.72,49.36,75.02,77-169.79,21.72-163.87Z" style="fill: #ddd2bf;"/>
  <path d="M1660.15,1000.13c-12.95-43.7-53.31,7.9-55.28,43.44s-57.26,61.2-57.26,80.95,128.33-71.08,112.54-124.38Z" style="fill: #ddd2bf;"/>
  <path d="M1144.95,1296.03s60.31-18.52,79.81-13.52c19.5,5,70.87,5.78,78.44,12.11,7.57,6.34,2.96,18.62-30.45,14.85-33.41-3.77-129.17,12.18-127.79-13.45Z" style="fill: #ddd2bf;"/>
  <path d="M1535.77,354.52s-15.79,7.9,3.95,37.51,29.61,53.31,43.44,73.05,29.61,13.82,23.69-23.69-47.38-92.79-71.08-86.87Z" style="fill: #ddd2bf;"/>
  <path d="M1790.46,538.13s-3.95,51.33,5.92,96.74,27.64,65.15,27.64,31.59-19.74-116.49-33.56-128.33Z" style="fill: #ddd2bf;"/>
  <path d="M1490.36,194.6s-19.74-9.87-1.97,17.77,84.9,77,92.79,71.08-65.15-86.87-90.82-88.84Z" style="fill: #ddd2bf;"/>
  <path d="M1873.94,462.89c-51.22,16.04-843.51,448.83-1546.77,1008.56l-199-160.24c10.79-56.96,1521.16-852.65,1718.29-907.61l27.48,59.28Z" style="fill: url(#linear-gradient);"/>
  <use width="408.23" height="195.47" transform="translate(1743.49 378.77) rotate(-24.74)" xlink:href="#character"/>
</svg>