<?xml version="1.0" encoding="UTF-8"?>
<svg id="ouput-graphics" xmlns="http://www.w3.org/2000/svg" xmlns:xlink="http://www.w3.org/1999/xlink" viewBox="0 0 2423 1536">
  <defs>
    <radialGradient id="radial-gradient" cx="1118.06" cy="12699.48" fx="1118.06" fy="12638.14" r="61.34" gradientTransform="translate(12744.72 -1020.82) rotate(90)" gradientUnits="userSpaceOnUse">
      <stop offset="0" stop-color="#fcee21"/>
      <stop offset=".07" stop-color="#fce920" stop-opacity=".99"/>
      <stop offset=".14" stop-color="#fcdd1e" stop-opacity=".95"/>
      <stop offset=".22" stop-color="#fcc91b" stop-opacity=".9"/>
      <stop offset=".3" stop-color="#fcad17" stop-opacity=".82"/>
      <stop offset=".38" stop-color="#fd8812" stop-opacity=".72"/>
      <stop offset=".46" stop-color="#fe5b0c" stop-opacity=".59"/>
      <stop offset=".54" stop-color="#fe2805" stop-opacity=".45"/>
      <stop offset=".57" stop-color="#ff1603" stop-opacity=".4"/>
      <stop offset=".62" stop-color="#ff0f02" stop-opacity=".28"/>
      <stop offset=".68" stop-color="#ff0801" stop-opacity=".16"/>
      <stop offset=".75" stop-color="#ff0300" stop-opacity=".07"/>
      <stop offset=".81" stop-color="red" stop-opacity=".02"/>
      <stop offset=".86" stop-color="red" stop-opacity="0"/>
    </radialGradient>
    <radialGradient id="radial-gradient-2" cx="1118.06" cy="12699.48" fx="1118.06" fy="12654.66" r="44.83" gradientTransform="translate(12744.72 -1020.82) rotate(90)" gradientUnits="userSpaceOnUse">
      <stop offset="0" stop-color="#fcee21"/>
      <stop offset=".07" stop-color="#fce920" stop-opacity=".99"/>
      <stop offset=".14" stop-color="#fcdd1e" stop-opacity=".95"/>
      <stop offset=".22" stop-color="#fcc91b" stop-opacity=".9"/>
      <stop offset=".3" stop-color="#fcad17" stop-opacity=".82"/>
      <stop offset=".38" stop-color="#fd8812" stop-opacity=".72"/>
      <stop offset=".46" stop-color="#fe5b0c" stop-opacity=".59"/>
      <stop offset=".54" stop-color="#fe2805" stop-opacity=".45"/>
      <stop offset=".57" stop-color="#ff1603" stop-opacity=".4"/>
      <stop offset=".88" stop-color="red" stop-opacity="0"/>
    </radialGradient>
    <symbol id="character" viewBox="0 0 408.23 195.47">
      <g>
        <path d="M90.48,129.21c0,.34,0-27.77,0-31.74v-.47c0-3.97,0-32.08,0-31.74L0,56.93v80.6l90.48-8.32Z" style="fill: url(#radial-gradient);"/>
        <path d="M90.48,102.61c0,.06,0-4.67,0-5.33v-.08c0-.67,0-5.39,0-5.33L0,87.68v19.11l90.48-4.18Z" style="fill: url(#radial-gradient-2);"/>
        <polygon points="82.4 131.36 82.4 64.34 104 58.12 104 137.58 82.4 131.36" style="fill: #929292;"/>
        <polygon points="95.78 142.53 95.78 53.17 124.58 44.88 124.58 150.82 95.78 142.53" style="fill: #575756;"/>
        <path d="M222.71,25.08S160.51-24.51,78.09,15.78c-1.92,.94-1.45,4.43,.62,4.54,15.07,.82,53.62-.53,73.03,21.23l70.97-16.47Z" style="fill: #d80000;"/>
        <path d="M78.7,20.32c.27,.01,.56,.03,.84,.04,70.56-38.05,127.62-5.71,143.03,4.75l.13-.03S160.51-24.51,78.09,15.78c-1.92,.94-1.45,4.43,.62,4.54Z" style="fill: #ff7d7d;"/>
        <path d="M222.71,170.39s-62.2,49.59-144.62,9.3c-1.92-.94-1.45-4.43,.62-4.54,15.07-.82,53.62,.53,73.03-21.23l70.97,16.47Z" style="fill: #c60202;"/>
        <g>
          <path d="M151.74,153.92c-3.92,4.4-8.64,7.84-13.77,10.56l48.03,11.75s-31.84,20.51-77.45,14.78c66.82,17.13,114.17-20.61,114.17-20.61l-70.97-16.47Z" style="fill: #9e0404;"/>
          <path d="M79.56,175.11c3.05-.03,6.33-.13,9.73-.36-3.76,.15-7.06,.23-9.73,.36Z" style="fill: #9e0404;"/>
        </g>
        <path d="M406.3,97.47C368.62,25.98,171.03,7.16,116.84,39.88v115.48c54.48,32.81,251.92,13.75,289.47-57.59,.09,0,.1-.29,0-.3Z" style="fill: #ededed;"/>
        <path d="M408.15,97.76c-42.84,66.56-233.97,76.5-291.17,41.9v16.04c54.8,33.01,253.42,13.83,291.19-57.94,.05,0,.07-.07,.07-.14,0,.07-.04,.14-.08,.14Z" style="fill: #b2b2b2;"/>
        <g>
          <circle cx="285.58" cy="97.85" r="27.07" style="fill: #c7efff;"/>
          <polygon points="267.15 122.8 261.7 115.44 310.03 79.61 315.49 86.97 267.15 122.8" style="fill: #fff;"/>
          <polygon points="257.91 110.01 255.32 106.52 303.66 70.69 306.24 74.17 257.91 110.01" style="fill: #fff;"/>
          <path d="M305.41,69.9c-15.43-10.95-36.83-7.32-47.78,8.11s-7.32,36.83,8.11,47.78c15.43,10.95,36.83,7.32,47.78-8.11s7.32-36.83-8.11-47.78Zm-35.5,50.02c-12.19-8.65-15.06-25.55-6.41-37.74,8.65-12.19,25.55-15.06,37.74-6.41,12.19,8.65,15.06,25.55,6.41,37.74s-25.55,15.06-37.74,6.41Z" style="fill: #e2bd03;"/>
        </g>
        <path d="M152.11,167.36c4.49,.81,9.21,1.5,14.12,2.06V25.82c-4.91,.56-9.63,1.25-14.12,2.05V167.36Z" style="fill: #e2bd03;"/>
        <path d="M166.24,155.16c-4.9-.78-9.62-1.68-14.12-2.68v14.89c1.03,.19,2.07,.36,3.13,.54,.17,.03,.34,.06,.51,.08,1.07,.17,2.16,.34,3.26,.5,.01,0,.03,0,.04,0,1.14,.17,2.3,.32,3.47,.48,.04,0,.08,.01,.12,.02,1.19,.15,2.39,.3,3.6,.44,0,0,0,0,0,0v-14.26Z" style="fill: #ba9600;"/>
        <g>
          <ellipse cx="159.15" cy="31.47" rx="5.91" ry="4.87" style="fill: #ba9600;"/>
          <ellipse cx="159.15" cy="53.6" rx="5.91" ry="4.87" style="fill: #ba9600;"/>
          <ellipse cx="159.15" cy="75.72" rx="5.91" ry="4.87" style="fill: #ba9600;"/>
          <ellipse cx="159.15" cy="97.85" rx="5.91" ry="4.87" style="fill: #ba9600;"/>
          <ellipse cx="159.15" cy="119.98" rx="5.91" ry="4.87" style="fill: #ba9600;"/>
          <ellipse cx="159.15" cy="142.1" rx="5.91" ry="4.87" style="fill: #ba9600;"/>
          <ellipse cx="159.15" cy="164.23" rx="5.91" ry="4.87" style="fill: #8e6200;"/>
        </g>
        <path d="M205.86,108.09c16.07-.43,16.25-9.35,16.23-10.24,.02-.89-.15-9.81-16.23-10.24-13.01-.34-96.67,5.96-126.83,8.84-2.48,.24-2.48,2.56,0,2.8,30.16,2.88,113.82,9.18,126.83,8.84Z" style="fill: #d80000;"/>
        <path d="M77.18,97.78c-.05,.66,.57,1.35,1.85,1.47,30.16,2.88,113.82,9.18,126.83,8.84,16.07-.43,16.25-9.35,16.23-10.24,0-.02,0-.04,0-.07H77.18Z" style="fill: #9e0404;"/>
        <path d="M344.7,49.3v96.63c29.39-11.88,52.82-27.93,63.47-48.17,.09,0,.1-.29,0-.3-10.67-20.25-34.1-36.29-63.46-48.17Z" style="fill: #d80000;"/>
        <path d="M408.23,97.62c0,.07-.04,.14-.08,.14-11.83,18.37-34.96,32.43-63.45,42.42v5.75c1.81-.73,3.59-1.48,5.36-2.24,.13-.06,.26-.11,.39-.17,.72-.31,1.44-.63,2.15-.95,.21-.09,.42-.19,.63-.29,.63-.28,1.26-.57,1.88-.86,.24-.11,.48-.22,.71-.33,.6-.28,1.2-.56,1.79-.85,.24-.11,.48-.23,.72-.34,.6-.29,1.19-.58,1.78-.87,.22-.11,.45-.22,.67-.33,.63-.32,1.26-.64,1.88-.96,.17-.09,.34-.17,.51-.26,.78-.4,1.55-.81,2.32-1.22,0,0,.02-.01,.03-.02,.81-.43,1.61-.87,2.4-1.32,.03-.01,.05-.03,.07-.04,.73-.41,1.46-.82,2.17-1.24,.18-.11,.37-.22,.55-.32,.56-.32,1.11-.65,1.66-.98,.23-.14,.46-.28,.69-.42,.5-.3,.99-.61,1.48-.91,.24-.15,.49-.3,.73-.46,.47-.3,.94-.6,1.41-.9,.24-.16,.49-.32,.73-.48,.47-.31,.93-.61,1.39-.92,.23-.15,.46-.31,.68-.46,.49-.34,.98-.67,1.46-1.01,.18-.13,.37-.26,.55-.39,.62-.44,1.23-.88,1.84-1.33,.04-.03,.08-.06,.12-.09,.66-.49,1.31-.98,1.95-1.47,.13-.1,.25-.2,.38-.3,.5-.39,.99-.77,1.48-1.17,.2-.16,.4-.32,.6-.49,.41-.33,.81-.66,1.21-1,.22-.19,.44-.38,.66-.56,.37-.31,.73-.63,1.09-.95,.23-.2,.45-.4,.67-.6,.35-.31,.7-.63,1.04-.95,.22-.2,.44-.4,.65-.6,.35-.32,.68-.65,1.02-.98,.2-.2,.41-.39,.61-.59,.36-.35,.71-.71,1.06-1.07,.17-.17,.34-.34,.51-.52,.46-.48,.92-.96,1.36-1.45,.05-.05,.1-.1,.15-.16,.49-.54,.98-1.08,1.45-1.63,.14-.16,.28-.33,.42-.49,.33-.38,.65-.77,.97-1.15,.17-.21,.34-.42,.51-.63,.28-.35,.55-.69,.82-1.04,.17-.23,.35-.45,.52-.68,.25-.34,.5-.68,.75-1.02,.17-.24,.34-.47,.51-.71,.24-.34,.48-.68,.71-1.02,.16-.24,.32-.47,.48-.71,.23-.35,.46-.71,.69-1.07,.14-.23,.29-.45,.43-.68,.24-.39,.47-.79,.7-1.18,.11-.19,.23-.39,.34-.58,.34-.59,.67-1.19,.98-1.79,.02,0,.04-.02,.05-.04,.01-.03,.02-.06,.02-.1Z" style="fill: #9e0404;"/>
        <path d="M170.75,33.25s63.14-9.15,118.67,5.63c0,0-43.86-6.96-118.67-5.63Z" style="fill: #f6f6f6;"/>
      </g>
    </symbol>
    <radialGradient id="radial-gradient-3" cx="513.08" cy="1207.82" fx="50.44" fy="777.15" r="1394.13" gradientUnits="userSpaceOnUse">
      <stop offset="0" stop-color="#fff"/>
      <stop offset="1" stop-color="#c1bcad" stop-opacity="0"/>
    </radialGradient>
    <linearGradient id="linear-gradient" x1="-1031.42" y1="2176.65" x2="1599.42" y2="721.53" gradientUnits="userSpaceOnUse">
      <stop offset="0" stop-color="#fff" stop-opacity="0"/>
      <stop offset=".58" stop-color="#fafaf7" stop-opacity=".9"/>
      <stop offset=".74" stop-color="#f9f9f6" stop-opacity=".89"/>
      <stop offset=".8" stop-color="#f9f9f6" stop-opacity=".87"/>
      <stop offset=".84" stop-color="#f9f9f6" stop-opacity=".82"/>
      <stop offset=".87" stop-color="#f9f9f6" stop-opacity=".75"/>
      <stop offset=".9" stop-color="#f9f8f5" stop-opacity=".66"/>
      <stop offset=".93" stop-color="#f8f8f4" stop-opacity=".55"/>
      <stop offset=".95" stop-color="#f8f7f3" stop-opacity=".42"/>
      <stop offset=".97" stop-color="#f7f7f2" stop-opacity=".27"/>
      <stop offset=".99" stop-color="#f7f6f1" stop-opacity=".11"/>
      <stop offset="1" stop-color="#f7f6f1" stop-opacity="0"/>
    </linearGradient>
  </defs>
  <circle cx="1288.28" cy="3.67" r="7.62" style="fill: #fcf99a;"/>
  <circle cx="2314.81" cy="166.56" r="7.62" style="fill: #fcf99a;"/>
  <rect x="-1701.65" y="-201.34" width="4379.17" height="2039.85" style="fill: #00313c;"/>
  <g style="opacity: .3;">
    <polygon points="1356.24 111.63 1375.7 151.07 1419.23 157.4 1387.73 188.1 1395.17 231.45 1356.24 210.98 1317.3 231.45 1324.74 188.1 1293.24 157.4 1336.77 151.07 1356.24 111.63" style="fill: #fff;"/>
    <polygon points="240.75 -8.26 254.25 19.1 284.44 23.49 262.59 44.78 267.75 74.85 240.75 60.66 213.74 74.85 218.9 44.78 197.05 23.49 227.25 19.1 240.75 -8.26" style="fill: #fff;"/>
    <polygon points="2397.26 103.2 2410.77 130.56 2440.96 134.94 2419.11 156.24 2424.27 186.31 2397.26 172.11 2370.26 186.31 2375.42 156.24 2353.57 134.94 2383.76 130.56 2397.26 103.2" style="fill: #fff;"/>
    <polygon points="803.01 453.66 816.52 481.02 846.71 485.41 824.86 506.71 830.02 536.78 803.01 522.58 776.01 536.78 781.17 506.71 759.32 485.41 789.51 481.02 803.01 453.66" style="fill: #fff;"/>
  </g>
  <g style="opacity: .2;">
    <polygon points="1009.66 1044.28 989.04 1086.08 942.91 1092.78 976.29 1125.31 968.41 1171.25 1009.66 1149.56 1050.92 1171.25 1043.04 1125.31 1076.41 1092.78 1030.29 1086.08 1009.66 1044.28" style="fill: #fff;"/>
    <polygon points="106.26 1037.13 89.36 1071.36 51.59 1076.85 78.92 1103.49 72.47 1141.1 106.26 1123.34 140.04 1141.1 133.59 1103.49 160.92 1076.85 123.15 1071.36 106.26 1037.13" style="fill: #fff;"/>
    <polygon points="1885.64 1131.18 1873.92 1154.92 1847.72 1158.73 1866.68 1177.21 1862.2 1203.3 1885.64 1190.98 1909.07 1203.3 1904.59 1177.21 1923.55 1158.73 1897.35 1154.92 1885.64 1131.18" style="fill: #fff;"/>
    <polygon points="493.61 1357.01 481.89 1380.75 455.7 1384.55 474.65 1403.03 470.18 1429.12 493.61 1416.8 517.04 1429.12 512.57 1403.03 531.52 1384.55 505.33 1380.75 493.61 1357.01" style="fill: #fff;"/>
  </g>
  <path d="M1607.18,1207.82c0,77.38-8.03,152.8-23.31,225.49-5.01,23.85-21.01,47.41-27.55,70.65-33.34,118.38-75.99,228.49-144.68,326.87-11.55,16.54-26.95,25.95-39.38,41.82-38.92,49.68-78.65,102.75-125.47,145.09-124.74,112.83-275.61,199.01-442.44,244.98-42.12,11.6-85.26,17.35-129.25,23.88-52.87,7.85-106.97,15.31-162.02,15.31-106.47,0-209.39-20.31-306.7-48.67-41.61-12.13-82.2-21.08-121.6-37.18-88.37-36.13-170.78-87.71-245.42-146.12-29.21-22.86-57.23-55.67-83.94-81.32-41.97-40.3-80.73-75.41-115.86-121.91-79.13-104.75-139.86-224.18-177.37-353.48-3.9-13.43-2.44-26.98-5.83-40.62-6.31-25.39-18.99-51.12-24.13-77.17-12.03-60.96-13.23-123.65-13.23-187.62,0-44.75,9.49-88.89,14.71-132.28,13.91-115.63,39.02-225.87,86.04-327.74,13.92-30.17,34.28-59.6,50.77-88.23,27.75-48.14,53.93-93.99,88.4-137.18,82.57-103.48,183.38-191.7,297.55-259.62C2.52,235.35,52.47,216.35,102.56,195.88c56.11-22.93,112.84-46.39,173.13-59.73,76.43-16.91,155.86-22.42,237.38-22.42,122.93,0,241.13,25.38,351.43,62.76,36.31,12.31,76.86,23.03,111.34,38.87,157.17,72.18,291.64,184.62,396.86,315.48,54.99,68.39,103.23,135.64,139.9,218.06,60.88,136.82,94.56,298.9,94.56,458.92Z" style="fill: #fcf1d4;"/>
  <path d="M513.08,2301.92c55.05,0,109.15-7.47,162.02-15.31,43.99-6.53,87.13-12.28,129.25-23.88,166.84-45.96,317.71-132.14,442.44-244.98,46.82-42.35,86.55-95.41,125.47-145.09,12.43-15.86,27.83-25.28,39.38-41.82,68.69-98.39,111.34-208.5,144.68-326.87,6.55-23.24,22.54-46.8,27.55-70.65,15.28-72.69,23.31-148.1,23.31-225.49,0-160.02-33.68-322.1-94.56-458.92-27.74-62.34-62.11-116-101-168.04-26.06,58.97-49.65,124.52-53.55,175.31-9.31,120.99-288.52,269.91-369.03,329.91-80.51,60-96.33,349.51-68.41,470.51,27.92,120.99,9.31,260.6-18.61,325.75-27.92,65.15-279.22,37.23-381.59,37.23s-214.07-93.07-279.22-111.69c-65.15-18.61-83.76-130.3-176.84-139.61-93.07-9.31-74.46-46.54-335.06-46.54s-93.07-130.3-111.69-260.6c-10.62-74.34-112.12-82.03-197.34-74.93,1.54,36.95,4.85,73.39,11.93,109.23,5.14,26.05,17.82,51.79,24.13,77.17,3.39,13.64,1.94,27.18,5.83,40.62,37.51,129.3,98.24,248.73,177.37,353.48,35.13,46.5,73.89,81.61,115.86,121.91,26.72,25.65,54.73,58.46,83.94,81.32,74.63,58.41,157.04,109.99,245.42,146.12,39.4,16.11,79.99,25.06,121.6,37.18,97.31,28.36,200.23,48.67,306.7,48.67Z" style="fill: #ede3c8;"/>
  <path d="M50.62,445.23s-129.25,40.62-151.41,99.71c-22.16,59.09-18.46,110.79,44.31,70.16,62.78-40.62,192.03-166.18,107.09-169.87Z" style="fill: #e9e2d1;"/>
  <path d="M103.37,783.52S-11.11,838.92-14.8,920.16c-3.69,81.24,18.46,147.71,77.55,103.4,59.09-44.31,144.02-236.34,40.62-240.03Z" style="fill: #e9e2d1;"/>
  <path d="M528.05,1138.04s-29.54-36.93-118.17,40.62c-88.63,77.55-70.16,192.03-22.16,195.72,48.01,3.69,173.56,44.31,210.49-3.69,36.93-48.01,73.86-232.65-70.16-232.65Z" style="fill: #e9e2d1;"/>
  <path d="M663,568.7s-14.77-48.01-88.63-3.69c-73.86,44.31-48.01,88.63-7.39,118.17,40.62,29.54,147.71,118.17,192.03,96.01,44.31-22.16-96.01-210.49-96.01-210.49Z" style="fill: #e9e2d1;"/>
  <path d="M418.14,193.79s-169.87-3.69-188.33,25.85c-18.46,29.54,110.79,25.85,144.02,33.24s132.94-25.85,44.31-59.09Z" style="fill: #e9e2d1;"/>
  <path d="M1177.85,1053.1s-155.1,7.39-132.94,166.18c22.16,158.79-7.39,184.64,92.32,140.33,99.71-44.31,144.02-317.58,40.62-306.51Z" style="fill: #e9e2d1;"/>
  <path d="M1053.07,498.13s-29.54,14.77,7.39,70.16c36.93,55.39,55.39,99.71,81.24,136.64,25.5,36.43,55.39,25.85,44.31-44.31-11.08-70.16-88.63-173.56-132.94-162.49Z" style="fill: #e9e2d1;"/>
  <path d="M1489.85,787.75s-7.39,96.01,11.08,180.95c18.46,84.94,51.7,121.86,51.7,59.09s-36.93-217.88-62.78-240.03Z" style="fill: #e9e2d1;"/>
  <path d="M968.14,238.51s-36.93-18.46-3.69,33.24c33.24,51.7,158.79,144.02,173.56,132.94,14.77-11.08-121.86-162.49-169.87-166.18Z" style="fill: #e9e2d1;"/>
  <circle cx="513.08" cy="1207.82" r="1257.24" style="fill: url(#radial-gradient-3);"/>
  <path d="M30.47,447.67s-117.5,36.93-137.64,90.64c-20.14,53.71-16.79,100.71,40.29,63.79S107.68,451.03,30.47,447.67Z" style="fill: #ddd2bf;"/>
  <path d="M141.25,827.03s-104.07,50.36-107.43,124.21,16.79,134.29,70.5,94c53.71-40.29,130.93-214.86,36.93-218.21Z" style="fill: #ddd2bf;"/>
  <path d="M527.32,1149.31s-26.86-33.57-107.43,36.93c-80.57,70.5-63.79,174.57-20.14,177.93s157.79,40.29,191.36-3.36c33.57-43.64,67.14-211.5-63.79-211.5Z" style="fill: #ddd2bf;"/>
  <path d="M664.96,571.89s-13.43-43.64-80.57-3.36c-67.14,40.29-43.64,80.57-6.71,107.43,36.93,26.86,134.29,107.43,174.57,87.29,40.29-20.14-87.29-191.36-87.29-191.36Z" style="fill: #ddd2bf;"/>
  <path d="M406.46,189.17s-154.43-3.36-171.21,23.5c-16.79,26.86,100.71,23.5,130.93,30.21s120.86-23.5,40.29-53.71Z" style="fill: #ddd2bf;"/>
  <path d="M1175.25,1072.1s-141,6.71-120.86,151.07c20.14,144.36-6.71,167.86,83.93,127.57,90.64-40.29,130.93-288.71,36.93-278.64Z" style="fill: #ddd2bf;"/>
  <path d="M1064.46,504.75s-26.86,13.43,6.71,63.79c33.57,50.36,50.36,90.64,73.86,124.21,23.18,33.12,50.36,23.5,40.29-40.29-10.07-63.79-80.57-157.79-120.86-147.71Z" style="fill: #ddd2bf;"/>
  <path d="M1497.53,816.96s-6.71,87.29,10.07,164.5,47,110.79,47,53.71-33.57-198.07-57.07-218.21Z" style="fill: #ddd2bf;"/>
  <path d="M987.25,232.82s-33.57-16.79-3.36,30.21c30.21,47,144.36,130.93,157.79,120.86,13.43-10.07-110.79-147.71-154.43-151.07Z" style="fill: #ddd2bf;"/>
  <path d="M1639.49,689.01c-87.09,27.28-1434.3,763.19-2630.12,1714.96l-338.38-272.46c18.34-96.86,2586.56-1449.84,2921.77-1543.3l46.73,100.8Z" style="fill: url(#linear-gradient);"/>
  <use width="408.23" height="195.47" transform="translate(1417.67 545.98) rotate(-24.74) scale(1.7)" xlink:href="#character"/>
</svg>