<?xml version="1.0" encoding="UTF-8"?>
<svg id="ouput-graphics" xmlns="http://www.w3.org/2000/svg" viewBox="0 0 2423 1536">
  <defs>
    <style>
      .cls-1 {
        fill: #00313c;
      }

      .cls-2 {
        fill: #96917f;
      }

      .cls-3 {
        fill: #c1bcad;
      }

      .cls-4 {
        fill: #004053;
      }

      .cls-5 {
        fill: #084c67;
      }

      .cls-6 {
        fill: #e9e2d1;
      }

      .cls-7 {
        fill: #fff;
      }

      .cls-8 {
        opacity: .2;
      }

      .cls-9 {
        fill: #7f7b72;
      }

      .cls-10 {
        fill: #d5cfbf;
      }
    </style>
  </defs>
  <rect class="cls-1" x="-90.98" y="-60.72" width="2575.38" height="1731.2"/>
  <path class="cls-4" d="M2484.41,559.29v1111.19H-90.98V580.08c411.38-41.44,890.95-65.22,1403.01-65.22,419.08,0,816.4,15.92,1172.38,44.43Z"/>
  <path class="cls-5" d="M2484.4,1109.28c-355.98-28.5-753.3-44.43-1172.37-44.43-512.06,0-991.63,23.78-1403.01,65.22v540.4h2575.38v-561.19Z"/>
  <g>
    <path class="cls-3" d="M411.12,1403.82l-22.74-8.9s-160.55,3.93-198.01,17.97l-5.35,14.04,226.11-23.1Z"/>
    <path class="cls-3" d="M1575.41,1382.37l-22.35-14.4s-208.16-16.32-266.64-3.36l-17.44,17.23,306.42.53Z"/>
    <path class="cls-2" d="M2504.73,1458.4l-8.37-20.97s-141.94-31.73-191.34-27.93l-21.99,10.81,221.7,38.08Z"/>
    <path class="cls-10" d="M-184.9,1525.11c0,85.57,647.5,154.93,1446.24,154.93s1446.24-69.37,1446.24-154.93c0-34.47-105.09-57.2-282.82-83.56-84.76-12.57-186.05-33.75-300.34-42.87-61.28-4.89-126.31-7.17-194.52-10.99-23.52-1.32-28.84-15.25-49.81-19.88-53.06-11.72-118.52-13.37-190.62-11.41-13.94.38-52.41,19.05-66.51,18.66-86.28-2.38-171.68-1.41-263.4-2.04-31.14-.21-66.56-2.84-98.21-2.84-37.68,0-75.03.15-111.99.46-21.88.18-59.03-26.4-80.25-27.69-162.21-9.88-291.48,5.89-417.77,22.7-8.68,1.16-24.14,20.17-33.07,20.65-70.92,3.78-138.54,5.53-202.27,11.67-40.72,3.93-79.86,12.13-117.25,15.71-35.46,3.39-69.35,6.42-101.54,9.47-57.2,5.42-109.03,10.89-154.76,18.54-143.91,24.08-227.34,52.71-227.34,83.42Z"/>
    <path class="cls-3" d="M654.84,1637.75c38.13-46.55,155.98-53.83,339.69-53.83,183.71,0,298.1-53.83,318.89-87.28,20.8-33.46,190.64-10.18,256.5-8.73,65.86,1.45,149.05-48.01,166.38-71.28,10.8-14.5,170.93-20.53,290.13-23.02,39.08,2.62,76.91,3.33,113.37,6.32,108.47,8.9,204.84,28.01,286,40.07,177.09,26.33,281.76,50.71,281.76,85.11,0,85.57-647.5,154.93-1446.24,154.93-223.11,0-434.42-5.41-623.11-15.08,3.01-7.89,8.21-16.95,16.62-27.22Z"/>
    <path class="cls-3" d="M1189.69,1470.83s8.59-14.79,9.3-23.54l233.15-10.03s6.98,30.73,9.82,38.11c-80.96,25.81-165.28,22.32-252.27-4.53Z"/>
    <path class="cls-2" d="M1839.43,1451.2s-1.82,26.96-11.84,31.2c-.21.09-.37.28-.37.52-.07,17.32,167.47,63.01,269.13,23.91,0,0-8.45-16.07-2.82-35.9l-254.11-19.73Z"/>
    <path class="cls-3" d="M337.79,1453.97l-5.97,31.68s132.51,31.01,248.31-8.76l-22.95-35.69-219.4,12.78Z"/>
    <path class="cls-6" d="M2082.93,1480.54c12.44-3.4,12.86-13.45,1.06-17.53-23.03-7.95-76.37-23.68-136.52-23.13-49.76.45-105.6,1.9-108.05,11.31-2.08,7.98,190.51,43.83,243.51,29.35Z"/>
    <path class="cls-9" d="M2074.92,1475.87c10.62-2.21,10.98-8.73.9-11.38-19.66-5.16-65.17-19.7-116.49-19.35-42.46.29-101.49-.21-103.59,5.9-1.77,5.18,173.95,34.23,219.18,24.83Z"/>
    <path class="cls-6" d="M1432.14,1437.25s-10.14,18.79-63.01,20.2c-52.88,1.41-168.77-.13-170.13-10.17-1.36-10.03,51.81-30.1,115.89-24.7,64.08,5.4,109.08-3.09,117.26,14.66Z"/>
    <path class="cls-9" d="M1421.77,1437.76s-9.19,15.01-57.1,16.14c-47.92,1.13-152.94-.11-154.18-8.12-1.24-8.02,46.95-24.05,105.02-19.73s98.84-2.47,106.26,11.72Z"/>
    <path class="cls-6" d="M498.17,1425.26s41.05-5.79,59.01,15.94c17.96,21.73-162.64,14.39-207.04,15.16-44.4.77,22.31-35.45,148.03-31.1Z"/>
    <path class="cls-9" d="M496.73,1428.25s37.3-4.68,53.62,12.86c16.32,17.54-147.77,11.62-188.12,12.24-40.34.62,20.27-28.61,134.5-25.1Z"/>
    <path class="cls-2" d="M1884.38,1370.62s-147.85,1.89-196.38-11.13c0,0,38.96-3.85,116.82.95,61.51,3.79,79.57,10.18,79.57,10.18Z"/>
    <path class="cls-6" d="M893.86,1365.74c-127.1,5.16-248.29,6.87-246.72,1.44,1.51-.81,2.92-1.36,4.18-1.53,126.29-16.82,255.56-32.58,417.77-22.7,2.69.16,5.64.74,8.79,1.61-15.63,7.68-75.69,16.78-184.02,21.18Z"/>
    <path class="cls-2" d="M1068.41,1344.88s-113.95-5.03-202.9,1.26c-88.96,6.29-208.9,21.39-208.9,21.39,0,0,269.87-.84,411.81-22.65Z"/>
    <path class="cls-6" d="M1000.29,1509.92s-9.3-12.48-53.92-17.17c-44.62-4.68-128.28-3.12-172.9,2.34-44.62,5.46-109.69,16.39-109.69,16.39,0,0-83.66,21.85,42.76,30.43,126.42,8.58,301.18,18.73,293.74-31.99Z"/>
    <path class="cls-9" d="M985.21,1511.57s-8.41-10.32-48.76-14.19c-40.35-3.87-116.01-2.58-156.36,1.93-40.35,4.51-99.2,13.54-99.2,13.54,0,0-75.66,18.06,38.67,25.15,114.33,7.09,272.37,15.48,265.64-26.44Z"/>
  </g>
  <g class="cls-8">
    <polygon class="cls-7" points="653.67 87.37 646 102.92 628.84 105.42 641.25 117.52 638.32 134.61 653.67 126.54 669.02 134.61 666.09 117.52 678.51 105.42 661.35 102.92 653.67 87.37"/>
    <polygon class="cls-7" points="1212.4 259.56 1206.11 272.3 1192.06 274.34 1202.23 284.25 1199.83 298.25 1212.4 291.64 1224.96 298.25 1222.56 284.25 1232.73 274.34 1218.68 272.3 1212.4 259.56"/>
    <polygon class="cls-7" points="1348.18 103.27 1341.89 116 1327.84 118.05 1338.01 127.96 1335.61 141.95 1348.18 135.35 1360.75 141.95 1358.35 127.96 1368.51 118.05 1354.46 116 1348.18 103.27"/>
    <polygon class="cls-7" points="842.81 281.8 836.53 294.54 822.47 296.58 832.64 306.49 830.24 320.49 842.81 313.88 855.38 320.49 852.98 306.49 863.15 296.58 849.09 294.54 842.81 281.8"/>
    <polygon class="cls-7" points="317.56 84.71 311.28 97.45 297.23 99.49 307.4 109.4 305 123.39 317.56 116.79 330.13 123.39 327.73 109.4 337.9 99.49 323.85 97.44 317.56 84.71"/>
    <polygon class="cls-7" points="101.57 242.42 95.29 255.15 81.23 257.2 91.4 267.11 89 281.1 101.57 274.5 114.14 281.1 111.74 267.11 121.91 257.2 107.86 255.15 101.57 242.42"/>
    <polygon class="cls-7" points="979.57 119.7 975.21 128.54 965.47 129.95 972.52 136.83 970.85 146.53 979.57 141.95 988.29 146.53 986.62 136.83 993.68 129.95 983.93 128.54 979.57 119.7"/>
    <polygon class="cls-7" points="461.68 203.72 457.32 212.55 447.57 213.97 454.62 220.84 452.96 230.55 461.68 225.97 470.39 230.55 468.73 220.84 475.78 213.97 466.04 212.55 461.68 203.72"/>
    <polygon class="cls-7" points="84.74 71.7 80.38 80.54 70.64 81.95 77.69 88.83 76.02 98.54 84.74 93.95 93.46 98.54 91.79 88.83 98.85 81.95 89.1 80.54 84.74 71.7"/>
    <polygon class="cls-7" points="1480.13 352.84 1475.77 361.67 1466.02 363.09 1473.08 369.96 1471.41 379.67 1480.13 375.09 1488.85 379.67 1487.18 369.96 1494.23 363.09 1484.49 361.67 1480.13 352.84"/>
    <polygon class="cls-7" points="280.16 352.84 275.81 361.67 266.06 363.09 273.11 369.96 271.45 379.67 280.16 375.09 288.88 379.67 287.22 369.96 294.27 363.09 284.52 361.67 280.16 352.84"/>
  </g>
  <g class="cls-8">
    <polygon class="cls-7" points="1812.04 110.11 1804.37 125.66 1787.21 128.15 1799.63 140.25 1796.69 157.35 1812.04 149.28 1827.39 157.35 1824.46 140.25 1836.88 128.15 1819.72 125.66 1812.04 110.11"/>
    <polygon class="cls-7" points="2108.91 81.28 2102.62 94.02 2088.57 96.06 2098.74 105.97 2096.34 119.97 2108.91 113.36 2121.48 119.97 2119.07 105.97 2129.24 96.06 2115.19 94.02 2108.91 81.28"/>
    <polygon class="cls-7" points="2328.33 242.42 2322.04 255.15 2307.99 257.2 2318.16 267.11 2315.76 281.1 2328.33 274.5 2340.9 281.1 2338.5 267.11 2348.67 257.2 2334.61 255.15 2328.33 242.42"/>
    <polygon class="cls-7" points="2311.5 71.7 2307.14 80.54 2297.39 81.95 2304.45 88.83 2302.78 98.54 2311.5 93.95 2320.22 98.54 2318.55 88.83 2325.6 81.95 2315.86 80.54 2311.5 71.7"/>
    <polygon class="cls-7" points="1783.51 311.7 1779.16 320.53 1769.41 321.95 1776.46 328.82 1774.8 338.53 1783.51 333.94 1792.23 338.53 1790.57 328.82 1797.62 321.95 1787.87 320.53 1783.51 311.7"/>
    <polygon class="cls-7" points="1992.26 239.7 1987.9 248.53 1978.15 249.95 1985.21 256.82 1983.54 266.53 1992.26 261.95 2000.98 266.53 1999.31 256.82 2006.37 249.95 1996.62 248.53 1992.26 239.7"/>
  </g>
  <g class="cls-8">
    <polygon class="cls-7" points="317.44 1027.4 313.28 1035.81 304 1037.16 310.72 1043.7 309.13 1052.95 317.44 1048.58 325.74 1052.95 324.15 1043.7 330.87 1037.16 321.59 1035.81 317.44 1027.4"/>
    <polygon class="cls-7" points="1573.1 1015.1 1568.94 1023.51 1559.66 1024.86 1566.38 1031.4 1564.79 1040.65 1573.1 1036.28 1581.4 1040.65 1579.81 1031.4 1586.53 1024.86 1577.25 1023.51 1573.1 1015.1"/>
    <polygon class="cls-7" points="2047.95 1108.24 2044.55 1115.13 2036.95 1116.23 2042.45 1121.59 2041.15 1129.16 2047.95 1125.59 2054.75 1129.16 2053.45 1121.59 2058.95 1116.23 2051.35 1115.13 2047.95 1108.24"/>
    <polygon class="cls-7" points="2207.67 1023.7 2204.27 1030.59 2196.67 1031.69 2202.17 1037.05 2200.87 1044.62 2207.67 1041.05 2214.47 1044.62 2213.17 1037.05 2218.67 1031.69 2211.07 1030.59 2207.67 1023.7"/>
    <polygon class="cls-7" points="1735.25 1120.27 1731.85 1127.16 1724.25 1128.26 1729.75 1133.62 1728.45 1141.19 1735.25 1137.62 1742.05 1141.19 1740.75 1133.62 1746.25 1128.26 1738.65 1127.16 1735.25 1120.27"/>
    <polygon class="cls-7" points="632.57 1011.8 629.17 1018.69 621.57 1019.8 627.07 1025.16 625.77 1032.73 632.57 1029.15 639.37 1032.73 638.07 1025.16 643.57 1019.8 635.97 1018.69 632.57 1011.8"/>
    <polygon class="cls-7" points="1257.96 1013.66 1254.56 1020.55 1246.96 1021.65 1252.46 1027.01 1251.17 1034.58 1257.96 1031.01 1264.76 1034.58 1263.46 1027.01 1268.96 1021.65 1261.36 1020.55 1257.96 1013.66"/>
    <polygon class="cls-7" points="945.27 1098.97 941.87 1105.85 934.26 1106.96 939.77 1112.32 938.47 1119.89 945.27 1116.32 952.06 1119.89 950.77 1112.32 956.27 1106.96 948.66 1105.85 945.27 1098.97"/>
    <polygon class="cls-7" points="1891.6 1032.59 1889.24 1037.36 1883.97 1038.13 1887.78 1041.85 1886.88 1047.1 1891.6 1044.62 1896.31 1047.1 1895.41 1041.85 1899.23 1038.13 1893.96 1037.36 1891.6 1032.59"/>
    <polygon class="cls-7" points="1414.31 1078.03 1411.96 1082.81 1406.68 1083.58 1410.5 1087.29 1409.6 1092.55 1414.31 1090.07 1419.03 1092.55 1418.13 1087.29 1421.94 1083.58 1416.67 1082.81 1414.31 1078.03"/>
    <polygon class="cls-7" points="788.92 1006.62 786.56 1011.4 781.29 1012.17 785.1 1015.89 784.2 1021.14 788.92 1018.66 793.63 1021.14 792.73 1015.89 796.55 1012.17 791.27 1011.4 788.92 1006.62"/>
    <polygon class="cls-7" points="2364.02 1158.69 2361.66 1163.47 2356.39 1164.24 2360.2 1167.96 2359.3 1173.21 2364.02 1170.73 2368.73 1173.21 2367.83 1167.96 2371.65 1164.24 2366.37 1163.47 2364.02 1158.69"/>
    <polygon class="cls-7" points="158.65 1136.44 156.3 1141.22 151.02 1141.98 154.84 1145.7 153.94 1150.95 158.65 1148.47 163.37 1150.95 162.47 1145.7 166.28 1141.98 161.01 1141.22 158.65 1136.44"/>
    <polygon class="cls-7" points="476.22 1097.5 473.86 1102.27 468.59 1103.04 472.4 1106.76 471.5 1112.01 476.22 1109.53 480.93 1112.01 480.03 1106.76 483.85 1103.04 478.58 1102.27 476.22 1097.5"/>
    <polygon class="cls-7" points="1101.61 1158.69 1099.26 1163.47 1093.98 1164.24 1097.8 1167.96 1096.9 1173.21 1101.61 1170.73 1106.33 1173.21 1105.43 1167.96 1109.24 1164.24 1103.97 1163.47 1101.61 1158.69"/>
  </g>
  <g class="cls-8">
    <polygon class="cls-7" points="2.62 577.95 -3.03 589.38 -15.65 591.21 -6.52 600.11 -8.67 612.68 2.62 606.75 13.9 612.68 11.75 600.11 20.88 591.21 8.26 589.38 2.62 577.95"/>
    <polygon class="cls-7" points="1709.59 561.23 1703.95 572.66 1691.33 574.49 1700.46 583.4 1698.3 595.96 1709.59 590.03 1720.87 595.96 1718.72 583.4 1727.85 574.49 1715.23 572.66 1709.59 561.23"/>
    <polygon class="cls-7" points="2355.11 687.85 2350.49 697.21 2340.16 698.71 2347.64 706 2345.87 716.29 2355.11 711.43 2364.35 716.29 2362.59 706 2370.07 698.71 2359.73 697.21 2355.11 687.85"/>
    <polygon class="cls-7" points="1930.02 704.2 1925.4 713.56 1915.07 715.06 1922.55 722.35 1920.78 732.64 1930.02 727.79 1939.26 732.64 1937.5 722.35 1944.98 715.06 1934.64 713.56 1930.02 704.2"/>
    <polygon class="cls-7" points="431.01 556.75 426.39 566.11 416.06 567.61 423.53 574.9 421.77 585.19 431.01 580.34 440.25 585.19 438.49 574.9 445.97 567.61 435.63 566.11 431.01 556.75"/>
    <polygon class="cls-7" points="1281.19 559.27 1276.57 568.63 1266.24 570.14 1273.71 577.42 1271.95 587.72 1281.19 582.86 1290.43 587.72 1288.67 577.42 1296.15 570.14 1285.81 568.63 1281.19 559.27"/>
    <polygon class="cls-7" points="856.1 675.24 851.48 684.6 841.15 686.11 848.62 693.39 846.86 703.69 856.1 698.83 865.34 703.69 863.58 693.39 871.06 686.11 860.72 684.6 856.1 675.24"/>
    <polygon class="cls-7" points="2142.57 585 2139.36 591.5 2132.2 592.54 2137.38 597.59 2136.16 604.73 2142.57 601.36 2148.98 604.73 2147.75 597.59 2152.94 592.54 2145.77 591.5 2142.57 585"/>
    <polygon class="cls-7" points="1493.74 646.78 1490.53 653.28 1483.36 654.32 1488.55 659.37 1487.33 666.51 1493.74 663.14 1500.15 666.51 1498.92 659.37 1504.11 654.32 1496.94 653.28 1493.74 646.78"/>
    <polygon class="cls-7" points="643.56 549.71 640.35 556.2 633.18 557.24 638.37 562.3 637.15 569.44 643.56 566.07 649.97 569.44 648.74 562.3 653.93 557.24 646.76 556.2 643.56 549.71"/>
    <polygon class="cls-7" points="218.47 673.24 215.26 679.73 208.1 680.78 213.28 685.83 212.06 692.97 218.47 689.6 224.88 692.97 223.65 685.83 228.84 680.78 221.67 679.73 218.47 673.24"/>
    <polygon class="cls-7" points="1068.65 756.44 1065.44 762.93 1058.27 763.97 1063.46 769.03 1062.24 776.17 1068.65 772.79 1075.06 776.17 1073.83 769.03 1079.02 763.97 1071.85 762.93 1068.65 756.44"/>
  </g>
</svg>