<svg xmlns="http://www.w3.org/2000/svg" viewBox="0 0 40 40"><path d="M20,0A20,20,0,1,0,40,20,20,20,0,0,0,20,0m0,39.17A19.17,19.17,0,1,1,39.17,20,19.19,19.19,0,0,1,20,39.17" style="fill:#cacaca"/><path d="M39.58,20A19.58,19.58,0,1,1,20,.42,19.58,19.58,0,0,1,39.58,20" style="fill:#eee"/><path d="M35.82,20A15.82,15.82,0,1,1,20,4.18,15.82,15.82,0,0,1,35.82,20" style="fill:#5c5c5c"/><path d="M31.86,20A11.86,11.86,0,1,1,20,8.14,11.86,11.86,0,0,1,31.86,20" style="fill:#4cb5e0"/><path d="M27.91,20A7.91,7.91,0,1,1,20,12.09,7.91,7.91,0,0,1,27.91,20" style="fill:#fc5252"/><path d="M24,20A3.95,3.95,0,1,1,20,16.05,4,4,0,0,1,24,20" style="fill:#f9c15b"/></svg>