<svg xmlns="http://www.w3.org/2000/svg" width="300.52" height="300.52" viewBox="0 0 300.52 300.52">
  <g id="Instructions">
    <g>
      <circle cx="150.26" cy="150.26" r="145.26" style="fill: #68b34a"/>
      <g>
        <circle cx="150.26" cy="150.26" r="145.26" style="fill: none;stroke: #fff;stroke-miterlimit: 10;stroke-width: 10px"/>
        <path d="M132.22,67.71v10a.83.83,0,0,1,.13.12L204.59,150a.3.3,0,0,1,.09.22.28.28,0,0,1-.09.22l-72.23,72.23a.59.59,0,0,1-.14.11.61.61,0,0,1-.36-.15.48.48,0,0,1,0-.18V78a1.08,1.08,0,0,1,0-.16h0a.56.56,0,0,1,.37-.16v-10m0,0A10.29,10.29,0,0,0,121.84,78V222.49a10.3,10.3,0,0,0,10.38,10.33,10.11,10.11,0,0,0,7.22-3l72.22-72.23a10.3,10.3,0,0,0,0-14.58L139.44,70.75a10.11,10.11,0,0,0-7.22-3Z" style="fill: #fff"/>
      </g>
    </g>
  </g>
</svg>
