<svg xmlns="http://www.w3.org/2000/svg" width="240.93" height="240.93" viewBox="0 0 240.93 240.93">
  <g id="content-layer">
    <g>
      <circle cx="120.47" cy="120.47" r="116.46" style="fill: #68b34a"/>
      <circle cx="120.47" cy="120.47" r="116.46" style="fill: none;stroke: #fff;stroke-miterlimit: 10;stroke-width: 8.01707088947296px"/>
      <g>
        <path d="M53.09,143.72,28.55,109.07a4.29,4.29,0,0,1,4.22-6.7L92,112.49a4.28,4.28,0,0,1,1.75,7.72L59.06,144.74A4.28,4.28,0,0,1,53.09,143.72Z" style="fill: #fff"/>
        <path d="M164.8,95.35l18.07-7.19A70.27,70.27,0,0,0,50.58,127.74l19-3.8A51,51,0,0,1,164.8,95.35Z" style="fill: #fff"/>
      </g>
      <g>
        <path d="M192.72,110.34l16.67,39.06a4.28,4.28,0,0,1-5.54,5.65l-55.72-22.38a4.29,4.29,0,0,1-.08-7.92l39-16.66A4.28,4.28,0,0,1,192.72,110.34Z" style="fill: #fff"/>
        <path d="M169.25,135.21a50.94,50.94,0,0,1-87.38,18.52L66.21,165.08a70.25,70.25,0,0,0,123.72-34Z" style="fill: #fff"/>
      </g>
    </g>
  </g>
</svg>
