<?xml version="1.0" encoding="utf-8"?>
<!-- Generator: Adobe Illustrator 26.0.3, SVG Export Plug-In . SVG Version: 6.00 Build 0)  -->
<svg version="1.1" id="Layer_1" xmlns="http://www.w3.org/2000/svg" xmlns:xlink="http://www.w3.org/1999/xlink" x="0px" y="0px"
	 viewBox="0 0 130.7 45.2" style="enable-background:new 0 0 130.7 45.2;" xml:space="preserve">
<style type="text/css">
	.st0{fill:#FFFFFF;}
	.st1{fill:#FCD797;}
</style>
<path class="st0" d="M9.8,21.5c-1.8-0.5-3-0.9-3-1.6c0-0.6,0.6-1,1.8-1c1.4,0,3.3,0.6,4.9,1.5l0.6,0.3l2.1-4.2l-0.4-0.3
	c-1.8-1.2-4.4-2-6.8-2c-4.4,0-7.3,2.3-7.3,5.9c0,4.1,3.5,5.2,6.1,5.9c1.9,0.6,3.1,1,3.1,1.8c0,0.9-1.3,1.1-2,1.1
	c-1.9,0-4.2-0.8-5.6-2l-0.6-0.5l-2,4.1L0.9,31c1.9,1.6,4.8,2.6,7.7,2.6c4.6,0,7.6-2.3,7.6-6C16.2,23.4,12.5,22.3,9.8,21.5z"/>
<path class="st0" d="M26.7,14.4c-5.7,0-9.6,4-9.6,9.6c0,5.7,3.9,9.6,9.7,9.6c3.2,0,6-1.2,7.9-3.2l0.4-0.4l-3.1-3.3l-0.4,0.4
	c-1.1,1.2-2.7,1.8-4.3,1.8c-2,0-3.6-1-4.3-2.8h12.8l0-0.6c0.3-3.8-0.5-6.7-2.3-8.6C31.9,15.3,29.6,14.4,26.7,14.4z M22.8,22
	c0.5-1.9,2-3.1,4-3.1c2.1,0,3.6,1.2,3.9,3.1H22.8z"/>
<path class="st0" d="M46.5,14.4c-5.7,0-9.6,4-9.6,9.6c0,5.7,3.9,9.6,9.7,9.6c3.2,0,6-1.2,7.9-3.2l0.4-0.4l-3.1-3.3l-0.4,0.4
	c-1.1,1.2-2.7,1.8-4.3,1.8c-2,0-3.6-1-4.3-2.8h12.8l0-0.6c0.3-3.8-0.5-6.7-2.3-8.6C51.7,15.3,49.4,14.4,46.5,14.4z M50.4,22h-7.9
	c0.5-1.9,2-3.1,4-3.1C48.7,19,50.1,20.1,50.4,22z"/>
<path class="st0" d="M69,14.6c-1-0.4-2-0.6-3.1-0.6c-2.6,0-4.8,1-6.6,2.9c-1.8,1.9-2.6,4.4-2.6,7.3c0,2.8,0.8,5.2,2.3,7
	c1.6,1.8,3.7,2.7,6.2,2.7c1.5,0,2.9-0.4,4.3-1.2v0.8h4.7V6H69V14.6z M63.2,20c0.8-1,1.9-1.4,3.3-1.4c0.9,0,1.7,0.2,2.5,0.7v9.2
	c-1,0.6-2,1-3,1c-1.2,0-2.1-0.5-2.9-1.4C62.4,27,62,25.7,62,24.1C62,22.3,62.4,21,63.2,20z"/>
<rect x="77.1" y="6" class="st0" width="5.2" height="27.5"/>
<rect x="85.2" y="14.5" class="st0" width="5.2" height="18.9"/>
<path class="st0" d="M107.5,15.8c-1.2-1.2-2.8-1.8-4.9-1.8c-1.6,0-3.2,0.4-4.7,1.3v-0.8h-4.7v18.9h5.2V19.7c1.2-0.7,2.3-1,3.4-1
	c0.8,0,1.4,0.2,1.8,0.6c0.2,0.2,0.6,0.9,0.6,3.9v10.3h5.2V22.9c0-1.8-0.1-3-0.2-3.8C109,17.9,108.4,16.7,107.5,15.8z"/>
<path class="st0" d="M128.5,15.8c-2.6-1.2-5-1.8-7.2-1.8c-2.9,0-5.3,1-7.1,2.9c-1.8,1.9-2.8,4.3-2.8,7.2c0,2.6,0.7,4.8,2.2,6.5
	c1.5,1.9,3.7,2.8,6.3,2.8c1.3,0,2.6-0.3,3.9-0.9v2.3c0,1.8-0.3,2.9-1,3.5c-0.7,0.6-1.7,0.9-3,0.9c-1.5,0-3.1-0.7-4.3-1.8l-0.4-0.4
	l-3.1,3.3l0.4,0.4c0.4,0.5,1.7,1.6,2.9,2.1c1.8,0.8,3.1,1.1,5.1,1.1c2.9,0,5.1-0.8,6.7-2.4c0.8-0.9,1.4-1.9,1.7-3.1
	c0.2-0.8,0.3-2,0.3-3.6V16L128.5,15.8z M117.9,19.9c0.9-1,1.9-1.4,3.3-1.4c0.8,0,1.7,0.2,2.5,0.5v9.2c-0.9,0.6-1.9,0.9-3,0.9
	c-1.2,0-2.1-0.4-2.9-1.3c-0.8-0.9-1.2-2.2-1.2-3.7C116.6,22.3,117,20.9,117.9,19.9z"/>
<path class="st1" d="M92.7,11.6h-7.4V4.2c0-1.7,1.1-3.5,4.2-3.5c3.6,0,6.7,3.1,6.7,6.7C96.2,10.5,94.3,11.6,92.7,11.6z M86.9,9.9
	h5.7c1.2,0,1.9-0.9,1.9-2.5c0-2.7-2.4-5.1-5.1-5.1c-1.2,0-2.5,0.3-2.5,1.9V9.9z"/>
</svg>
