<svg xmlns="http://www.w3.org/2000/svg" xmlns:xlink="http://www.w3.org/1999/xlink" viewBox="0 0 279.23 336.57"><defs><clipPath id="a"><rect width="279.23" height="336.57" style="fill:none"/></clipPath><clipPath id="d"><path d="M173.69,217.56l-11,7.67a2.06,2.06,0,0,0-.42,3.07l47.38,50.79c5.64,5.16,11.31,10.4,16.79,15.56,11.92,11.21,23.92,22.57,34.46,32.59l2.58,2.1a2,2,0,0,0,1.86.34l8.67-2.75a2.11,2.11,0,0,0,1.37-2.77c-13.4-14.45-29.44-31.72-42-45.17-20-21.42-46-49.22-57.55-61.57a2,2,0,0,0-1-.25,2.1,2.1,0,0,0-1.21.39" style="fill:none"/></clipPath><clipPath id="e"><rect x="115.21" y="164.46" width="42.75" height="41.5" style="fill:none"/></clipPath><clipPath id="f"><rect x="255.45" y="321.46" width="41.14" height="42.68" style="fill:none"/></clipPath><clipPath id="g"><rect x="223.36" y="284.72" width="52.28" height="53.55" style="fill:none"/></clipPath><clipPath id="h"><rect x="180.22" y="227.78" width="41.61" height="42.39" style="fill:none"/></clipPath><clipPath id="i"><rect x="186.4" y="251.97" width="44.63" height="46.65" style="fill:none"/></clipPath><clipPath id="j"><rect x="87.11" y="143.74" width="42.76" height="41.5" style="fill:none"/></clipPath><clipPath id="k"><rect x="95.93" y="159.45" width="42.76" height="41.5" style="fill:none"/></clipPath><clipPath id="l"><rect x="156.3" y="208.61" width="79.24" height="78.91" style="fill:none"/></clipPath><clipPath id="m"><rect x="158.8" y="228.3" width="77.75" height="79.94" style="fill:none"/></clipPath><clipPath id="n"><rect x="243.83" y="293.7" width="79.24" height="78.91" style="fill:none"/></clipPath><clipPath id="o"><rect x="261.69" y="317.31" width="63.23" height="62.95" style="fill:none"/></clipPath><clipPath id="p"><rect x="136.33" y="192.93" width="61.87" height="63.88" style="fill:none"/></clipPath><clipPath id="q"><rect x="199.77" y="255.14" width="57.84" height="58.93" style="fill:none"/></clipPath><clipPath id="r"><rect x="237.31" y="306.18" width="72.3" height="75.48" style="fill:none"/></clipPath><clipPath id="s"><rect x="98.28" y="166.76" width="73.81" height="69.58" style="fill:none"/></clipPath><clipPath id="u"><path d="M105,217.83,54.27,265.32C49.12,271,43.9,276.65,38.75,282.15c-11.17,11.94-22.51,24-32.49,34.52l-2.11,2.59a2,2,0,0,0-.33,1.87l2.76,8.66a2.12,2.12,0,0,0,2.78,1.36c14.41-13.43,31.65-29.5,45.07-42.06,21.37-20,49.11-46.1,61.43-57.69a2.06,2.06,0,0,0-.14-2.18l-7.7-11a2.13,2.13,0,0,0-1.74-.92,1.9,1.9,0,0,0-1.32.52" style="fill:none"/></clipPath><clipPath id="v"><rect x="127.29" y="170.62" width="41.4" height="42.85" style="fill:none"/></clipPath><clipPath id="w"><rect x="-30.57" y="311.23" width="42.58" height="41.24" style="fill:none"/></clipPath><clipPath id="x"><rect x="-4.76" y="279.05" width="53.43" height="52.4" style="fill:none"/></clipPath><clipPath id="y"><rect x="63.23" y="235.78" width="42.29" height="41.71" style="fill:none"/></clipPath><clipPath id="z"><rect x="34.79" y="242.02" width="46.55" height="44.74" style="fill:none"/></clipPath><clipPath id="aa"><rect x="147.94" y="142.48" width="41.4" height="42.85" style="fill:none"/></clipPath><clipPath id="ab"><rect x="132.25" y="151.33" width="41.4" height="42.85" style="fill:none"/></clipPath><clipPath id="ac"><rect x="45.91" y="211.81" width="78.72" height="79.42" style="fill:none"/></clipPath><clipPath id="ad"><rect x="25.19" y="214.36" width="79.76" height="77.93" style="fill:none"/></clipPath><clipPath id="ae"><rect x="-38.98" y="299.55" width="78.72" height="79.42" style="fill:none"/></clipPath><clipPath id="af"><rect x="-46.63" y="317.46" width="62.81" height="63.37" style="fill:none"/></clipPath><clipPath id="ag"><rect x="76.53" y="191.81" width="63.73" height="62.02" style="fill:none"/></clipPath><clipPath id="ah"><rect x="19.41" y="255.4" width="58.8" height="57.98" style="fill:none"/></clipPath><clipPath id="ai"><rect x="-48.07" y="293.05" width="75.31" height="72.47" style="fill:none"/></clipPath><clipPath id="aj"><rect x="96.94" y="153.7" width="69.41" height="73.97" style="fill:none"/></clipPath><clipPath id="al"><path d="M131,3.36c0,19.7-.11,43.28-.12,61.66V75.87c0,27.25.06,58.53.09,73.42a2,2,0,0,0,1.68,1.38l13.29,1.9a2.05,2.05,0,0,0,2.39-2V81.16c-.6-7.63-1.17-15.33-1.67-22.84C145.6,42,144.57,25.5,143.7,11l-.45-3.3a2,2,0,0,0-1.13-1.51L133.9,2.27a2.08,2.08,0,0,0-.93-.22,2.11,2.11,0,0,0-2,1.31" style="fill:none"/></clipPath><clipPath id="am"><rect x="136.21" y="169.89" width="3" height="59.51" style="fill:none"/></clipPath><clipPath id="an"><rect x="142.65" y="-40.34" width="1.09" height="59.27" style="fill:none"/></clipPath><clipPath id="ao"><rect x="140.31" y="-7.14" width="1.84" height="74.82" style="fill:none"/></clipPath><clipPath id="ap"><rect x="133.26" y="79.37" width="1.59" height="59.38" style="fill:none"/></clipPath><clipPath id="aq"><rect x="145.8" y="52.28" width="1.09" height="64.56" style="fill:none"/></clipPath><clipPath id="ar"><rect x="142.62" y="204.2" width="3" height="59.51" style="fill:none"/></clipPath><clipPath id="as"><rect x="146.89" y="186.69" width="3" height="59.51" style="fill:none"/></clipPath><clipPath id="at"><rect x="135.12" y="57.33" width="4.16" height="111.75" style="fill:none"/></clipPath><clipPath id="au"><rect x="148.5" y="41.49" width="2.38" height="111.49" style="fill:none"/></clipPath><clipPath id="av"><rect x="129.14" y="-64.6" width="4.16" height="111.75" style="fill:none"/></clipPath><clipPath id="aw"><rect x="132.93" y="-71.45" width="4.43" height="89.16" style="fill:none"/></clipPath><clipPath id="ax"><rect x="141.34" y="105.25" width="3.22" height="88.91" style="fill:none"/></clipPath><clipPath id="ay"><rect x="136.99" y="22.86" width="2.79" height="82.54" style="fill:none"/></clipPath><clipPath id="az"><rect x="145.18" y="-62.04" width="2.81" height="104.5" style="fill:none"/></clipPath><clipPath id="ba"><rect x="146.63" y="138.03" width="7.08" height="101.23" style="fill:none"/></clipPath></defs><g style="clip-path:url(#a)"><g style="clip-path:url(#a)"><g style="clip-path:url(#a)"><path d="M176.32,217.78,275,323.58a2.08,2.08,0,0,1-1,3.35l-8.67,2.75a2,2,0,0,1-1.86-.34l-29-23.64a1.54,1.54,0,0,1-.19-.17l-72-77.23a2.06,2.06,0,0,1,.42-3.07l11-7.67a2,2,0,0,1,2.63.22" style="fill:#824a21"/></g><g style="clip-path:url(#d)"><g style="opacity:0.100005999207497"><g style="clip-path:url(#e)"><path d="M118.72,167S156,203.5,157.86,205.81s-23.6-22.56-25.53-24.36-17.12-17-17.12-17Z"/></g></g><g style="opacity:0.100005999207497"><g style="clip-path:url(#f)"><path d="M258.94,324.16s35.8,37.52,37.56,39.83-22.75-23.24-24.62-25.1-16.43-17.43-16.43-17.43Z"/></g></g><g style="opacity:0.100005999207497"><g style="clip-path:url(#g)"><path d="M227.91,288.09s45.44,47.08,47.62,50-28.95-29.15-31.33-31.48-20.84-21.89-20.84-21.89Z"/></g></g><g style="opacity:0.100005999207497"><g style="clip-path:url(#h)"><path d="M183.73,230.43s36.21,37.27,38,39.59-23-23.07-24.89-24.91-16.63-17.33-16.63-17.33Z"/></g></g><g style="opacity:0.100005999207497"><g style="clip-path:url(#i)"><path d="M190.35,254.94s38.77,41,40.6,43.52S206.21,273.05,204.17,271,186.4,252,186.4,252Z"/></g></g><g style="opacity:0.100005999207497"><g style="clip-path:url(#j)"><path d="M90.63,146.26s37.25,36.52,39.14,38.83-23.6-22.56-25.53-24.36-17.13-17-17.13-17Z"/></g></g><g style="opacity:0.100005999207497"><g style="clip-path:url(#k)"><path d="M99.45,162s37.25,36.52,39.14,38.83-23.6-22.56-25.53-24.35-17.13-17-17.13-17Z"/></g></g><g style="opacity:0.100005999207497"><g style="clip-path:url(#l)"><path d="M162.26,213.64s69.26,69.35,73.06,73.61-43.52-43-47-46.41-32-32.23-32-32.23Z"/></g></g><g style="opacity:0.100005999207497"><g style="clip-path:url(#m)"><path d="M164.7,233.44s67.94,70.24,71.63,74.53-42.72-43.57-46.18-47.05-31.36-32.62-31.36-32.62Z"/></g></g><g style="opacity:0.100005999207497"><g style="clip-path:url(#n)"><path d="M249.79,298.73s69.27,69.35,73.07,73.61-43.52-43-47.05-46.41-32-32.23-32-32.23Z"/></g></g><g style="opacity:0.100005999207497"><g style="clip-path:url(#o)"><path d="M261.69,317.31s14.65,13,16.42,15.13,16.26,17,19.84,20.87,24.9,24,26.88,26.79-31.72-29.68-33.86-32-15.57-14.42-17.11-16.28-12.17-14.52-12.17-14.52"/></g></g><g style="opacity:0.100005999207497"><g style="clip-path:url(#p)"><path d="M136.33,192.93s14.44,13.31,16.16,15.43,15.85,17.23,19.33,21.11,24.43,24.44,26.31,27.18S167,226.41,164.87,224.08s-15.31-14.7-16.79-16.56-11.75-14.59-11.75-14.59"/></g></g><g style="opacity:0.100005999207497"><g style="clip-path:url(#q)"><path d="M199.78,255.14s13.18,13.13,15,15.23,16.74,16.32,20.33,20.16,20.32,20.65,22.41,23.35-26.29-25.65-28.45-27.95-14-13.39-15.53-15.23-13.75-15.56-13.75-15.56"/></g></g><g style="opacity:0.100005999207497"><g style="clip-path:url(#r)"><path d="M242.49,311.9s18.3,19,20.35,21,15.47,15.56,17,17.8,13.9,14.09,15.88,16.84,13.33,13.27,13.91,14.1-30.67-29.8-33.26-33-27.78-28.57-29.11-29.79-8.69-10.69-9.75-12.34c-1.27-2,5,5.38,5,5.38"/></g></g><g style="opacity:0.100005999207497"><g style="clip-path:url(#s)"><path d="M98.28,166.76s18.4,19.51,21.39,21.53c.27.18.71.52,1.3,1,6,4.76,27.24,22.95,28.5,24.3s7.35,7.65,8.73,9.13,12.48,12.92,13.77,13.59-8.5-6.25-10.44-8.33-9.64-10.83-12.87-13.58-9.17-8.24-10.63-9.69S125.15,193,122.79,191.57s-20.43-19.42-21.52-20.83-3-4-3-4"/></g></g></g><g style="clip-path:url(#a)"><path d="M115.5,231.86,9.94,330.78a2.08,2.08,0,0,1-3.36-1l-2.76-8.66a2,2,0,0,1,.33-1.87l23.57-29a1,1,0,0,1,.18-.18L105,217.83a2,2,0,0,1,3.06.4l7.7,11a2,2,0,0,1-.22,2.64" style="fill:#824a21"/></g><g style="clip-path:url(#u)"><g style="opacity:0.100005999207497"><g style="clip-path:url(#v)"><path d="M166.17,174.14s-36.43,37.34-38.73,39.23,22.5-23.65,24.29-25.58,17-17.17,17-17.17Z"/></g></g><g style="opacity:0.100005999207497"><g style="clip-path:url(#w)"><path d="M9.32,314.73s-37.43,35.88-39.74,37.64,23.19-22.8,25-24.67S12,311.23,12,311.23Z"/></g></g><g style="opacity:0.100005999207497"><g style="clip-path:url(#x)"><path d="M45.32,283.61s-47,45.55-49.89,47.74,29.08-29,31.4-31.41,21.84-20.89,21.84-20.89Z"/></g></g><g style="opacity:0.100005999207497"><g style="clip-path:url(#y)"><path d="M102.87,239.29S65.68,275.6,63.38,277.4s23-23,24.85-24.94,17.29-16.68,17.29-16.68Z"/></g></g><g style="opacity:0.100005999207497"><g style="clip-path:url(#z)"><path d="M78.38,246S37.47,284.84,35,286.67s25.35-24.8,27.38-26.84,19-17.81,19-17.81Z"/></g></g><g style="opacity:0.100005999207497"><g style="clip-path:url(#aa)"><path d="M186.83,146s-36.44,37.34-38.74,39.23,22.51-23.65,24.3-25.58,17-17.17,17-17.17Z"/></g></g><g style="opacity:0.100005999207497"><g style="clip-path:url(#ab)"><path d="M171.13,154.86s-36.43,37.33-38.73,39.23,22.5-23.65,24.29-25.59,17-17.17,17-17.17Z"/></g></g><g style="opacity:0.100005999207497"><g style="clip-path:url(#ac)"><path d="M119.61,217.78S50.43,287.21,46.18,291s42.87-43.62,46.3-47.15,32.15-32.06,32.15-32.06Z"/></g></g><g style="opacity:0.100005999207497"><g style="clip-path:url(#ad)"><path d="M99.82,220.27s-70.08,68.11-74.36,71.81,43.46-42.82,46.94-46.29S105,214.36,105,214.36Z"/></g></g><g style="opacity:0.100005999207497"><g style="clip-path:url(#ae)"><path d="M34.73,305.52S-34.46,375-38.71,378.75,4.17,335.14,7.59,331.6s32.15-32.05,32.15-32.05Z"/></g></g><g style="opacity:0.100005999207497"><g style="clip-path:url(#af)"><path d="M16.18,317.46s-13,14.67-15.09,16.45-17,16.3-20.83,19.89-24,25-26.72,26.95,29.6-31.79,31.9-33.94,14.39-15.6,16.24-17.14,14.5-12.21,14.5-12.21"/></g></g><g style="opacity:0.100005999207497"><g style="clip-path:url(#ag)"><path d="M140.26,191.81S127,206.28,124.87,208s-17.19,15.89-21.07,19.39-24.37,24.48-27.11,26.37,30.16-31.24,32.49-33.34,14.66-15.34,16.52-16.82,14.56-11.79,14.56-11.79"/></g></g><g style="opacity:0.100005999207497"><g style="clip-path:url(#ah)"><path d="M78.21,255.4s-13.11,13.22-15.2,15S46.72,287.21,42.9,290.81s-20.6,20.37-23.31,22.46,25.59-26.35,27.89-28.51,13.36-14,15.19-15.57S78.21,255.4,78.21,255.4"/></g></g><g style="opacity:0.100005999207497"><g style="clip-path:url(#ai)"><path d="M21.55,298.25s-19,18.34-21,20.39-15.53,15.51-17.76,17S-31.24,349.59-34,351.58-47.22,364.93-48,365.52s29.73-30.74,32.92-33.34S13.37,304.34,14.59,303s10.68-8.72,12.32-9.79c2-1.27-5.36,5-5.36,5"/></g></g><g style="opacity:0.100005999207497"><g style="clip-path:url(#aj)"><path d="M166.35,153.7s-19.48,18.45-21.48,21.44c-.18.27-.52.71-1,1.31-4.75,6-22.89,27.29-24.24,28.55s-7.63,7.36-9.11,8.75S97.66,226.26,97,227.55s6.23-8.52,8.31-10.46,10.8-9.66,13.55-12.9,8.21-9.19,9.65-10.66,11.64-12.9,13.09-15.26S161,157.79,162.37,156.7s4-3,4-3"/></g></g></g><g style="clip-path:url(#a)"><path d="M130.89,148.71V4a2.08,2.08,0,0,1,3-1.77l8.22,3.91a2,2,0,0,1,1.13,1.51l5.07,37.06a1.1,1.1,0,0,1,0,.26v105.6a2.05,2.05,0,0,1-2.39,2l-13.29-1.9a2,2,0,0,1-1.77-2" style="fill:#824a21"/></g><g style="clip-path:url(#al)"><g style="opacity:0.100005999207497"><g style="clip-path:url(#am)"><path d="M138.36,225.15S136,173,136.22,170.06s1.87,32.59,2.06,35.22.93,24.11.93,24.11Z"/></g></g><g style="opacity:0.100005999207497"><g style="clip-path:url(#an)"><path d="M143,14.56s-.59-51.85-.3-54.74.78,32.52.88,35.15.13,24,.13,24Z"/></g></g><g style="opacity:0.100005999207497"><g style="clip-path:url(#ao)"><path d="M141.12,62.11s-1.13-65.42-.73-69,1.29,41.06,1.45,44.38.31,30.23.31,30.23Z"/></g></g><g style="opacity:0.100005999207497"><g style="clip-path:url(#ap)"><path d="M134.1,134.41s-1.06-52-.8-54.87,1.09,32.55,1.21,35.19.34,24,.34,24Z"/></g></g><g style="opacity:0.100005999207497"><g style="clip-path:url(#aq)"><path d="M146,112s-.39-56.43,0-59.52.76,35.46.87,38.33,0,26.05,0,26.05Z"/></g></g><g style="opacity:0.100005999207497"><g style="clip-path:url(#ar)"><path d="M144.77,259.46s-2.33-52.11-2.14-55.08,1.87,32.59,2.06,35.22.93,24.11.93,24.11Z"/></g></g><g style="opacity:0.100005999207497"><g style="clip-path:url(#as)"><path d="M149,242s-2.33-52.12-2.14-55.09,1.87,32.59,2.06,35.22.93,24.11.93,24.11Z"/></g></g><g style="opacity:0.100005999207497"><g style="clip-path:url(#at)"><path d="M138.35,161.33s-3.35-98-3.22-103.66,2.5,61.11,2.74,66,1.41,45.38,1.41,45.38Z"/></g></g><g style="opacity:0.100005999207497"><g style="clip-path:url(#au)"><path d="M150.07,145.19s-1.78-97.7-1.56-103.36,1.53,61,1.69,65.9.68,45.25.68,45.25Z"/></g></g><g style="opacity:0.100005999207497"><g style="clip-path:url(#av)"><path d="M132.37,39.4s-3.35-98-3.22-103.66,2.5,61.11,2.74,66,1.41,45.38,1.41,45.38Z"/></g></g><g style="opacity:0.100005999207497"><g style="clip-path:url(#aw)"><path d="M136.34,17.7s-1.83-19.51-1.69-22.26-.27-23.55-.26-28.8-1.83-34.56-1.4-37.92,3,43.34,2.95,46.49,1.55,21.16,1.41,23.57-1,18.92-1,18.92"/></g></g><g style="opacity:0.100005999207497"><g style="clip-path:url(#ax)"><path d="M143.18,194.16s-1.48-19.58-1.29-22.3.17-23.41.27-28.63-1.2-34.52-.71-37.81,2.17,43.36,2.11,46.49,1.17,21.2,1,23.57-1.36,18.68-1.36,18.68"/></g></g><g style="opacity:0.100005999207497"><g style="clip-path:url(#ay)"><path d="M139.22,105.4s-.69-18.6-.58-21.37-1.11-23.35-1.12-28.61-.78-29-.45-32.36,1.72,36.69,1.73,39.84,1.08,19.32,1,21.73-.55,20.77-.55,20.77"/></g></g><g style="opacity:0.100005999207497"><g style="clip-path:url(#az)"><path d="M146.69,34.76s-.41-26.4-.55-29.25-.69-21.93-.27-24.59-.55-19.79-.12-23.16S145.05-61,145.19-62s2.1,42.71,1.82,46.82.82,39.84,1,41.63-.94,13.76-1.28,15.69c-.41,2.3,0-7.35,0-7.35"/></g></g><g style="opacity:0.100005999207497"><g style="clip-path:url(#ba)"><path d="M153.16,239.26s-.15-26.83-1-30.34c-.07-.31-.17-.86-.28-1.61-1.17-7.59-4.27-35.36-4.27-37.21,0-2-.15-10.6-.15-12.63s-.32-17.95-.81-19.33,2,10.38,2,13.22-.34,14.5.15,18.71,1.09,12.28,1.17,14.33,1.46,17.32,2.19,20,1.69,28.14,1.53,29.91-.53,5-.53,5"/></g></g></g><g style="clip-path:url(#a)"><path d="M188.23,194.05a48.62,48.62,0,1,1-48.61-48.62,48.61,48.61,0,0,1,48.61,48.62" style="fill:#382c23"/><path d="M139.62,246.82a52.77,52.77,0,1,1,52.77-52.77,52.84,52.84,0,0,1-52.77,52.77m0-97.23a44.46,44.46,0,1,0,44.46,44.46,44.5,44.5,0,0,0-44.46-44.46" style="fill:#96603b"/></g></g></g></svg>