<svg xmlns="http://www.w3.org/2000/svg" viewBox="0 0 90.91 72.72"><defs><style>.cls-1{fill:#fff;}</style></defs><title>audioIcon</title><g id="Layer_2" data-name="Layer 2"><g id="UI-layer"><path class="cls-1" d="M64.94,24.54A3,3,0,1,0,62.33,30a7.2,7.2,0,0,1,4.33,6.36,7.19,7.19,0,0,1-4.33,6.36,3,3,0,1,0,2.61,5.46,13.19,13.19,0,0,0,7.78-11.82A13.19,13.19,0,0,0,64.94,24.54ZM43.9,0a4.42,4.42,0,0,0-3.18,1.34L23.87,18.18H4.55A4.55,4.55,0,0,0,0,22.73V50a4.54,4.54,0,0,0,4.55,4.54H23.87L40.72,71.39a4.46,4.46,0,0,0,3.18,1.33,4.53,4.53,0,0,0,4.58-4.54V4.55A4.54,4.54,0,0,0,43.9,0ZM42.42,64.52l-16-16H6.06V24.24H26.38l16-16V64.52ZM90.91,36.36c0-12.52-6.45-24-16.82-29.9a3.08,3.08,0,0,0-4.18,1.12A3,3,0,0,0,71,11.72C79.52,16.56,84.79,26,84.79,36.36S79.52,56.17,71,61a3,3,0,0,0-1.13,4.14,3.08,3.08,0,0,0,4.18,1.12c10.37-5.92,16.82-17.38,16.82-29.9Z"/></g></g></svg>