<svg xmlns="http://www.w3.org/2000/svg" xmlns:xlink="http://www.w3.org/1999/xlink" viewBox="0 0 2423 1536"><defs><linearGradient id="a" x1="-8.32" y1="437.56" x2="2431.07" y2="437.56" gradientUnits="userSpaceOnUse"><stop offset="0" stop-color="#8cd2f9"/><stop offset="0.16" stop-color="#91d4f9"/><stop offset="0.36" stop-color="#a0dafa"/><stop offset="0.57" stop-color="#b8e3fb"/><stop offset="0.79" stop-color="#d9f0fd"/><stop offset="1" stop-color="#fff"/></linearGradient></defs><rect x="-8.32" y="-19.17" width="2439.39" height="913.46" style="fill:url(#a)"/><path d="M1545.66,840a354.48,354.48,0,0,1-2.84,38.65c-.33,2.51-.55,3.92-.55,3.92H-8.32V182.12c9.32-.86,17.9-.87,25.05.32,42.38,7.08,196.47,21.22,227.29,49.5S394.26,345.09,436.64,352.16,613.85,387.52,637,387.52s138.68,56.57,146.39,84.85,38.52,84.86,69.34,84.86,80.9-7.07,107.86,7.07,77,21.22,92.46,42.43c8.82,12.15,63.09,33.56,112.22,55,36.69,16,70.52,31.95,80.4,44,23.12,28.29,288.93,56.58,296.63,91.93C1545.15,810.89,1545.88,826.1,1545.66,840Z" style="fill:#48b5d3"/><path d="M2431.07,310.17v585.1c-173.75-.51-420.82-.39-677.83,0-112,.18-226,.41-336.56.66h-4.1c-431.29,1-810.28,2.31-824.47,2.31a25.84,25.84,0,0,1-7.34-.91h0a11,11,0,0,1-5.16-3c-2.64-2.92-2.81-7.17-1.7-11.77a37.26,37.26,0,0,1,1.21-3.92,63,63,0,0,1,3.82-8.17,105.54,105.54,0,0,1,6.47-10.2,8.15,8.15,0,0,1,6.67-3.62c25.74.18,173.7,1.21,337.82,1.92H930c226.13,1,482.9,1.36,492.92-1.95,18-6,46.32-8.93,61.77-11.91,10.47-2,37.48-2.66,61-4.72,11.19-1,21.59-2.29,29.06-4.2,23.16-6,41.18-32.74,61.77-44.64s38.6-50.59,48.9-77.37,38.61-20.83,51.47-41.66,46.33-29.75,59.2-44.63,23.17-26.78,25.74-41.66,64.34-41.66,82.36-47.62,43.75-20.83,56.62-23.8c5.15-1.19,13.62-7.17,22.42-14.67,13.14-11.2,27-25.81,31.63-32.94,7.72-11.91,48.9-38.69,59.2-38.69s33.46-17.85,41.18-32.73,77.21-11.9,87.51-11.9,56.62-32.74,84.93-29.76,110.67-23.81,131.26-38.68C2421.83,312.89,2426,311.32,2431.07,310.17Z" style="fill:#48b5d3"/><path d="M1692.77,469.25a5.43,5.43,0,0,0-3.57,1.05,65.43,65.43,0,0,1-29.36,11.43c-18.19,2.11-76.42-6.31-91,4.21s-72.78,29.45-92.79,27.35-52.77,21-60,21-56.4-2.11-61.86,8.41-21.84,23.14-29.11,23.14-36.39,18.93-41.85,27.35-29.11,31.55-38.21,33.66-27.3,12.62-40,16.83-56.41,23.14-58.23,33.66-9.09,18.93-18.19,29.45-32.75,16.83-41.85,31.55-29.11,10.52-36.39,29.45-20,46.28-34.57,54.7-27.29,27.35-43.67,31.55-52.76,4.21-63.68,6.31-30.93,4.21-43.67,8.42c-12.22,4-544.07.33-587.33,0a5.78,5.78,0,0,0-4.72,2.56c-5.12,7.17-17.41,26.87,1.93,26.87,23.65,0,1480.77-5.26,1476.22,0-4.21,4.87,298.73-363.86,299.28-418.27,0-3.74-2.46-6.85-5.69-7.07l-59.71,27.67-42.37-25.16a36.15,36.15,0,0,0-19.16-5.06l-20.47,5.51a80.06,80.06,0,0,1-41,.15l-20.07-5.23-40.56-.42-48-.5Z" style="fill:#48b5d3"/><rect x="-8.32" y="878.6" width="2439.39" height="651.31" style="fill:#51d2f4"/><g style="opacity:0.100005999207497"><polygon points="2431.07 1300.93 2431.07 1540.23 -8.32 1540.23 -8.32 955.54 2431.07 1300.93" style="fill:#5c5c5c"/></g><path d="M302.61,799.68c-.78,5.11-2,9.54-5.34,11.05a4.94,4.94,0,0,1-2.32.16c-6.51-1.3-1.46,8.55-3.67,11.4-2.31,5.83-5.92,6.7-9.26,5-2.59-1.29-5.27,21.72-7.89,41.43,4.7,4.16,8.39,10.39,11.84,17.35,4.35,8.77,5.68,17.73,2.24,28.07-.11,4.54,1.51,8.87.6,13.52-1.37,5.62.36,11.25,0,16.88-.71,6.93-1.64,13.68-5.3,18-2.51,2.33-5.32,2-8,2.63-4.52,1.28-8.5-3.37-12.92-3.41-4-3.07-7.25-3.77-9.79,4.62-2,6.78-5.86,10.38-10.61,9.68a4.07,4.07,0,0,1-.7-.22c-2.59-1-5-4.37-7.87-1.17-4,2.4-7.24-.06-10.36-4.37-2.65-3.66-4.9-8.77-8.82-8.66-2,.15-3.83,1.31-5.8,1-5.08,1-10,2.94-15.27,0s-9.51,6.07-14.69,6.89c-6,1-8.95-10-14.45-10.83-1.51,0-3,1.2-4.51.43-2.94-3.63-4.49-8.83-5.51-14.61.1-3.73,1.73-4.77,3.31-4.19,6.38,2.35,8.83-3.21,9.29-13.08.42-4.18,0-8.49.61-12.66,1.05-3.81,3.05-6.41,4.28-10a2,2,0,0,0,.08-.22,10.66,10.66,0,0,1,.92-1.59c.06-.1.14-.19.2-.29.72-1,1.53-1.9,2.18-3a8.31,8.31,0,0,0,.79-1.7,10,10,0,0,0,.39-4.05c0-.16,0-.32,0-.49a28.65,28.65,0,0,0-2.15-6.61c-.14-.28-.27-.56-.42-.82a15.83,15.83,0,0,0-1.6-2.46,15.11,15.11,0,0,0-1.47-1.59,14.76,14.76,0,0,0-1.45-1.21l-.27-.19-.69-.46a27.51,27.51,0,0,0-3.74-1.92c-.21-.1-.43-.2-.66-.29-.55-.24-1.11-.48-1.66-.7s-1.22-.54-1.82-.83-1.37-.7-2-1.1l-.23,0-.6-.05c-.52,0-1-.07-1.55-.08a13.16,13.16,0,0,0-2.26.1,7.55,7.55,0,0,0-1.47.31,8,8,0,0,0-1.94.85l-.32.19a17.15,17.15,0,0,0-2.6,1,7.84,7.84,0,0,0-2.2,1.6,1.66,1.66,0,0,0-.13.14c-.12.12-.23.26-.35.39l-.22.3a6.1,6.1,0,0,0-.34.54,13.57,13.57,0,0,0-1.68,5.81c0,.21-.09.43-.13.65-.09.48-.15,1-.2,1.49-.29,3,0,6.23-.47,9.2a13.68,13.68,0,0,1-.38,1.71c-.13.37-.25.72-.38,1a10.07,10.07,0,0,1-.78,1.5,7.56,7.56,0,0,1-.73,1,4.83,4.83,0,0,1-.53.57,6.12,6.12,0,0,1-.48.41c-.28.22-.55.42-.83.6-.11.08-.23.15-.35.22-5.78,3.39-11.34-2.5-17-2.55-5.85-.56-11.72-.94-16.9-6.51-3.41-2.26-5.54-8.53-9.53-8.91-2-1.46-4.11-2.73-6.13-4.25C84.6,880.75,84,871,79.28,875.58a25.82,25.82,0,0,0-.54,3.32c-.39,5,.69,10.21-.7,15.07-.8,2.48-1.94,4.27-3.57,5-4.57,1.66-7.2-11.51-12.44-4.82-7.86-.1-12.62-12.23-19.78-15-2.21.79-3.6,4.31-5.8,5.18-6.1-.46-10.56-7.45-15.71-11.69-5.87-.5-1.15,7-2.51,9.93a10.73,10.73,0,0,1-6.17,8.06c-1.53.61-3-.51-4.52-.44L-7.55,868.48c-.18-.24-.34-.49-.52-.74V735.45l.52-.2c12.47-5.14,15.48-1.49,17.92,19.89A48.33,48.33,0,0,1,9.94,763c-1.12,5.26.36,8.69,2.78,11.28,2,2.16,2.76-.32,3.27-3.15a39.61,39.61,0,0,1,3-10.39c2.69-4.74,5.49-9.26,8.92-12.43,8.79-7.86,11.88-18.8,9.75-34a92.18,92.18,0,0,1-.89-15.2,40.37,40.37,0,0,1,2.31-9.51,10,10,0,0,1,1.79-2.65c3.88-2.82,7.16-.39,10.39,3.33s3.3-.94,3.65-4.54c1.13-19.11,2.78-20.46,12-10.36a47.07,47.07,0,0,1,6.73,9.78c1.46,2.74,3.13,3.75,4.55-.3a29.26,29.26,0,0,1,.94-3.08c1.51-2.61,1.88-6.09,2.38-9.48A15.14,15.14,0,0,1,82.74,669c2.55-3.66,5.12-3.12,7.73-.25a22.56,22.56,0,0,1,2.85,6.55c1.75,9.51,4.67,14.81,11.3,13.55,4.91-.93,9.62,2.8,13.06,9.68a12.5,12.5,0,0,0,2.16,3.14c3.44-1.65,6.22-8.35,10.39-3.86,4.7,4.79,7.34,12.77,9.54,20.66,2.1,7.54,4.62,6.2,7.8,3.63,5.36-1.16,7.32,5.2,9.36,12,1.56,5.22.92,12,4.06,16,2.43,2.46,4.17.19,5.72-2.64,3.58-6.51,7.09-12.35,12.94-13.06,3.92-.48,4.61-8.57,6.34-13.5,2-5.61,4.21-11.28,7.92-10.5,9.6,2,13.36-11,17.81-20.42,7.53-16,12.56-16.11,18.5,2.18A63.75,63.75,0,0,0,233,699c.66,1.44,1.26,3,1.89,4.48,4.54,1.74,8.78-6.4,13.42-1.21a47.69,47.69,0,0,1,5.65,7.51,20.79,20.79,0,0,1,2.3,4.78c1,3,1.14,6.49,1.84,9.67.54,3.38,2.09,5.78,3,8.82,7.52,12,14.52,24.87,21.81,37.21a23,23,0,0,1,1.43,10.16c-.1,2.18-.35,4.39-.55,6.59-.42,4.66,1.23,3.79,2.83,3C297.36,777.84,301.17,780.16,302.61,799.68Z" style="fill:#6d9345"/><path d="M791.88,753.45l0,.13-28.55,93.21L727.87,962.45l-18.93,61.81L636.1,1262.09l-.7-.23-87.21-29.1-.24-.08L519,1223l-16.68-5.57-1.76-.59-26-8.69-6.77-2.26-12.15-4.07-7.23-2.4-6-2-6.42-2.15-3.53-1.17-13.76-4.6-.28-.09L417,1189l-16.64-5.55-2.38-1.83-2.35-1.81-7.89-6-12.38-9.48-.25-.18-5.33-4.09-1.7-1.3-6.9-5.28-14.51-11.13-3.77-2.88-1.52-1.16-13.47-10.33-5.49-4.2L311.12,1115l-4.26-3.27-3.91-3L292.83,1101l-1-.74-5.56-4.27-.7-.53-20.41-15.64-68.62-52.58-6.12-4.7-1.82-1.39-11-8.42-5.78-4.43-39.73-30.43-71.74-55L15.29,888.35-4,873.55l-4-3.09-.26-.2V812.7c.08-.1.17-.19.26-.29,5.34-5.81,11.56-12,18.71-18.36A318.92,318.92,0,0,1,36.4,773.42,386.1,386.1,0,0,1,88,742.18a461.79,461.79,0,0,1,52.18-22.45A549,549,0,0,1,207,700.4q11.86-2.65,24.43-4.95A743.67,743.67,0,0,1,346.7,684q28.65-.7,59.88.51,27.71,1.11,57.51,3.91c5.14.49,10.33,1,15.57,1.59,1.1.12,2.21.25,3.33.36.83.1,1.66.18,2.51.29q34,3.87,70.83,10.13l3,.52c3.28.57,6.58,1.16,9.89,1.75Q583,705.59,597,708.41q16.57,3.33,33.69,7.18l.76.17q7.74,1.74,15.6,3.59c17.52,4.13,36.5,8.39,56.83,13,26.83,6.11,56,12.89,87.28,20.89Z" style="fill:#49c97d"/><path d="M302.61,799.68c-.78,5.11-2,9.54-5.34,11.05a4.94,4.94,0,0,1-2.32.16c-6.51-1.3-1.46,8.55-3.67,11.4-2.31,5.83-5.92,6.7-9.26,5-2.59-1.29-5.27,21.72-7.89,41.43,4.7,4.16,8.39,10.39,11.84,17.35,4.35,8.77,5.68,17.73,2.24,28.07-.11,4.54,1.51,8.87.6,13.52-1.37,5.62.36,11.25,0,16.88-.71,6.93-1.64,13.68-5.3,18-2.51,2.33-5.32,2-8,2.63-4.52,1.28-8.5-3.37-12.92-3.41-4-3.07-7.25-3.77-9.79,4.62-2,6.78-5.86,10.38-10.61,9.68a4.07,4.07,0,0,1-.7-.22c-2.59-1-5-4.37-7.87-1.17-4,2.4-7.24-.06-10.36-4.37-2.65-3.66-4.9-8.77-8.82-8.66-2,.15-3.83,1.31-5.8,1-5.08,1-10,2.94-15.27,0s-9.51,6.07-14.69,6.89c-6,1-8.95-10-14.45-10.83-1.51,0-3,1.2-4.51.43-2.94-3.63-4.49-8.83-5.51-14.61.1-3.73,1.73-4.77,3.31-4.19,6.38,2.35,8.83-3.21,9.29-13.08.42-4.18,0-8.49.61-12.66,1.05-3.81,3.05-6.41,4.28-10a2,2,0,0,0,.08-.22,10.66,10.66,0,0,1,.92-1.59c.06-.1.14-.19.2-.29.72-1,1.53-1.9,2.18-3a8.31,8.31,0,0,0,.79-1.7,10,10,0,0,0,.39-4.05c0-.16,0-.32,0-.49a28.65,28.65,0,0,0-2.15-6.61c-.14-.28-.27-.56-.42-.82a15.83,15.83,0,0,0-1.6-2.46,15.11,15.11,0,0,0-1.47-1.59,14.76,14.76,0,0,0-1.45-1.21l-.27-.19-.69-.46a27.51,27.51,0,0,0-3.74-1.92c-.21-.1-.43-.2-.66-.29-.55-.24-1.11-.48-1.66-.7s-1.22-.54-1.82-.83-1.37-.7-2-1.1l-.23,0-.6-.05c-.52,0-1-.07-1.55-.08a13.16,13.16,0,0,0-2.26.1,7.55,7.55,0,0,0-1.47.31,8,8,0,0,0-1.94.85l-.32.19a17.15,17.15,0,0,0-2.6,1,7.84,7.84,0,0,0-2.2,1.6,1.66,1.66,0,0,0-.13.14c-.12.12-.23.26-.35.39l-.22.3a6.1,6.1,0,0,0-.34.54,13.57,13.57,0,0,0-1.68,5.81c0,.21-.09.43-.13.65-.09.48-.15,1-.2,1.49-.29,3,0,6.23-.47,9.2a13.68,13.68,0,0,1-.38,1.71c-.13.37-.25.72-.38,1a10.07,10.07,0,0,1-.78,1.5,7.56,7.56,0,0,1-.73,1,4.83,4.83,0,0,1-.53.57,6.12,6.12,0,0,1-.48.41c-.28.22-.55.42-.83.6-.11.08-.23.15-.35.22-5.78,3.39-11.34-2.5-17-2.55-5.85-.56-11.72-.94-16.9-6.51-3.41-2.26-5.54-8.53-9.53-8.91-2-1.46-4.11-2.73-6.13-4.25C84.6,880.75,84,871,79.28,875.58a25.82,25.82,0,0,0-.54,3.32c-.39,5,.69,10.21-.7,15.07-.8,2.48-1.94,4.27-3.57,5-4.57,1.66-7.2-11.51-12.44-4.82-7.86-.1-12.62-12.23-19.78-15-2.21.79-3.6,4.31-5.8,5.18-6.1-.46-10.56-7.45-15.71-11.69-5.87-.5-1.15,7-2.51,9.93a10.73,10.73,0,0,1-6.17,8.06c-1.53.61-3-.51-4.52-.44L-7.55,868.48c-.18-.24-.34-.49-.52-.74V735.45l.52-.2c12.47-5.14,15.48-1.49,17.92,19.89A48.33,48.33,0,0,1,9.94,763c-1.12,5.26.36,8.69,2.78,11.28,2,2.16,2.76-.32,3.27-3.15a39.61,39.61,0,0,1,3-10.39c2.69-4.74,5.49-9.26,8.92-12.43,8.79-7.86,11.88-18.8,9.75-34a92.18,92.18,0,0,1-.89-15.2,40.37,40.37,0,0,1,2.31-9.51,10,10,0,0,1,1.79-2.65c3.88-2.82,7.16-.39,10.39,3.33s3.3-.94,3.65-4.54c1.13-19.11,2.78-20.46,12-10.36a47.07,47.07,0,0,1,6.73,9.78c1.46,2.74,3.13,3.75,4.55-.3a29.26,29.26,0,0,1,.94-3.08c1.51-2.61,1.88-6.09,2.38-9.48A15.14,15.14,0,0,1,82.74,669c2.55-3.66,5.12-3.12,7.73-.25a22.56,22.56,0,0,1,2.85,6.55c1.75,9.51,4.67,14.81,11.3,13.55,4.91-.93,9.62,2.8,13.06,9.68a12.5,12.5,0,0,0,2.16,3.14c3.44-1.65,6.22-8.35,10.39-3.86,4.7,4.79,7.34,12.77,9.54,20.66,2.1,7.54,4.62,6.2,7.8,3.63,5.36-1.16,7.32,5.2,9.36,12,1.56,5.22.92,12,4.06,16,2.43,2.46,4.17.19,5.72-2.64,3.58-6.51,7.09-12.35,12.94-13.06,3.92-.48,4.61-8.57,6.34-13.5,2-5.61,4.21-11.28,7.92-10.5,9.6,2,13.36-11,17.81-20.42,7.53-16,12.56-16.11,18.5,2.18A63.75,63.75,0,0,0,233,699c.66,1.44,1.26,3,1.89,4.48,4.54,1.74,8.78-6.4,13.42-1.21a47.69,47.69,0,0,1,5.65,7.51,20.79,20.79,0,0,1,2.3,4.78c1,3,1.14,6.49,1.84,9.67.54,3.38,2.09,5.78,3,8.82,7.52,12,14.52,24.87,21.81,37.21a23,23,0,0,1,1.43,10.16c-.1,2.18-.35,4.39-.55,6.59-.42,4.66,1.23,3.79,2.83,3C297.36,777.84,301.17,780.16,302.61,799.68Z" style="fill:#26aa5b"/><path d="M259.46,886c-.07.31-.14.61-.23.91-1,3.83-2.37,6.95-5.08,7.57a4.47,4.47,0,0,1-2-.31c-5.53-2.38-1.83,7.06-3.91,9.08-2.38,4.58-5.52,4.64-8.3,2.56-2.14-1.61-5.94,17.66-9.49,34.12,3.79,4.49,6.54,10.56,9.07,17.22,2.42,6.41,3.32,12.59,2,18.81a30.74,30.74,0,0,1-1.9,5.78c-.38,3.88.74,7.92-.36,11.75-1.54,4.57-.41,9.74-1.05,14.53-1.08,5.82-2.31,11.45-5.75,14.5-2.31,1.51-4.7.65-7.06.71-4,.22-7.1-4.55-10.9-5.44-3.24-3.41-6-4.65-8.73,2.09-2.2,5.43-5.71,7.79-9.76,6.27-2.41-1-4.39-5.26-7.27-2.84-3.61,1.29-6.23-1.46-8.63-5.77-2-3.66-3.65-8.49-7-9.15-1.68-.26-3.38.38-5.06-.23-4.43-.16-8.78.6-13.14-2.91s-8.58,3.39-13.08,3.09c-5.22-.31-7.05-10.3-11.74-12.12-1.3-.25-2.64.47-3.9-.48-2.3-3.7-3.29-8.47-3.8-13.65.34-3.18,1.8-3.77,3.13-3,5.34,3.25,7.8-1.06,8.85-9.46.62-3.52.56-7.31,1.34-10.77,1.18-3.15,3.13-5,4.42-8,1.63-2.75,4.74-3.15,4.54-8.7-1.68-13.23-8.81-14.35-14.28-19.12-2.41-.74-4.82-1.5-7.28-.49-3,.33-6,.82-7.11,7-1.09,3.43-.54,7.69-1.87,11a6.79,6.79,0,0,1-2.35,3.07c-5.87,3.74-10.63-3.5-16-4.76-5-1.6-10-3.06-14.13-8.85-2.77-2.6-4.2-8.42-7.6-9.52-1.66-1.64-3.37-3.14-5-4.84-2.4-2.08-2.3-10.58-6.64-7.55a19.89,19.89,0,0,0-.69,2.76c-.65,4.23-.07,8.91-1.58,12.82-.86,2-2,3.3-3.4,3.59-4,.55-5.44-11.29-10.39-6.55-6.75-1.59-10.07-13-16-16.72-2,.24-3.38,3-5.33,3.32-5.22-1.57-8.61-8.44-12.75-13.08-5-1.57-1.45,5.82-2.81,8A7.62,7.62,0,0,1,3.53,908c-1.35.22-2.54-1-3.86-1.26l-7.22-13.46c-.17-.32-.34-.64-.52-1V762.1c0,.45.09.91.11,1.37a20.16,20.16,0,0,0,.41,3.23c.5,2.22,1.48,3.74,3.24,4.07,12-2.44,14.48.9,15.21,20.38a39.78,39.78,0,0,1-.88,6.64A11,11,0,0,0,11.69,808c1.6,2.25,2.38.25,3-2.08a29.74,29.74,0,0,1,3.23-8.36c2.63-3.56,5.33-6.92,8.48-9,8.08-5.06,11.46-13.87,10.61-27.36A79.25,79.25,0,0,1,37.24,748a31.08,31.08,0,0,1,2.61-7.73,6.8,6.8,0,0,1,1.7-1.94c3.53-1.68,6.19,1,8.73,4.88s2.91-.18,3.44-3.21c2.22-16.23,3.73-17.07,11-6.59a49.78,49.78,0,0,1,5.17,9.71c1.07,2.64,2.44,3.83,3.93.62a21.21,21.21,0,0,1,1-2.47c1.47-2,2-4.86,2.67-7.7A11.57,11.57,0,0,1,78.78,731c2.42-2.65,4.61-1.68,6.67,1.28a22.62,22.62,0,0,1,2,6.19c.89,8.51,3.06,13.65,8.85,13.84,4.27.16,8.09,4.27,10.6,10.85a12.78,12.78,0,0,0,1.66,3.12c3-.75,5.89-6,9.18-1.31,3.74,5,5.48,12.41,6.87,19.63,1.33,6.89,3.57,6.22,6.48,4.63,4.69,0,6,5.88,7.26,12.13a40.47,40.47,0,0,1,.6,6.22c.17,3,.42,6,1.86,8.31,1.92,2.59,3.57,1,5.09-1.16,3.51-4.91,6.9-9.26,12-8.74,1.65.18,2.76-1.36,3.68-3.42s1.72-5,2.66-7c2.05-4.44,4.35-8.88,7.5-7.49,8.12,3.57,12.21-6.86,16.65-14.14,7.51-12.28,11.85-11.43,15.77,5.44a61.47,61.47,0,0,0,2,6.44c.47,1.38.9,2.82,1.33,4.21,3.69,2.31,7.75-3.47,11.33,1.15a4.33,4.33,0,0,1,.3.41,51.16,51.16,0,0,1,4.37,7.55,20.8,20.8,0,0,1,1.67,4.56c.66,2.78.56,5.8,1,8.68s1.43,5.37,2,8.17c5.7,11.77,10.89,24.2,16.36,36.22,1.58,5,.48,9.76-.34,14.58-.67,3.93.81,3.51,2.24,3.15,8.62-7.22,12.15-6.22,13,5C259.41,881.39,259.46,883.52,259.46,886Z" style="fill:#159b4b"/><path d="M984.76,799.68c-1.83,5.11-4.78,9.54-12.46,11.05a26.72,26.72,0,0,1-5.44.16c-15.2-1.3-3.41,8.55-8.55,11.4-5.41,5.83-13.82,6.7-21.62,5-6-1.29-12.3,21.72-18.44,41.43,11,4.16,19.6,10.39,27.66,17.35,10.15,8.77,13.24,17.73,5.22,28.07-.26,4.54,3.53,8.87,1.4,13.52-3.19,5.62.85,11.25.1,16.88-1.67,6.93-3.84,13.68-12.37,18-5.87,2.33-12.42,2-18.72,2.63-10.56,1.28-19.86-3.37-30.18-3.41-9.32-3.07-16.91-3.77-22.85,4.62-4.78,6.78-13.67,10.38-24.76,9.68-.56,0-1.12-.13-1.65-.22-6-1-11.76-4.37-18.36-1.17-9.35,2.4-16.91-.06-24.18-4.37-6.18-3.66-11.45-8.77-20.61-8.66-4.54.15-8.94,1.31-13.53,1-11.86,1-23.34,2.94-35.66,0-12.49-2.93-22.2,6.07-34.28,6.89-14,1-20.9-10-33.75-10.83-3.5,0-6.93,1.2-10.51.43-6.86-3.63-10.48-8.83-12.87-14.61.24-3.73,4-4.77,7.73-4.19,14.9,2.35,20.6-3.21,21.69-13.08,1-4.18,0-8.49,1.43-12.66,2.44-3.81,7.1-6.41,10-10a1.86,1.86,0,0,0,.19-.22,13.77,13.77,0,0,1,2.15-1.59c.14-.1.31-.19.46-.29,1.69-1,3.57-1.9,5.1-3a8.32,8.32,0,0,0,1.83-1.7,4.78,4.78,0,0,0,.92-4.05,3,3,0,0,0-.1-.49,21.15,21.15,0,0,0-5-6.61c-.32-.28-.63-.56-1-.82a25.41,25.41,0,0,0-3.74-2.46,34.47,34.47,0,0,0-3.43-1.59c-1.09-.45-2.23-.84-3.39-1.21l-.62-.19-1.62-.46c-2.81-.76-5.75-1.36-8.72-1.92l-1.55-.29c-1.28-.24-2.59-.48-3.87-.7s-2.85-.54-4.25-.83c-1.62-.33-3.21-.7-4.76-1.1l-.55,0-1.4-.05c-1.21,0-2.42-.07-3.6-.08-1.77,0-3.53,0-5.29.1-1.14.06-2.3.15-3.44.31a34.78,34.78,0,0,0-4.51.85l-.75.19c-2.08.29-4.13.6-6.07,1a25.6,25.6,0,0,0-5.14,1.6c-.12,0-.22.1-.32.14l-.79.39c-.17.1-.34.2-.54.3s-.55.35-.79.54a9.46,9.46,0,0,0-3.92,5.81,4.17,4.17,0,0,0-.29.65,8.63,8.63,0,0,0-.48,1.49c-.68,3,.07,6.23-1.09,9.2a7.17,7.17,0,0,1-.89,1.71c-.29.37-.58.72-.89,1a11.27,11.27,0,0,1-1.82,1.5,11.15,11.15,0,0,1-1.71,1,9.33,9.33,0,0,1-1.23.57c-.36.15-.73.28-1.11.41-.66.22-1.29.42-1.94.6-.26.08-.55.15-.82.22-13.5,3.39-26.48-2.5-39.79-2.55-13.65-.56-27.35-.94-39.45-6.51-7.95-2.26-12.92-8.53-22.25-8.91-4.74-1.46-9.59-2.73-14.3-4.25-6.82-1.76-8.27-11.51-19.23-6.93a12.65,12.65,0,0,0-1.28,3.32c-.9,5,1.62,10.21-1.62,15.07a13,13,0,0,1-8.34,5c-10.68,1.66-16.81-11.51-29-4.82-18.36-.1-29.47-12.23-46.19-15-5.14.79-8.41,4.31-13.53,5.18-14.25-.46-24.66-7.45-36.67-11.69-13.72-.5-2.68,7-5.87,9.93-2.51,4.91-8.29,6.64-14.4,8.06-3.58.61-7-.51-10.56-.44l-35.22-21.68c-.41-.24-.8-.49-1.21-.74V735.45l1.21-.2c29.11-5.14,36.14-1.49,41.84,19.89a21.5,21.5,0,0,1-1,7.82c-2.61,5.26.84,8.69,6.5,11.28,4.76,2.16,6.42-.32,7.63-3.15a26.29,26.29,0,0,1,6.93-10.39c6.29-4.74,12.81-9.26,20.83-12.43,20.51-7.86,27.73-18.8,22.76-34a40.24,40.24,0,0,1-2.08-15.2c.75-3.5,3-6.53,5.39-9.51a15.53,15.53,0,0,1,4.18-2.65c9.06-2.82,16.71-.39,24.25,3.33,7.73,3.83,7.71-.94,8.53-4.54,2.63-19.11,6.47-20.46,28-10.36a76.39,76.39,0,0,1,15.73,9.78c3.41,2.74,7.3,3.75,10.61-.3a19.7,19.7,0,0,1,2.2-3.08c3.52-2.61,4.39-6.09,5.55-9.48a13,13,0,0,1,2.93-3.26c5.94-3.66,12-3.12,18-.25a21.56,21.56,0,0,1,6.65,6.55c4.08,9.51,10.92,14.81,26.38,13.55A41.76,41.76,0,0,1,553,698.53a20.22,20.22,0,0,0,5.05,3.14c8-1.65,14.52-8.35,24.25-3.86,11,4.79,17.13,12.77,22.28,20.66,4.9,7.54,10.77,6.2,18.21,3.63,12.52-1.16,17.08,5.2,21.84,12,3.65,5.22,2.15,12,9.47,16,5.68,2.46,9.74.19,13.36-2.64,8.36-6.51,16.55-12.35,30.23-13.06,9.13-.48,10.75-8.57,14.78-13.5,4.59-5.61,9.83-11.28,18.51-10.5,22.39,2,31.19-11,41.57-20.42,17.57-16,29.31-16.11,43.18,2.18a57.49,57.49,0,0,0,6.52,6.84c1.54,1.44,3,3,4.42,4.48,10.58,1.74,20.49-6.4,31.31-1.21a86.06,86.06,0,0,1,13.19,7.51,22.35,22.35,0,0,1,5.39,4.78c2.32,3,2.66,6.49,4.27,9.67,1.28,3.38,4.89,5.78,7,8.82,17.57,12,33.9,24.87,50.93,37.21a11.61,11.61,0,0,1,3.33,10.16c-.24,2.18-.82,4.39-1.28,6.59-1,4.66,2.88,3.79,6.6,3C972.49,777.84,981.38,780.16,984.76,799.68Z" style="fill:#26aa5b"/><path d="M816.83,893.69c-.17.31-.34.61-.53.91a14.37,14.37,0,0,1-11.86,7.56,23.61,23.61,0,0,1-4.69-.31c-12.9-2.38-4.25,7.07-9.11,9.09-5.55,4.57-12.9,4.63-19.37,2.55-5-1.6-13.87,17.67-22.16,34.12,8.85,4.49,15.27,10.57,21.17,17.22,5.65,6.42,7.75,12.59,4.64,18.81a22.22,22.22,0,0,1-4.43,5.78c-.89,3.88,1.72,7.93-.84,11.75-3.6,4.57-1,9.74-2.47,14.53-2.51,5.82-5.38,11.45-13.4,14.5-5.39,1.51-11,.65-16.48.72-9.3.21-16.6-4.56-25.46-5.45-7.57-3.4-14-4.64-20.37,2.09-5.15,5.44-13.34,7.8-22.78,6.27-5.63-1-10.27-5.25-17-2.84-8.43,1.29-14.54-1.46-20.14-5.77-4.79-3.66-8.53-8.49-16.43-9.14-3.94-.26-7.9.37-11.82-.24-10.34-.16-20.51.6-30.68-2.91s-20,3.39-30.53,3.09c-12.18-.31-16.46-10.29-27.4-12.11-3.05-.25-6.16.46-9.11-.49-5.36-3.69-7.68-8.46-8.87-13.65.78-3.18,4.21-3.77,7.3-3,12.47,3.25,18.22-1,20.66-9.46,1.45-3.52,1.3-7.3,3.14-10.77,2.75-3.15,7.29-5,10.31-8,3.8-2.75,11.07-3.14,10.61-8.69-3.94-13.24-20.58-14.36-33.34-19.13-5.63-.74-11.26-1.5-17-.48-7.08.32-14,.82-16.6,7-2.53,3.43-1.25,7.69-4.37,11a12.47,12.47,0,0,1-5.48,3.08c-13.7,3.73-24.81-3.51-37.35-4.76-11.65-1.61-23.39-3.07-33-8.86-6.47-2.6-9.81-8.41-17.76-9.51-3.86-1.65-7.85-3.15-11.67-4.84-5.6-2.08-5.36-10.59-15.48-7.56a11.8,11.8,0,0,0-1.62,2.76c-1.52,4.24-.17,8.91-3.7,12.83a12.37,12.37,0,0,1-7.92,3.59c-9.42.54-12.71-11.29-24.26-6.55-15.77-1.6-23.5-13-37.44-16.73-4.57.24-7.9,3-12.44,3.32-12.2-1.57-20.1-8.44-29.77-13.08-11.74-1.57-3.4,5.82-6.57,8.06-2.9,4-8.14,5-13.62,5.74-3.17.23-6-1-9-1.25l-16.86-13.47c-.39-.32-.8-.64-1.21-1V769.83a10.92,10.92,0,0,1,.24,1.37,9.82,9.82,0,0,0,1,3.23c1.16,2.22,3.46,3.75,7.56,4.08,28-2.45,33.8.9,35.52,20.37a19.74,19.74,0,0,1-2.06,6.65c-3,4.31-.6,7.55,3.89,10.24,3.75,2.26,5.56.25,7-2.08a25.65,25.65,0,0,1,7.54-8.36c6.14-3.56,12.44-6.91,19.81-9,18.84-5.06,26.74-13.88,24.76-27.36a34.68,34.68,0,0,1,.51-13.26c1.18-3,3.6-5.36,6.09-7.73a14.87,14.87,0,0,1,4-1.94c8.24-1.67,14.45,1.05,20.37,4.88,6.09,3.93,6.79-.18,8-3.21,5.17-16.23,8.69-17.06,25.68-6.59a59.84,59.84,0,0,1,12.05,9.72c2.51,2.63,5.7,3.82,9.18.62a18.86,18.86,0,0,1,2.35-2.48c3.43-2,4.71-4.86,6.23-7.7a12.3,12.3,0,0,1,3-2.55c5.65-2.66,10.77-1.69,15.58,1.27a16.54,16.54,0,0,1,4.71,6.19c2.08,8.52,7.15,13.65,20.65,13.85a33.71,33.71,0,0,1,24.77,10.84,14.87,14.87,0,0,0,3.86,3.13c7.13-.76,13.75-6,21.43-1.32,8.72,5,12.81,12.41,16,19.63,3.1,6.89,8.34,6.22,15.13,4.63,10.94,0,13.91,5.89,17,12.14a19.32,19.32,0,0,1,1.4,6.22c.39,3,1,6,4.32,8.31,4.5,2.58,8.34,1,11.89-1.16,8.19-4.92,16.11-9.26,28-8.75a11,11,0,0,0,8.58-3.41c2.27-2.19,4-5,6.2-7,4.81-4.44,10.18-8.88,17.52-7.49,19,3.57,28.51-6.86,38.87-14.14,17.54-12.28,27.66-11.43,36.82,5.45a42.76,42.76,0,0,0,4.57,6.43c1.11,1.38,2.1,2.82,3.11,4.22,8.63,2.3,18.1-3.48,26.46,1.15.24.12.46.25.7.4a67.78,67.78,0,0,1,10.19,7.55,16.18,16.18,0,0,1,3.89,4.57c1.55,2.77,1.33,5.79,2.22,8.67.58,3,3.34,5.37,4.64,8.17,13.29,11.77,25.42,24.2,38.17,36.22,3.7,5,1.14,9.76-.77,14.58-1.57,3.94,1.89,3.51,5.22,3.15,20.12-7.21,28.36-6.22,30.25,5A39.47,39.47,0,0,1,816.83,893.69Z" style="fill:#159b4b"/><path d="M2430.55,672.26a4.53,4.53,0,0,0,.52,0v374.52h-.52l-64.71-1.62h-.18l-21.48-.54-12.38-.31-1.3,0-19.31-.49-5-.12-9-.23-5.36-.13-4.45-.12-4.76-.11L2280,1043l-10.22-.26h-.2l-1,0-12.34-.31-2-.74-1.95-.73-6.57-2.44-10.28-3.83-.21-.07-4.43-1.66-1.42-.53-5.73-2.13-15.19-5.66-1.26-.47-11.2-4.18-4.56-1.69-9.42-3.51-3.54-1.32-3.25-1.21-8.41-3.13-.82-.3-4.63-1.73-.58-.22-17-6.31-57-21.25-6.6-2.46L1912,914.17l-17-6.33c0-21.73,49.57-159.94,302-211.77q5.34-1.11,10.8-2.14l2.32-.45,1.75-.32q27.86-5.19,58.94-8.92,21.2-2.52,43.93-4.26l.55-.05q5.57-.42,11.24-.79C2355.89,677.2,2390.67,674.12,2430.55,672.26Z" style="fill:#49c97d"/><path d="M2431.07,877.4v668.9H-8.32V843.07l.26,0a1081.33,1081.33,0,0,0,137.49,16.1c.67,0,1.33.07,2,.11l1.29.06,2,.1,5.5.26,2.07.08h.26l3.23.13c.8,0,1.6.07,2.4.11,1.27,0,2.53.08,3.79.13l2.16.06c1.53.06,3.05.09,4.57.13l1.21,0,3.29.09,4.21.09.85,0,1.83,0h.31l.83,0h.91c.63,0,1.27,0,1.9,0l2.28,0c.93,0,1.87,0,2.8,0l2.15,0h.29c1,0,2.07,0,3.11,0h12.86c.42,0,.83,0,1.25,0l3.31,0c1.4,0,2.8,0,4.2,0s2.57,0,3.85-.06q17.48-.27,34.87-1,7.22-.32,14.41-.72,8.06-.43,16.1-1,35.7-2.4,71.14-6.64c63.49-7.49,126.48-18.95,189.46-32.79q28.17-6.16,56.35-13,46.05-11,92.26-23.24c35.54-9.31,71.2-19,107.07-28.71q45.84-12.44,92.18-24.85c232.39-61.81,476-116.55,753.44-89.69,144.85,14,270.43,35.89,379.18,63.43,6.16,1.57,12.28,3.15,18.32,4.74q31.74,8.37,61.52,17.37,13.11,4,25.84,8,39.78,12.71,76,26.5c1.7.64,3.35,1.26,5,1.91q34.13,13.1,65.28,27c1.93.87,3.87,1.72,5.78,2.59,59.64,26.92,111.19,55.93,155.61,86.12C2430.39,877,2430.73,877.16,2431.07,877.4Z" style="fill:#2dba66"/><path d="M2280.67,1511.9c2-.1-23.36-60.84-25.51-147.3.29-42.38,4.94-90.79,22.34-136.14,16.56-45.36,50.69-85.93,92-104.15,1.62-.47-58.12,29.74-80,108-11.51,37.83-15.86,83.47-14.38,131.18,1.61,47.21,14,96,27.32,143.32Z" style="fill:#26a258"/><path d="M2181.2,1511.9c2.45-.13-28.88-75.21-31.53-182.08.35-52.4,6.1-112.24,27.62-168.3,20.46-56.06,62.65-106.22,113.67-128.74,2-.58-71.84,36.76-98.85,133.54-14.22,46.77-19.61,103.18-17.77,162.15,2,58.37,17.26,118.69,33.77,177.17Z" style="fill:#26a258"/><path d="M2315.75,1099.89c-20.16,83.55-51.11,186.24-63,274.35a670.64,670.64,0,0,0-6,137.66h24.3c-6.76-94.59,9.82-194.72,23.37-272.19,14.78-81.75,21.39-139.88,21.28-139.82Z" style="fill:#26a258"/><path d="M2245.54,1274.18a767.6,767.6,0,0,0-9.34-119.09c6,138.87-36.37,334-42.86,356.81h24.5c19.23-80.83,28.65-169.3,27.7-237.72Z" style="fill:#26a258"/><path d="M2166.18,1311.19a649.21,649.21,0,0,1,7.88-100.55c-5,117.25,30.71,282,36.19,301.26h-20.68c-16.24-68.24-24.19-142.94-23.39-200.71Z" style="fill:#26a258"/><path d="M2218.49,1311.19a649.93,649.93,0,0,1,7.89-100.55c-5.05,117.25,30.71,282,36.19,301.26h-20.69c-16.23-68.24-24.18-142.94-23.39-200.71Z" style="fill:#26a258"/><path d="M2330,1180.73l-.44-.39s.12.16.44.39" style="fill:none"/><path d="M2333.91,1240.39l-.19-.28s0,.1.19.28" style="fill:none"/><path d="M2294.84,1511.87c-2.49,2.36,1.34-106.93,43-196.95,0,1-16.88,137.2,1,197Z" style="fill:#26a258"/><path d="M2358.94,1345.29c-6.29,55.78-15.84,130.91-19.94,166.61h24.32c7.17-81.3-2.48-167.38-4.38-166.61Z" style="fill:#26a258"/><path d="M2329.48,1274.18a767.6,767.6,0,0,0-9.34-119.09c6,138.87-36.37,334-42.86,356.81h24.5c19.23-80.83,28.65-169.3,27.7-237.72Z" style="fill:#26a258"/><path d="M2304.28,1342.05c-33.16,47.49-27.05,129.71-18,169.85h31.88c-24.51-63.62-18.62-154-13.89-169.85Z" style="fill:#26a258"/><path d="M2221.35,1414.37c19,27.27,15.53,74.48,10.33,97.53h-18.3c14.07-36.53,10.69-88.4,8-97.53Z" style="fill:#26a258"/><path d="M2234.25,1376.34c26.47,37.89,21.59,103.52,14.37,135.56h-25.45c19.57-50.78,14.86-122.88,11.08-135.56Z" style="fill:#1d8949"/><path d="M2142.56,1180.73l-.44-.39s.12.16.44.39" style="fill:none"/><path d="M2362.62,1274.67h0" style="fill:none"/><path d="M2146.48,1240.39c-.07-.09-.13-.19-.19-.28s0,.1.19.28" style="fill:none"/><path d="M2171.51,1345.29c-6.3,55.78-15.84,130.91-19.94,166.61h24.32c7.17-81.3-2.48-167.38-4.38-166.61Z" style="fill:#26a258"/><path d="M2212.26,1099.89c-20.16,83.55-51.11,186.24-63,274.35a670.64,670.64,0,0,0-6,137.66h24.3c-6.77-94.59,9.82-194.72,23.37-272.19,14.78-81.75,21.39-139.88,21.28-139.82Z" style="fill:#1d8949"/><path d="M2180.54,1322.15c37.06,53,30.23,144.9,20.11,189.75H2165c27.38-71.07,20.8-172,15.5-189.75Z" style="fill:#1d8949"/><path d="M2268.22,1414.37c19.05,27.27,15.54,74.48,10.34,97.53h-18.31c14.08-36.53,10.69-88.4,8-97.53Z" style="fill:#1d8949"/><path d="M2431.07,1327.54v203H1355.47c0-7.27,7.13-18.26-10.4-16.35a30.83,30.83,0,0,1-7.91-.31c-11.16-2.78-15.47-11-18.13-20.38,4.91-36,17.86-40.32,54.4-17.85,5.42,1.43,11,3,9.61-5.57-1.78-10.57-4.61-21.21,3-30.92,24.78-22.77,48.58-46.52,74.13-68.66,3-5.63,8.26-10,10.11-16.28,2.12-5.24,2.73-10.93,5.26-16a19,19,0,0,1,1-1.83,35.93,35.93,0,0,1,7.81-8.81c6.1-5,12.12-10.06,19.2-13.86,15.74-9.57,30.16,5.42,45.59,2.22,2.14-2.73,4.18-5.58,6.42-8.26A98.27,98.27,0,0,0,1565,1295c20.16-33.74,37.26-33.47,62.81-4,15.13,17.44,27.93,41.39,60.51,37.69,12.63-1.43,20.25,9,26.93,19.37,5.89,9.09,8.24,24,21.55,24.91,19.89,1.31,31.8,12.08,44,24.11a37.9,37.9,0,0,0,4.27,3.72c3.5,2.56,7.43,4,12.15,2.47a16.21,16.21,0,0,0,3-1.32c10.65-7.26,8.46-19.86,13.78-29.49,6.91-12.57,13.56-24.32,31.79-22.17,10.82,4.74,19.36,7.22,26.5-6.69,7.51-14.57,16.46-29.31,32.43-38.14a18.83,18.83,0,0,1,9.56-2.81c6.76,0,12.61,4,18.69,7.09a34.94,34.94,0,0,0,7,2.83,17.18,17.18,0,0,0,3.39-2.17,52.34,52.34,0,0,0,4-3.61,59.64,59.64,0,0,1,10.52-9.09c1.24-.83,2.49-1.6,3.77-2.33a52.6,52.6,0,0,1,11.62-4.84,49,49,0,0,1,18.46-1.6c22.52,2.31,32.46-7.47,38.39-25,2.48-4.55,5.39-8.8,9.68-12.08a35.16,35.16,0,0,1,5.45-2.68,22,22,0,0,1,8.36-1.6,20.46,20.46,0,0,1,12.48,4.73,24.49,24.49,0,0,1,1.94,2.29,20.15,20.15,0,0,1,2.29,3.74c1.71,6.27,2.95,12.67,8.09,17.5a36.81,36.81,0,0,1,3.2,5.68c2.52,3.88,5.24,5.24,8,4.94,2.53-.28,5.06-2,7.45-4.38a111.47,111.47,0,0,1,22.89-18c4.08-2.42,7.7-4.49,11-6.17,7.11-3.67,12.38-5.53,16.4-5.3,4.65.26,7.58,3.31,9.68,9.57,1.64,4.94,2.76,11.87,3.75,21,.61,3.37.9,7.29,2.48,9.42s4.38,2.46,9.93-1c11-6.88,22.11-11.35,35.3-6.15a23.07,23.07,0,0,1,6.07,4.89c.58.9,1.13,1.8,1.68,2.71,2.8,4.64,5.26,9.43,6.19,14.83a93.8,93.8,0,0,1-3.05,28.08c-3.41,13.2-2.87,24.67,1.78,34.61A47.18,47.18,0,0,0,2233,1386a77.24,77.24,0,0,0,14.61,10.09c1.56.87,3.2,1.71,4.89,2.54,11.28,5.65,20.54,13.66,29.4,22.07l.91.87c5.05,5.61,7.85,12.24,10.1,19.18,1.75,5.21,4.17,9.8,11.09,5.81a28.17,28.17,0,0,0,7.12-5.54c3.55-4,4.84-8.89,2.35-15.27a49.52,49.52,0,0,1-1.47-14.44c8.59-40.73,19.18-46.59,65.06-35.77,9.94.19,14.32-5.53,16.32-13.67,2.63-10.73,8.2-20.35,13.21-30.15a18.75,18.75,0,0,1,9.64-6,46,46,0,0,1,13.9,1.56C2430.44,1327.35,2430.74,1327.43,2431.07,1327.54Z" style="fill:#26aa5b"/><path d="M2430.11,1408.14c.33.26.63.53,1,.79v121.6H1572.94c2-4.51,5.37-8.53,6.13-13.55,1.32-5.3,1-10.88,3.22-16a30.41,30.41,0,0,1,5.68-8.41c4.65-4.93,9.22-9.93,14.86-14,12.4-9.88,26.61,1.52,39.49-2.87,1.5-2.57,2.91-5.24,4.53-7.77a83.61,83.61,0,0,0,6.67-11.87c13.3-31.16,28.06-32.72,53.57-10,15.11,13.43,29,32.69,56.58,26.08,10.69-2.56,18.52,5.65,25.51,13.84,6.14,7.21,10,19.82,21.51,19.18,17.28-1,28.83,7.06,40.73,16.12,5.17,3.94,10.75,6.93,17.32,2.15,8.29-7.35,4.92-18,8.31-26.82,4.21-10.88,8.26-21.1,22.08-22.29.83-.07,1.71-.11,2.63-.11,9.88,2.93,17.52,4.18,22-8.55a129,129,0,0,1,6.46-15.56v0a67.54,67.54,0,0,1,6.49-10.42,52.24,52.24,0,0,1,6.31-6.88c.53-.49,1.09-1,1.64-1.45.8-.65,1.6-1.28,2.44-1.89a15.53,15.53,0,0,1,10.27-3.53,27,27,0,0,1,8.32,1.88c2.8,1,5.58,2.24,8.4,3.11a27.22,27.22,0,0,0,4.21,1,21.12,21.12,0,0,0,5-5l.59-.73a50.88,50.88,0,0,1,6.19-7.3h0a44,44,0,0,1,29-12.69c.28,0,.57,0,.86,0a39.59,39.59,0,0,0,13.56-2.32,22.73,22.73,0,0,0,12.9-11.92,44.69,44.69,0,0,0,3.56-11.31,30.82,30.82,0,0,1,6.88-11.41c4.59-3.59,9.35-5.6,14.42-5.18a19.22,19.22,0,0,1,8.25,2.81,19,19,0,0,1,2.19,2,18.11,18.11,0,0,1,2.17,2.75c2.23,5.21,4.08,10.58,9.07,14.19a31.89,31.89,0,0,1,3.43,4.57,12.36,12.36,0,0,0,2,1.93c4.17,3.27,8,1.25,11.14-2.8.08-.09.14-.19.21-.28a94.18,94.18,0,0,1,17.55-17.92c6.84-5.35,12.19-9.1,16.5-11.1a23.77,23.77,0,0,1,2.36-1c9.41-3.15,13.39,4,18.35,23.56,0,.22.11.43.17.65,1.81,5.59,2.85,13.16,11.67,5.91,4.42-3.62,8.94-6.7,13.91-8.42a26.3,26.3,0,0,1,15.74-.58,20.44,20.44,0,0,1,5.81,3.57l1.43,1.75c3.1,3.83,5.94,7.81,7.43,12.52a81.47,81.47,0,0,1,.76,24.48,60.3,60.3,0,0,0-.29,11.31c1.22,15.2,9.3,26.47,24.77,34.36.84.43,1.7.85,2.57,1.25a91.07,91.07,0,0,0,9,3.58,81.66,81.66,0,0,1,11.49,5.18,152.8,152.8,0,0,1,17.34,11.39c5,4.29,8.23,9.7,11,15.44,2,4.08,4.52,7.63,9.45,4.39a7.76,7.76,0,0,0,.8-.56c6.54-5,10.1-10.94,5.66-18.9a42.78,42.78,0,0,1-3-12.28c.21-3.08.47-5.94.8-8.6,3.37-28.31,13.62-33.11,50.88-29,8.6-.88,11.66-6.26,12.41-13.48,1-9.51,4.61-18.36,7.75-27.33a15.85,15.85,0,0,1,7.58-6.15C2406.91,1390.45,2418.66,1398.63,2430.11,1408.14Z" style="fill:#159b4b"/><path d="M187.64,904.73c-.51,0,6-15.79,6.54-38.22-.07-11-1.26-23.57-5.73-35.33-4.25-11.77-13-22.3-23.6-27-.41-.12,14.92,7.72,20.52,28,3,9.82,4.07,21.66,3.69,34s-3.58,24.92-7,37.2Z" style="fill:#26a258"/><path d="M198.23,904.73c.4,0-4.68-12.33-5.11-29.86.06-8.59,1-18.41,4.48-27.61,3.32-9.19,10.16-17.42,18.43-21.11a37,37,0,0,0-16,21.9c-2.3,7.67-3.18,16.93-2.88,26.6s2.8,19.46,5.48,29.06Z" style="fill:#26a258"/><path d="M197.41,818.24c-4.19,17.54-10.61,39.09-13.07,57.59a142.87,142.87,0,0,0-1.25,28.9h5c-1.4-19.85,2-40.88,4.85-57.14,3.07-17.16,4.44-29.37,4.42-29.35Z" style="fill:#1d8949"/><path d="M184.75,854.83a163.25,163.25,0,0,0-1.94-25c1.24,29.15-7.55,70.12-8.9,74.9H179a218.5,218.5,0,0,0,5.75-49.9Z" style="fill:#26a258"/><path d="M168.27,862.6a138.13,138.13,0,0,1,1.64-21.11c-1,24.61,6.37,59.2,7.51,63.24h-4.29a184.43,184.43,0,0,1-4.86-42.13Z" style="fill:#26a258"/><path d="M179.13,862.6a138.13,138.13,0,0,1,1.64-21.11c-1.05,24.61,6.37,59.2,7.51,63.24H184a184.43,184.43,0,0,1-4.86-42.13Z" style="fill:#26a258"/><path d="M202.28,835.21l-.09-.08s0,0,.09.08" style="fill:none"/><path d="M203.09,847.73l0-.06s0,0,0,.06" style="fill:none"/><path d="M195,904.72c-.52.5.28-22.44,8.92-41.34,0,.21-3.51,28.8.2,41.35Z" style="fill:#26a258"/><path d="M208.29,869.75c-1.31,11.71-3.29,27.49-4.14,35h5c1.49-17.07-.52-35.14-.91-35Z" style="fill:#26a258"/><path d="M216.75,818.24c-4.19,17.54-10.61,39.09-13.08,57.59a143.44,143.44,0,0,0-1.24,28.9h5c-1.41-19.85,2-40.88,4.85-57.14,3.07-17.16,4.44-29.37,4.42-29.35Z" style="fill:#26a258"/><path d="M195.54,869.08c-6.89,10-5.62,27.22-3.74,35.65h6.62c-5.09-13.35-3.87-32.32-2.88-35.65Z" style="fill:#26a258"/><path d="M202.17,854.83a163.25,163.25,0,0,0-1.94-25c1.24,29.15-7.55,70.12-8.9,74.9h5.09a217.94,217.94,0,0,0,5.75-49.9Z" style="fill:#1d8949"/><path d="M210.16,864.9c7.69,11.13,6.28,30.42,4.18,39.83h-7.4c5.69-14.92,4.32-36.11,3.22-39.83Z" style="fill:#1d8949"/><path d="M189.93,869.08c-6.89,10-5.62,27.22-3.74,35.65h6.62c-5.09-13.35-3.87-32.32-2.88-35.65Z" style="fill:#1d8949"/><path d="M179.73,884.26c4,5.72,3.22,15.63,2.14,20.47h-3.8c2.92-7.67,2.22-18.56,1.66-20.47Z" style="fill:#26a258"/><path d="M182.4,876.27c5.5,8,4.49,21.74,3,28.46H180.1c4.06-10.66,3.09-25.79,2.3-28.46Z" style="fill:#26a258"/><path d="M158.5,818.24c-4.19,17.54-10.61,39.09-13.07,57.59a141.94,141.94,0,0,0-1.24,28.9h5c-1.4-19.85,2-40.88,4.85-57.14,3.07-17.16,4.44-29.37,4.42-29.35Z" style="fill:#26a258"/><path d="M145.84,854.83a163.25,163.25,0,0,0-1.94-25c1.24,29.15-7.55,70.12-8.9,74.9h5.09a217.94,217.94,0,0,0,5.75-49.9Z" style="fill:#26a258"/><path d="M129.37,862.6A166.65,166.65,0,0,1,131,841.49c-1.05,24.61,6.38,59.2,7.52,63.24h-4.3a183.83,183.83,0,0,1-4.85-42.13Z" style="fill:#26a258"/><path d="M140.23,862.6a137.4,137.4,0,0,1,1.63-21.11c-1.05,24.61,6.38,59.2,7.52,63.24h-4.3a183.83,183.83,0,0,1-4.85-42.13Z" style="fill:#26a258"/><path d="M132.68,862.6a138.88,138.88,0,0,1,1.63-21.11c-1.05,24.61,6.38,59.2,7.52,63.24h-4.3a183.83,183.83,0,0,1-4.85-42.13Z" style="fill:#1d8949"/><path d="M163.37,835.21l-.09-.08s0,0,.09.08" style="fill:none"/><path d="M213.71,827.91a26.45,26.45,0,0,1,8-1.36c-9.19-1.11-18.86,5-26.17,12-7.7,7.1-12.47,16.92-15,25.71-1.1,3.48-2,6.84-2.75,10a90.16,90.16,0,0,0-2.49-18.86c-1.65-6.85-4.36-12.37-7-15.7a21.89,21.89,0,0,0-4.82-4.52c5.71,4.84,8.51,12.75,9.94,20.53a92.45,92.45,0,0,1,1.4,12.36,60.14,60.14,0,0,0-2.67-7.76,43,43,0,0,0-7.86-12.61c10.67,15.52,10,43.22,9.92,43h.1c0,.85-.1,1.68-.15,2.46-.32,1.51-.52,2.32-.49,2.34l.33.07c0,.46,0,.9-.08,1.32a24.48,24.48,0,0,1-1.16,6.63l3.21,1.19a58.67,58.67,0,0,0,1.66-12c0-.25.08-.5.13-.75h0c2.07-8.55,8.78-16.51,15.14-20.22a20.56,20.56,0,0,1,12.09-3.07c-7.53-2.43-17.45,2.48-22.83,8.53a43,43,0,0,1,1.9-4,37.56,37.56,0,0,1,10.28-12c7.38-6,14.44-6.3,14.79-6.3-10.05-.86-21.71,7.15-27.19,16,3-12.3,7.3-23.52,14.95-30.9,5.91-6.23,12-10.57,16.9-12.1Z" style="fill:#1d8949"/><path d="M209.05,854.93h0" style="fill:none"/><path d="M164.18,847.73l0-.06a.17.17,0,0,0,0,.06" style="fill:none"/><path d="M156.07,904.72c-.51.5.28-22.44,8.92-41.34,0,.21-3.5,28.8.2,41.35Z" style="fill:#26a258"/><path d="M169.38,869.75c-1.31,11.71-3.29,27.49-4.14,35h5c1.49-17.07-.52-35.14-.91-35Z" style="fill:#26a258"/><path d="M177.84,818.24c-4.19,17.54-10.61,39.09-13.07,57.59a141.94,141.94,0,0,0-1.24,28.9h5c-1.4-19.85,2-40.88,4.85-57.14,3.07-17.16,4.44-29.37,4.42-29.35Z" style="fill:#1d8949"/><path d="M156.63,869.08c-6.89,10-5.62,27.22-3.74,35.65h6.62c-5.09-13.35-3.87-32.32-2.88-35.65Z" style="fill:#26a258"/><path d="M163.26,854.83a162.52,162.52,0,0,0-1.93-25c1.24,29.15-7.55,70.12-8.9,74.9h5.08a217.39,217.39,0,0,0,5.75-49.9Z" style="fill:#26a258"/><path d="M159.37,839.31a250.83,250.83,0,0,0-2.19-32.78c1.4,38.22-8.54,91.93-10.06,98.2h5.75a329.88,329.88,0,0,0,6.5-65.42Z" style="fill:#1d8949"/><path d="M171.26,864.9c7.69,11.13,6.27,30.42,4.17,39.83H168c5.68-14.92,4.31-36.11,3.22-39.83Z" style="fill:#26a258"/><path d="M151,869.08c-6.89,10-5.62,27.22-3.74,35.65h6.62c-5.09-13.35-3.87-32.32-2.88-35.65Z" style="fill:#26a258"/><path d="M140.33,867.28c-6.88,10-5.61,27.23-3.73,35.66h6.61c-5.08-13.36-3.86-32.32-2.88-35.66Z" style="fill:#26a258"/><path d="M140.82,884.26c4,5.72,3.22,15.63,2.14,20.47h-3.8c2.93-7.67,2.22-18.56,1.66-20.47Z" style="fill:#26a258"/><path d="M143.5,876.27c5.49,8,4.48,21.74,3,28.46H141.2c4.06-10.66,3.08-25.79,2.3-28.46Z" style="fill:#1d8949"/><path d="M133.6,876.27c-5.5,8-4.48,21.74-3,28.46h5.28c-4.06-10.66-3.09-25.79-2.3-28.46Z" style="fill:#1d8949"/><path d="M214.72,904.73s.25-24.84,3.17-41.11a369.78,369.78,0,0,1,1.78,41.11Z" style="fill:#26a258"/><path d="M216.27,884.26c3.95,5.72,3.22,15.63,2.14,20.47h-3.8c2.92-7.67,2.22-18.56,1.66-20.47Z" style="fill:#26a258"/><path d="M459.87,1427.6c-.71,0,8.35-22,9.11-53.2-.1-15.31-1.76-32.79-8-49.17-5.91-16.38-18.1-31-32.84-37.62-.58-.17,20.76,10.74,28.56,39,4.11,13.66,5.67,30.15,5.13,47.38-.57,17-5,34.67-9.75,51.76Z" style="fill:#26a258"/><path d="M474.62,1427.6c.55,0-6.52-17.17-7.12-41.56.08-12,1.38-25.62,6.24-38.42,4.61-12.8,14.14-24.25,25.65-29.39.46-.13-16.21,8.39-22.31,30.49-3.21,10.67-4.42,23.55-4,37s3.9,27.09,7.62,40.44Z" style="fill:#26a258"/><path d="M473.47,1307.22c-5.83,24.41-14.77,54.42-18.19,80.16a197.29,197.29,0,0,0-1.73,40.22h7c-2-27.64,2.84-56.89,6.75-79.53,4.27-23.88,6.18-40.87,6.15-40.85Z" style="fill:#1d8949"/><path d="M455.85,1358.14a227.9,227.9,0,0,0-2.7-34.79c1.73,40.57-10.51,97.59-12.38,104.25h7.07c5.56-23.61,8.28-49.47,8-69.46Z" style="fill:#26a258"/><path d="M432.92,1369a190.44,190.44,0,0,1,2.28-29.38c-1.46,34.26,8.87,82.4,10.45,88h-6a256.26,256.26,0,0,1-6.75-58.64Z" style="fill:#26a258"/><path d="M448,1369a193.39,193.39,0,0,1,2.28-29.38c-1.46,34.26,8.87,82.4,10.46,88h-6c-4.69-19.94-7-41.76-6.76-58.64Z" style="fill:#26a258"/><path d="M480.25,1330.84l-.13-.11s0,0,.13.11" style="fill:none"/><path d="M481.38,1348.27l-.06-.08s0,0,.06.08" style="fill:none"/><path d="M470.09,1427.59c-.72.69.39-31.24,12.41-57.54,0,.29-4.87,40.08.28,57.55Z" style="fill:#26a258"/><path d="M488.61,1378.92c-1.82,16.3-4.58,38.25-5.76,48.68h7c2.08-23.75-.71-48.91-1.26-48.68Z" style="fill:#26a258"/><path d="M500.38,1307.22c-5.82,24.41-14.76,54.42-18.19,80.16a198,198,0,0,0-1.73,40.22h7c-2-27.64,2.84-56.89,6.76-79.53,4.26-23.88,6.18-40.87,6.14-40.85Z" style="fill:#26a258"/><path d="M470.86,1378c-9.58,13.87-7.81,37.89-5.2,49.62h9.21c-7.08-18.59-5.38-45-4-49.62Z" style="fill:#26a258"/><path d="M480.1,1358.14a226.43,226.43,0,0,0-2.7-34.79c1.73,40.57-10.51,97.59-12.38,104.25h7.08c5.55-23.61,8.27-49.47,8-69.46Z" style="fill:#1d8949"/><path d="M491.22,1372.16c10.7,15.5,8.73,42.34,5.81,55.44H486.74c7.91-20.76,6-50.25,4.48-55.44Z" style="fill:#1d8949"/><path d="M463.05,1378c-9.58,13.87-7.81,37.89-5.2,49.62h9.21c-7.08-18.59-5.38-45-4-49.62Z" style="fill:#1d8949"/><path d="M448.86,1399.1c5.5,8,4.49,21.77,3,28.5h-5.29c4.07-10.67,3.09-25.83,2.31-28.5Z" style="fill:#26a258"/><path d="M452.59,1388c7.64,11.08,6.23,30.25,4.15,39.61h-7.36c5.66-14.84,4.3-35.9,3.21-39.61Z" style="fill:#26a258"/><path d="M419.32,1307.22c-5.83,24.41-14.77,54.42-18.19,80.16a197.29,197.29,0,0,0-1.73,40.22h7c-2-27.64,2.83-56.89,6.75-79.53,4.27-23.88,6.18-40.87,6.15-40.85Z" style="fill:#26a258"/><path d="M401.7,1358.14a227.9,227.9,0,0,0-2.7-34.79c1.73,40.57-10.51,97.59-12.39,104.25h7.08c5.56-23.61,8.28-49.47,8-69.46Z" style="fill:#26a258"/><path d="M378.77,1369a228.59,228.59,0,0,1,2.28-29.38c-1.46,34.26,8.87,82.4,10.45,88h-6a256.26,256.26,0,0,1-6.75-58.64Z" style="fill:#26a258"/><path d="M393.88,1369a193.39,193.39,0,0,1,2.28-29.38c-1.46,34.26,8.87,82.4,10.46,88h-6c-4.69-19.94-7-41.76-6.76-58.64Z" style="fill:#26a258"/><path d="M383.38,1369a192.64,192.64,0,0,1,2.27-29.38c-1.45,34.26,8.88,82.4,10.46,88h-6c-4.69-19.94-7-41.76-6.75-58.64Z" style="fill:#1d8949"/><path d="M426.09,1330.84l-.12-.11s0,0,.12.11" style="fill:none"/><path d="M496.16,1320.69a37,37,0,0,1,11.08-1.91c-12.79-1.53-26.25,6.91-36.42,16.76-10.72,9.89-17.36,23.55-20.93,35.79-1.53,4.84-2.78,9.52-3.82,13.9A126.55,126.55,0,0,0,442.6,1359c-2.3-9.53-6.06-17.21-9.8-21.84a29.77,29.77,0,0,0-6.71-6.3c8,6.73,11.84,17.74,13.83,28.57a126.36,126.36,0,0,1,2,17.21,82.6,82.6,0,0,0-3.72-10.8,59.9,59.9,0,0,0-10.93-17.55c14.84,21.59,13.89,60.15,13.79,59.83h.15q-.1,1.79-.21,3.42c-.45,2.11-.72,3.23-.69,3.25l.47.11c0,.63-.08,1.25-.12,1.84A34.11,34.11,0,0,1,439,1426l4.47,1.65a81,81,0,0,0,2.3-16.65c.07-.35.13-.7.19-1h0c2.88-11.91,12.22-23,21.08-28.15a28.48,28.48,0,0,1,16.82-4.27c-10.48-3.39-24.29,3.45-31.77,11.86a58.78,58.78,0,0,1,2.64-5.54,52.28,52.28,0,0,1,14.31-16.76c10.27-8.29,20.1-8.77,20.58-8.77-14-1.2-30.22,9.94-37.84,22.24,4.19-17.12,10.17-32.73,20.81-43,8.22-8.67,16.72-14.71,23.52-16.84Z" style="fill:#1d8949"/><path d="M489.67,1358.29h0" style="fill:none"/><path d="M427.23,1348.27l-.06-.08s0,0,.06.08" style="fill:none"/><path d="M415.94,1427.59c-.72.69.39-31.24,12.41-57.54,0,.29-4.88,40.08.28,57.55Z" style="fill:#26a258"/><path d="M434.46,1378.92c-1.82,16.3-4.58,38.25-5.76,48.68h7c2.08-23.75-.71-48.91-1.26-48.68Z" style="fill:#26a258"/><path d="M446.23,1307.22c-5.82,24.41-14.76,54.42-18.19,80.16a198,198,0,0,0-1.73,40.22h7c-1.95-27.64,2.84-56.89,6.76-79.53,4.26-23.88,6.17-40.87,6.14-40.85Z" style="fill:#1d8949"/><path d="M416.71,1378c-9.58,13.87-7.81,37.89-5.2,49.62h9.21c-7.08-18.59-5.38-45-4-49.62Z" style="fill:#26a258"/><path d="M426,1358.14a227.9,227.9,0,0,0-2.7-34.79c1.73,40.57-10.51,97.59-12.38,104.25H418c5.55-23.61,8.27-49.47,8-69.46Z" style="fill:#26a258"/><path d="M420.52,1336.54a343.51,343.51,0,0,0-3-45.61c2,53.19-11.87,127.94-14,136.67h8c6.28-31,9.35-64.85,9-91.06Z" style="fill:#1d8949"/><path d="M437.07,1372.16c10.7,15.5,8.73,42.34,5.81,55.44H432.59c7.91-20.76,6-50.25,4.48-55.44Z" style="fill:#26a258"/><path d="M408.9,1378c-9.58,13.87-7.81,37.89-5.2,49.62h9.21c-7.08-18.59-5.38-45-4-49.62Z" style="fill:#26a258"/><path d="M394,1375.48c-9.58,13.87-7.81,37.89-5.2,49.62H398c-7.08-18.59-5.38-45-4-49.62Z" style="fill:#26a258"/><path d="M394.71,1399.1c5.5,8,4.48,21.77,3,28.5H392.4c4.07-10.67,3.09-25.83,2.31-28.5Z" style="fill:#26a258"/><path d="M398.44,1388c7.64,11.08,6.23,30.25,4.15,39.61h-7.36c5.66-14.84,4.3-35.9,3.21-39.61Z" style="fill:#1d8949"/><path d="M384.66,1388c-7.65,11.08-6.24,30.25-4.15,39.61h7.35c-5.65-14.84-4.29-35.9-3.2-39.61Z" style="fill:#1d8949"/><path d="M497.56,1427.6s.36-34.57,4.42-57.22c0,0,3.18,30.47,2.47,57.22Z" style="fill:#26a258"/><path d="M499.72,1399.1c5.5,8,4.48,21.77,3,28.5h-5.29c4.07-10.67,3.09-25.83,2.31-28.5Z" style="fill:#26a258"/><path d="M1080.7,1392.2c-.35.32-.68.65-1,1a103.7,103.7,0,0,0-14.43,18,93.05,93.05,0,0,0-8.68,17.54c-8.56,21.27-11.78,46.92-10.68,73.75,0,.83.09,1.68.14,2.53a171.94,171.94,0,0,0,3.91,26.33c.1.5.22,1,.33,1.49h-16.06a209.66,209.66,0,0,1-3.16-29.74c0-1.37,0-2.73.08-4.12.55-22.82,4.33-48.39,16.53-72.42a101,101,0,0,1,9.12-15.2,112.27,112.27,0,0,1,11.27-13.3,120.45,120.45,0,0,1,11.43-10.24,3.33,3.33,0,0,1,.32-.24A121.33,121.33,0,0,1,1116,1368,125.68,125.68,0,0,0,1080.7,1392.2Z" style="fill:#26a258"/><path d="M1057.68,1316.59c-.72.49-36.82,15-60.49,49.86-1.48,2.18-2.9,4.42-4.27,6.76a116.3,116.3,0,0,0-8.75,18.45,179.19,179.19,0,0,0-10.17,37.1,237.14,237.14,0,0,0-2.73,23.9,287.76,287.76,0,0,0-.3,30.15c.1,2.4.27,4.81.49,7.24a234.54,234.54,0,0,0,7,38.82c.35,1.33.71,2.66,1.08,4H959.07a266.86,266.86,0,0,1-5.27-32q-.87-8.39-1.18-17.33c.26-29.45,4.55-63.1,20.53-94.61,15.23-31.52,46.58-59.71,84.51-72.37Z" style="fill:#26a258"/><path d="M1076.09,1354.33c0,.35-2.56,17.3-8,43.76-.86,4.16-1.8,8.55-2.8,13.14-1.49,6.8-3.15,14.07-5,21.68-5,21.57-10.54,46.26-14.25,72.14-1.32,9.15-2.39,18.45-3.14,27.82H1025.6c.17-1.63.35-3.27.57-4.95.78-6.21,1.79-12.7,3.11-19.38.56-3.15,1.18-6.32,1.85-9.53,5.86-28.13,15.69-58.43,25.65-87.62C1063.56,1391.51,1070.4,1372.14,1076.09,1354.33Z" style="fill:#26a258"/><path d="M1019.49,1514.69c-.1.72-.21,1.46-.33,2.2-.42,2.82-.88,5.65-1.36,8.49-.42,2.49-.86,5-1.34,7.49H999.53c1.91-8.19,3.82-17,5.66-26.23,2.38-11.87,4.62-24.44,6.52-37.26,4.2-28.34,6.73-58,5.25-84a330.19,330.19,0,0,1,6.94,67A390.15,390.15,0,0,1,1019.49,1514.69Z" style="fill:#26a258"/><path d="M983.6,1532.87H969.72c-.86-5.22-1.61-10.39-2.24-15.48-.39-3.13-.73-6.22-1-9.29a301.29,301.29,0,0,1-1.55-35c0-6.22.23-12.07.59-17.48a275.47,275.47,0,0,1,5.27-39c-.41,7.3-.45,14.91-.19,22.72.13,4.41.38,8.88.7,13.37.58,8.15,1.44,16.41,2.5,24.62,1.46,11.38,3.3,22.65,5.31,33.39C980.52,1518.4,982.06,1525.85,983.6,1532.87Z" style="fill:#26a258"/><path d="M1022.48,1532.87h-13.87c-1.47-8.92-2.61-17.72-3.42-26.23a301.36,301.36,0,0,1-1.4-33.54,279.56,279.56,0,0,1,5.86-56.53c-.94,16.5,0,34.67,2.06,52.81,1.67,15,4.08,29.9,6.74,43.87.24,1.22.48,2.44.71,3.64C1020.25,1522.42,1021.37,1527.76,1022.48,1532.87Z" style="fill:#26a258"/><path d="M1086.68,1399.76l-.33-.22s.09.09.33.22" style="fill:none"/><path d="M1089.59,1433.3l-.14-.16s0,.06.14.16" style="fill:none"/><path d="M1092.48,1475.2a505.56,505.56,0,0,0-5.25,57.67h-19a235.85,235.85,0,0,1,16.65-44.07C1087.24,1484.22,1089.75,1479.67,1092.48,1475.2Z" style="fill:#26a258"/><path d="M1113,1532.87h-11.15c2.22-13.87,4.48-28.11,6.34-40.61C1109,1492,1112,1509.21,1113,1532.87Z" style="fill:#26a258"/><path d="M1084.93,1488.8c-1.23,14.17-3.25,29-6.07,44.07h-16.93c.83-3.57,1.66-7.27,2.5-11.06,8.37-38.3,16.36-87.14,15.25-128.61,0-1.81-.11-3.59-.2-5.35,0-.84-.07-1.67-.12-2.5.06.4.22,1.16.44,2.26s.53,2.7.9,4.59a330.37,330.37,0,0,1,5.6,60.1A349.87,349.87,0,0,1,1084.93,1488.8Z" style="fill:#26a258"/><path d="M1064.43,1521.81c0,3.52.15,7.24.4,11.06h-15.09c0-.5.12-1,.2-1.49,2-15,7.23-29.68,17.62-40.93C1066,1494.39,1064.29,1506.46,1064.43,1521.81Z" style="fill:#26a258"/><path d="M1005.91,1531.1c.52.57,1,1.16,1.51,1.77h-1A12.38,12.38,0,0,0,1005.91,1531.1Z" style="fill:#26a258"/><path d="M1027.69,1532.87H1018c0-2.65-.1-5.17-.23-7.49-.43-7.66-1.39-13.37-2.29-15.66a42.62,42.62,0,0,1,2.94,3.53c.36.46.71,1,1,1.44a54.11,54.11,0,0,1,6.68,13.23C1026.75,1529.55,1027.25,1531.2,1027.69,1532.87Z" style="fill:#1d8949"/><path d="M947.34,1399.76l-.32-.22s.08.09.32.22" style="fill:none"/><path d="M1110.93,1452.57h0" style="fill:none"/><path d="M950.25,1433.3l-.14-.16s0,.06.14.16" style="fill:none"/><path d="M973.68,1532.87H962.53c1.32-8.27,2.66-16.67,3.92-24.77.85-5.47,1.66-10.79,2.42-15.84.28-.08.79,1.76,1.38,5.13h0A303.89,303.89,0,0,1,973.68,1532.87Z" style="fill:#26a258"/><path d="M999.15,1354.33c0,.19-.64,4.53-2,12.12-2.36,13.51-6.89,37.31-13.85,66.46-3.17,13.69-6.56,28.65-9.57,44.37-.8,4.2-1.58,8.46-2.31,12.77q-.63,3.65-1.21,7.34h0c-1,6.59-2,13.25-2.77,20q-.9,7.69-1.53,15.48H948.66c.82-7.7,2-15.86,3.68-24.33.45-2.53.93-5.07,1.46-7.64,3-14.64,7.05-29.88,11.69-45.28,1.62-5.44,3.33-10.89,5.08-16.33q1.68-5.28,3.43-10.53c6.28-19,12.93-37.81,18.92-55.55Q996.19,1363.52,999.15,1354.33Z" style="fill:#1d8949"/><path d="M979.08,1510.67c-.13-15.4-1.89-27.33-3.5-31.42,13.43,14.55,19.11,34.29,20.52,53.62h-18c.14-1.35.25-2.67.34-4C979,1522.49,979.14,1516.34,979.08,1510.67Z" style="fill:#1d8949"/><path d="M1042.27,1532.87h-1a12.19,12.19,0,0,0-.51-1.77C1041.29,1531.67,1041.8,1532.26,1042.27,1532.87Z" style="fill:#1d8949"/></svg>