<svg xmlns="http://www.w3.org/2000/svg" viewBox="0 0 270.18 270.18"><defs><style>.cls-1{fill:#fff;}</style></defs><title>exclamationIcon</title><g id="Layer_2" data-name="Layer 2"><g id="question-panel"><path class="cls-1" d="M266.23,226a13.5,13.5,0,0,1,0,19.07L245.1,266.23a13.5,13.5,0,0,1-19.07,0l-90.95-91-90.94,91a13.48,13.48,0,0,1-19.06,0L3.94,245.11a13.51,13.51,0,0,1,0-19.07l91-90.95-91-90.95a13.5,13.5,0,0,1,0-19.06L25.07,4A13.48,13.48,0,0,1,44.13,4l91,91L226,3.94a13.51,13.51,0,0,1,19.07,0l21.13,21.14a13.48,13.48,0,0,1,0,19.06l-91,91Z"/></g></g></svg>