<svg xmlns="http://www.w3.org/2000/svg" viewBox="0 0 62.6 62.6"><defs><style>.cls-1{fill:#d23d2d;}</style></defs><title>exclamationEndScreen</title><g id="Layer_2" data-name="Layer 2"><g id="question-panel"><path class="cls-1" d="M31.3,0A31.3,31.3,0,1,0,62.6,31.3,31.3,31.3,0,0,0,31.3,0Zm17,43.08a1.75,1.75,0,0,1,0,2.47l-2.74,2.74a1.75,1.75,0,0,1-2.47,0L31.3,36.51,19.52,48.29a1.75,1.75,0,0,1-2.47,0l-2.74-2.74a1.75,1.75,0,0,1,0-2.47L26.09,31.3,14.31,19.52a1.75,1.75,0,0,1,0-2.47l2.74-2.74a1.75,1.75,0,0,1,2.47,0L31.3,26.09,43.08,14.31a1.75,1.75,0,0,1,2.47,0l2.74,2.74a1.75,1.75,0,0,1,0,2.47L36.51,31.3Z"/></g></g></svg>