<svg xmlns="http://www.w3.org/2000/svg" viewBox="0 0 84.97 67.98"><defs><style>.cls-1{fill:#fff;}</style></defs><title>hint_icon</title><g id="Layer_2" data-name="Layer 2"><g id="UI-layer"><path class="cls-1" d="M5.55,44.36a1.07,1.07,0,0,0-.39,1.45h0l1.06,1.84A1.06,1.06,0,0,0,7.67,48h0l13.18-7.6a27.37,27.37,0,0,1-2.39-3.53Zm9.36-21H1.06A1.06,1.06,0,0,0,0,24.43v2.12a1.07,1.07,0,0,0,1.06,1.07H15.2A30,30,0,0,1,14.91,23.37ZM5.55,6.62l11.31,6.53a25.54,25.54,0,0,1,1.88-3.82L7.67,2.94a1.07,1.07,0,0,0-1.45.39h0L5.16,5.17A1.06,1.06,0,0,0,5.55,6.62Zm73.87,0a1.06,1.06,0,0,0,.39-1.45h0L78.75,3.33a1.05,1.05,0,0,0-1.45-.39h0L66.23,9.33a28.13,28.13,0,0,1,1.89,3.81Zm4.49,16.75H70.1a27.51,27.51,0,0,1-.38,4.25H83.91A1.06,1.06,0,0,0,85,26.55V24.43A1.05,1.05,0,0,0,83.91,23.37Zm-4.49,21L66.49,36.9a27.65,27.65,0,0,1-2.41,3.51L77.3,48a1.05,1.05,0,0,0,1.45-.39l1.06-1.84A1.07,1.07,0,0,0,79.42,44.36ZM42.49,8.5A14.89,14.89,0,0,0,27.62,23.37a2.12,2.12,0,0,0,4.24,0A10.64,10.64,0,0,1,42.49,12.75a2.13,2.13,0,0,0,0-4.25Zm0-8.5A23.36,23.36,0,0,0,24.9,38.74c3.41,3.88,6.68,10.21,7,12.24V61a2.16,2.16,0,0,0,.36,1.18L35.48,67a2.14,2.14,0,0,0,1.77,1H47.72a2.14,2.14,0,0,0,1.77-1l3.25-4.89A2.16,2.16,0,0,0,53.1,61V51c.3-2.08,3.58-8.39,7-12.24A23.36,23.36,0,0,0,42.49,0Zm6.36,60.32-2.27,3.41H38.39l-2.27-3.41v-.84H48.85Zm0-5.09H36.11V51H48.86Zm8-19.29a45.4,45.4,0,0,0-6.71,10.79H34.81A45.08,45.08,0,0,0,28.1,35.94a19.12,19.12,0,1,1,28.77,0Z"/></g></g></svg>