<?xml version="1.0" encoding="utf-8"?>
<!-- Generator: Adobe Illustrator 24.3.0, SVG Export Plug-In . SVG Version: 6.00 Build 0)  -->
<svg version="1.1" id="Layer_1" xmlns="http://www.w3.org/2000/svg" xmlns:xlink="http://www.w3.org/1999/xlink" x="0px" y="0px"
	 viewBox="0 0 332 47" style="enable-background:new 0 0 332 47;" xml:space="preserve">
<style type="text/css">
	.st0{fill:#FFFFFF;}
	.st1{fill:#009DDD;}
	.st2{opacity:0.5;fill:#FFFFFF;enable-background:new    ;}
	.st3{opacity:0.7;fill:#FFFFFF;enable-background:new    ;}
	.st4{opacity:0.8;fill:#FFFFFF;enable-background:new    ;}
	.st5{opacity:0.9;fill:#FFFFFF;enable-background:new    ;}
</style>
<g>
	<g>
		<path class="st0" d="M68.1,44.5c5.6-2,6-4.3,6-11.7V15.6h-3.3v17.3c0,6.9,0,7.6-4,9L68.1,44.5z M74.8,9.8c0.1-1.2-0.9-2.3-2.1-2.3
			c-0.1,0-0.1,0-0.2,0c-1.2,0-2.3,0.9-2.3,2.2c0,0.1,0,0.1,0,0.2c0,1.2,0.9,2.3,2.2,2.3h0.1c1.3,0.1,2.3-0.9,2.4-2.2
			C74.8,9.9,74.8,9.9,74.8,9.8z M95.1,29.8c-1.6,1.6-3.7,2.4-6,2.3c-3.3,0-6.3-1.5-7-5.3C82,26.4,82,26,82,25.7h14.9v-1
			c0-4.9-2.8-9.5-8.6-9.5c-5.7,0-9.6,4.1-9.6,10s4.1,9.8,9.8,9.8c3.8,0,6.8-1.4,7.9-2.9L95.1,29.8z M82.1,22.9c0.4-3,3-5.1,6-5
			c3.3,0,4.8,2.2,5.3,5H82.1z M105.6,34.3V18.5h4.6v-2.8h-4.6V9.2h-3.3v6.5h-3.5v2.8h3.5v15.9L105.6,34.3z M116.7,44V32.7
			c1.6,1.4,3.6,2.1,5.7,2.2c5.8,0,9.1-4.7,9.1-9.8c0-6.6-4.9-9.9-10.1-9.9c-2.9,0-5.6,0.8-8.1,2.3v26.6L116.7,44z M116.7,19.3
			c1.3-0.8,2.9-1.2,4.4-1.3c4.3,0,6.9,3,6.9,7c0,4.3-2.7,6.9-5.8,6.9c-2.2,0-4.2-1-5.5-2.7V19.3z M147.3,30.7
			c-1.4,0.9-3.1,1.4-4.8,1.3c-3.2,0-4.9-1.7-4.9-3.6c0-1.8,1.6-3.5,4.7-3.5c1.8,0,3.6,0.7,5,1.9V30.7z M150.6,22.4
			c0-4.3-1.6-7.2-7.7-7.2c-2.2,0-4.5,0.5-6.5,1.4l1.1,2.5c1.6-0.7,3.4-1.1,5.2-1.1c3.1,0,4.6,1.5,4.6,3.6v2.3
			c-1.5-1.2-3.5-1.9-5.4-1.8c-3.4,0-7.7,1.8-7.7,6c0,3.5,2.6,6.8,8.1,6.8c3.8,0,6.6-1.1,8.2-2.5L150.6,22.4L150.6,22.4z M170.2,29.9
			c-1.5,1.5-3.5,2.3-5.7,2.2c-3.6,0-6.6-2.7-6.6-7c0-4.7,3.3-7.1,6.5-7.1c1.8,0,3.6,0.7,4.9,2l1.4-2.4c-1.8-1.5-4.1-2.4-6.4-2.4
			c-5.3-0.2-9.8,4-10,9.3c0,0.2,0,0.4,0,0.6c-0.1,5.3,4,9.7,9.3,9.8c0.1,0,0.3,0,0.4,0c3.7,0,6.1-1.4,7.3-3L170.2,29.9z M191.8,34.3
			l-10.4-10.2l8.5-8.5h-4.5l-6.8,7.4V3.2h-3.4v31.2h3.4v-8.7l8.4,8.7L191.8,34.3z M205.8,34.3V3.2h-1.7v31.2L205.8,34.3z
			 M226.4,30.5c-1.5,1.8-3.7,2.8-6.1,2.7c-4,0.2-7.4-2.8-7.6-6.8c0-0.1,0-0.1,0-0.2c0-0.2,0-0.7,0-1.2h15.1v-0.3
			c0-4.4-2.4-8.7-7.9-8.7s-9,3.9-9,9.5c0,5.5,3.9,9.3,9,9.3c2.8,0.2,5.6-1.1,7.4-3.3L226.4,30.5z M212.8,23.5c0-0.3,0.1-0.7,0.2-1
			c0.8-3.1,3.6-5.2,6.8-5c3.8,0,5.9,2.8,6.2,6H212.8z M244.4,31.4c-1.7,1.3-3.8,1.9-5.9,1.8c-3,0-5.8-1.6-5.8-4.9
			c0-3,3.3-4.4,5.8-4.4c2.2,0,4.4,0.9,6,2.4L244.4,31.4z M244.4,24.7c-1.7-1.5-3.8-2.3-6-2.2c-3.1,0-7.4,1.9-7.4,5.9
			c0,3.4,2.4,6.5,7.5,6.5c2.8,0.1,5.5-0.8,7.7-2.6v-9.7c0-3.8-1.4-6.5-7.2-6.5c-2,0-3.9,0.4-5.7,1.3l0.8,1.3c1.6-0.7,3.3-1,5-1.1
			c3.5,0,5.4,1.9,5.4,4.5L244.4,24.7z M253.3,34.3v-13c0.2-1.3,1.7-3.6,3.8-3.6c0.7,0,1.4,0.3,2,0.7l1-1.6c-0.9-0.5-1.9-0.7-2.9-0.8
			c-1.7,0.2-3.2,1.3-3.8,2.9v-2.5h-1.7v17.9H253.3z M278,34.3V22.7c0-4.6-2.5-6.7-6.8-6.7c-2.3,0-4.5,0.9-6.2,2.4v-1.9h-1.7v17.9
			h1.7V20.2c1.6-1.6,3.7-2.5,5.9-2.5c3.8,0,5.4,1.6,5.4,5.7v10.9H278z M285.7,34.3V16.4H284v17.9H285.7z M286.3,11.2
			c0-0.8-0.6-1.5-1.4-1.6h-0.1c-0.8,0-1.5,0.7-1.5,1.5c0,0,0,0,0,0.1c0,0.8,0.7,1.5,1.5,1.5C285.7,12.7,286.3,12,286.3,11.2
			C286.3,11.2,286.4,11.2,286.3,11.2L286.3,11.2z M306.4,34.3V22.7c0-4.6-2.5-6.7-6.8-6.7c-2.3,0-4.5,0.9-6.2,2.4v-1.9h-1.7v17.9
			h1.7V20.2c1.6-1.6,3.7-2.5,5.9-2.5c3.8,0,5.4,1.6,5.4,5.7v10.9H306.4z M326.5,35.4c0,6.3-3.8,7.3-6.4,7.3c-2.2,0-4.3-0.6-6.2-1.8
			l-0.9,1.4c2.1,1.3,4.5,2.1,6.9,2.1c4,0,8.2-2,8.2-8.8V18.5c-2.1-1.7-4.7-2.6-7.3-2.5c-5,0-9.7,3.3-9.7,9.5c0,6,4.4,9.3,8.7,9.3
			c2.6-0.1,5-1.2,6.7-3.3L326.5,35.4z M326.5,29.4c-1.4,2.2-3.7,3.6-6.2,3.8c-5.2,0-7.4-4.2-7.4-7.7c-0.2-4.2,3-7.7,7.2-7.9
			c0.2,0,0.5,0,0.7,0c2,0,4,0.5,5.7,1.6L326.5,29.4z"/>
	</g>
	<g>
		<g>
			<path class="st1" d="M45.3,18L32,4.7l2.2-2.4c-2.5-0.9-5.1-1.4-7.7-1.4C14,0.9,3.9,11,3.9,23.5l0,0C3.9,36,14,46.1,26.5,46.1l0,0
				C39,46.1,49.1,36,49.1,23.5l0,0c0-2.6-0.5-5.2-1.4-7.7L45.3,18"/>
			<path class="st2" d="M26.6,12.4L12.1,37.9l25.5-14.5l-0.9-2l-10,1.9l1.9-10L26.6,12.4"/>
			<path class="st3" d="M28.6,13.3l-1.9,10l10-1.9l-2.6-5.5L28.6,13.3"/>
			<path class="st3" d="M43.2,20.2l-5.6,3.2l4.2,8.9L43.2,20.2"/>
			<path class="st4" d="M43.2,20.2l-6.5,1.2l0.9,2L43.2,20.2"/>
			<path class="st5" d="M34.1,15.9l2.6,5.5l6.5-1.2L34.1,15.9"/>
			<path class="st3" d="M29.8,6.8L17.7,8.2l8.9,4.2L29.8,6.8l13.4,13.4L29.8,6.8"/>
			<path class="st4" d="M29.8,6.8l-3.2,5.6l2,0.9L29.8,6.8"/>
			<path class="st5" d="M29.8,6.8l-1.2,6.5l5.5,2.6L29.8,6.8"/>
			<path class="st0" d="M29.8,6.8l4.3,9.1l9.1,4.3L29.8,6.8"/>
		</g>
	</g>
</g>
</svg>
