<svg xmlns="http://www.w3.org/2000/svg" xmlns:xlink="http://www.w3.org/1999/xlink" viewBox="0 0 541.72 632.17"><defs><clipPath id="a"><rect width="541.72" height="632.17" style="fill:none"/></clipPath><clipPath id="d"><rect x="249.46" y="465.83" width="42.8" height="31.95" style="fill:none"/></clipPath><clipPath id="e"><rect x="249.46" y="516.97" width="42.8" height="6.77" style="fill:none"/></clipPath><clipPath id="f"><rect x="249.46" y="553.86" width="42.8" height="6.77" style="fill:none"/></clipPath><clipPath id="g"><rect x="132.56" y="432.55" width="52.17" height="44.83" style="fill:none"/></clipPath><clipPath id="h"><rect x="356.99" y="432.55" width="52.17" height="44.83" style="fill:none"/></clipPath></defs><g style="isolation:isolate"><g style="clip-path:url(#a)"><g style="clip-path:url(#a)"><g style="clip-path:url(#a)"><path d="M289.69,608.77H252a2.57,2.57,0,0,1-2.57-2.57V465.83h42.8V606.2a2.57,2.57,0,0,1-2.57,2.57" style="fill:#d7b280"/><g style="mix-blend-mode:multiply"><g style="clip-path:url(#d)"><path d="M249.46,465.83v31c7.06.59,14.19.91,21.4.91s14.34-.32,21.4-.91v-31Z" style="fill:#ccc"/></g></g><g style="mix-blend-mode:multiply"><g style="clip-path:url(#e)"><rect x="249.46" y="516.97" width="42.8" height="6.77" style="fill:#ccc"/></g></g><g style="mix-blend-mode:multiply"><g style="clip-path:url(#f)"><rect x="249.46" y="553.86" width="42.8" height="6.77" style="fill:#ccc"/></g></g><rect x="123.02" y="523.74" width="294.02" height="30.12" style="fill:#fbd095"/><rect x="123.02" y="545.62" width="294.02" height="8.24" style="fill:#d7b280"/><path d="M51.35,628.69c-.91,1.92.08,3.48,2.21,3.48h40.6a6.63,6.63,0,0,0,5.5-3.48l85.07-180.12-40.75-16Z" style="fill:#fbd095"/><path d="M87.91,632.17h6.25a6.63,6.63,0,0,0,5.5-3.48L190.71,435.9l-8.53-3.35Z" style="fill:#d7b280"/><g style="mix-blend-mode:multiply"><g style="clip-path:url(#g)"><path d="M144,432.55l-11.42,24.18a252.35,252.35,0,0,0,38.56,20.65l13.61-28.81Z" style="fill:#ccc"/></g></g><path d="M490.37,628.69c.91,1.92-.08,3.48-2.21,3.48h-40.6a6.63,6.63,0,0,1-5.5-3.48L357,448.57l40.75-16Z" style="fill:#fbd095"/><path d="M453.82,632.17h-6.26a6.63,6.63,0,0,1-5.5-3.48L351,435.9l8.53-3.35Z" style="fill:#d7b280"/><g style="mix-blend-mode:multiply"><g style="clip-path:url(#h)"><path d="M397.74,432.55l-40.75,16,13.61,28.81a252.35,252.35,0,0,0,38.56-20.65Z" style="fill:#ccc"/></g></g><path d="M270.86,0C136.1,0,26.46,109.64,26.46,244.4S136.1,488.8,270.86,488.8s244.4-109.64,244.4-244.4S405.62,0,270.86,0m0,478.7c-129.19,0-234.3-105.11-234.3-234.3S141.67,10.1,270.86,10.1s234.3,105.11,234.3,234.3S400.05,478.7,270.86,478.7" style="fill:#cacaca"/><path d="M510.12,244.4c0,132.14-107.12,239.25-239.26,239.25S31.61,376.54,31.61,244.4,138.72,5.14,270.86,5.14,510.12,112.26,510.12,244.4" style="fill:#eee"/><path d="M464.18,244.4c0,106.76-86.55,193.31-193.32,193.31S77.55,351.16,77.55,244.4,164.1,51.08,270.86,51.08,464.18,137.63,464.18,244.4" style="fill:#5c5c5c"/><path d="M415.85,244.4a145,145,0,1,1-145-145,145,145,0,0,1,145,145" style="fill:#4cb5e0"/><path d="M367.52,244.4a96.66,96.66,0,1,1-96.66-96.66,96.66,96.66,0,0,1,96.66,96.66" style="fill:#fc5252"/><path d="M319.19,244.4a48.33,48.33,0,1,1-48.33-48.33,48.32,48.32,0,0,1,48.33,48.33" style="fill:#f9c15b"/><path d="M505.44,631.64c-.34,0,4-10.52,4.36-25.46-.05-7.32-.84-15.69-3.82-23.52s-8.66-14.85-15.71-18a31.5,31.5,0,0,1,13.66,18.67c2,6.53,2.71,14.42,2.46,22.67s-2.39,16.59-4.67,24.76Z" style="fill:#26a258"/><path d="M512.5,631.64c.26,0-3.12-8.21-3.41-19.89a53,53,0,0,1,3-18.38c2.21-6.12,6.76-11.6,12.27-14.06a24.58,24.58,0,0,0-10.67,14.58,56.69,56.69,0,0,0-1.92,17.71c.21,6.38,1.86,13,3.64,19.36Z" style="fill:#26a258"/><path d="M512,574c-2.79,11.68-7.07,26-8.71,38.35a94.57,94.57,0,0,0-.82,19.25h3.36c-.94-13.22,1.35-27.22,3.23-38C511.05,582.16,512,574,512,574" style="fill:#1d8949"/><path d="M503.52,598.4a109.28,109.28,0,0,0-1.29-16.64c.82,19.41-5,46.69-5.93,49.88h3.39a145.19,145.19,0,0,0,3.83-33.24" style="fill:#26a258"/><path d="M492.55,603.58a90.75,90.75,0,0,1,1.09-14.06c-.7,16.39,4.24,39.43,5,42.12h-2.86a122.28,122.28,0,0,1-3.23-28.06" style="fill:#26a258"/><path d="M499.78,603.58a90.75,90.75,0,0,1,1.09-14.06c-.7,16.39,4.24,39.43,5,42.12H503a122.84,122.84,0,0,1-3.23-28.06" style="fill:#26a258"/><path d="M515.19,585.34l-.06-.05.06.05" style="fill:#26a258"/><path d="M515.73,593.68l0,0s0,0,0,0" style="fill:#26a258"/><path d="M510.33,631.63c-.34.33.19-14.94,5.94-27.53,0,.14-2.33,19.18.13,27.54Z" style="fill:#26a258"/><path d="M519.19,608.35c-.87,7.79-2.19,18.3-2.75,23.29h3.36c1-11.37-.35-23.4-.61-23.29" style="fill:#26a258"/><path d="M524.82,574c-2.78,11.68-7.06,26-8.7,38.35a95.51,95.51,0,0,0-.83,19.25h3.36c-.93-13.22,1.36-27.22,3.23-38,2-11.43,3-19.56,2.94-19.55" style="fill:#26a258"/><path d="M510.7,607.89c-4.58,6.64-3.74,18.14-2.49,23.75h4.41c-3.39-8.89-2.57-21.52-1.92-23.75" style="fill:#26a258"/><path d="M515.12,598.4a109.28,109.28,0,0,0-1.29-16.64c.83,19.41-5,46.69-5.93,49.88h3.39a145.19,145.19,0,0,0,3.83-33.24" style="fill:#1d8949"/><path d="M520.44,605.11c5.12,7.42,4.18,20.26,2.78,26.53H518.3c3.78-9.94,2.87-24,2.14-26.53" style="fill:#1d8949"/><path d="M507,607.89c-4.58,6.64-3.74,18.14-2.48,23.75h4.4c-3.39-8.89-2.57-21.52-1.92-23.75" style="fill:#1d8949"/><path d="M500.17,618c2.63,3.82,2.15,10.42,1.43,13.64h-2.53c1.95-5.11,1.48-12.36,1.1-13.64" style="fill:#26a258"/><path d="M502,612.69c3.65,5.29,3,14.47,2,18.95h-3.52c2.71-7.1,2.06-17.18,1.54-18.95" style="fill:#26a258"/><path d="M486,574c-2.79,11.68-7.07,26-8.71,38.35a94.57,94.57,0,0,0-.82,19.25h3.36c-.94-13.22,1.35-27.22,3.23-38,2-11.43,2.95-19.56,2.94-19.55" style="fill:#26a258"/><path d="M477.61,598.4a109.28,109.28,0,0,0-1.29-16.64c.82,19.41-5,46.69-5.93,49.88h3.39a145.19,145.19,0,0,0,3.83-33.24" style="fill:#26a258"/><path d="M466.64,603.58a109.68,109.68,0,0,1,1.09-14.06c-.7,16.39,4.24,39.43,5,42.12h-2.86a122.84,122.84,0,0,1-3.23-28.06" style="fill:#26a258"/><path d="M473.87,603.58A90.75,90.75,0,0,1,475,589.52c-.7,16.39,4.24,39.43,5,42.12H477.1a122.84,122.84,0,0,1-3.23-28.06" style="fill:#26a258"/><path d="M468.84,603.58a92.21,92.21,0,0,1,1.09-14.06c-.7,16.39,4.25,39.43,5,42.12h-2.86a122.84,122.84,0,0,1-3.23-28.06" style="fill:#1d8949"/><path d="M489.28,585.34l-.06-.05.06.05" style="fill:#26a258"/><path d="M522.81,580.48a17.8,17.8,0,0,1,5.3-.91c-6.12-.73-12.56,3.31-17.43,8-5.13,4.73-8.3,11.27-10,17.12-.73,2.32-1.33,4.56-1.83,6.65a61,61,0,0,0-1.66-12.56,27.39,27.39,0,0,0-4.69-10.44,14.33,14.33,0,0,0-3.21-3c3.8,3.22,5.67,8.49,6.62,13.67a60.08,60.08,0,0,1,.93,8.24,38.1,38.1,0,0,0-1.78-5.17,28.23,28.23,0,0,0-5.23-8.4c7.1,10.33,6.65,28.78,6.6,28.63h.07c0,.56-.06,1.11-.1,1.63-.21,1-.34,1.55-.32,1.56l.22,0c0,.3,0,.6-.06.88a16,16,0,0,1-.77,4.42l2.14.79a39,39,0,0,0,1.1-8l.09-.5h0a23.11,23.11,0,0,1,10.09-13.47,13.7,13.7,0,0,1,8-2.05c-5-1.62-11.62,1.66-15.2,5.68a29.3,29.3,0,0,1,1.26-2.65,25.17,25.17,0,0,1,6.85-8,18,18,0,0,1,9.85-4.2c-6.69-.57-14.46,4.76-18.11,10.64,2-8.18,4.87-15.65,10-20.57,3.93-4.15,8-7,11.26-8.06" style="fill:#1d8949"/><path d="M489.82,593.68a.05.05,0,0,1,0,0s0,0,0,0" style="fill:#26a258"/><path d="M484.42,631.63c-.34.33.19-14.94,5.94-27.53,0,.14-2.33,19.18.13,27.54Z" style="fill:#26a258"/><path d="M493.28,608.35c-.87,7.79-2.19,18.3-2.75,23.29h3.36c1-11.37-.34-23.4-.61-23.29" style="fill:#26a258"/><path d="M498.92,574c-2.79,11.68-7.07,26-8.71,38.35a95.51,95.51,0,0,0-.83,19.25h3.36c-.93-13.22,1.36-27.22,3.23-38,2-11.43,3-19.56,2.95-19.55" style="fill:#1d8949"/><path d="M484.79,607.89c-4.58,6.64-3.74,18.14-2.49,23.75h4.41c-3.39-8.89-2.57-21.52-1.92-23.75" style="fill:#26a258"/><path d="M489.21,598.4a109.28,109.28,0,0,0-1.29-16.64c.83,19.41-5,46.69-5.93,49.88h3.39a145.19,145.19,0,0,0,3.83-33.24" style="fill:#26a258"/><path d="M486.62,588.07a167.32,167.32,0,0,0-1.46-21.82c.93,25.45-5.69,61.21-6.7,65.39h3.83a220.47,220.47,0,0,0,4.33-43.57" style="fill:#1d8949"/><path d="M494.53,605.11c5.12,7.42,4.18,20.26,2.78,26.53h-4.92c3.78-9.94,2.87-24,2.14-26.53" style="fill:#26a258"/><path d="M481.06,607.89c-4.59,6.64-3.74,18.14-2.49,23.75H483c-3.38-8.89-2.57-21.52-1.91-23.75" style="fill:#26a258"/><path d="M473.94,606.7c-4.58,6.64-3.74,18.13-2.49,23.74h4.41c-3.39-8.89-2.57-21.52-1.92-23.74" style="fill:#26a258"/><path d="M474.26,618c2.64,3.82,2.15,10.42,1.43,13.64h-2.53c1.95-5.11,1.48-12.36,1.1-13.64" style="fill:#26a258"/><path d="M476.05,612.69c3.66,5.29,3,14.47,2,18.95h-3.51c2.7-7.1,2.05-17.18,1.53-18.95" style="fill:#1d8949"/><path d="M469.46,612.69c-3.66,5.29-3,14.47-2,18.95H471c-2.71-7.1-2.06-17.18-1.53-18.95" style="fill:#1d8949"/><path d="M523.48,631.64s.17-16.54,2.11-27.38a246.91,246.91,0,0,1,1.18,27.38Z" style="fill:#26a258"/><path d="M524.51,618c2.63,3.82,2.14,10.42,1.43,13.64H523.4c2-5.11,1.48-12.36,1.11-13.64" style="fill:#26a258"/><path d="M65.79,631.64c-.3,0,3.49-8.15,3.81-19.74a47.26,47.26,0,0,0-3.34-18.24,25.59,25.59,0,0,0-13.72-13.95,25.22,25.22,0,0,1,11.93,14.47,50.42,50.42,0,0,1,2.15,17.58c-.24,6.32-2.09,12.86-4.08,19.2Z" style="fill:#26a258"/><path d="M72,631.64c.23,0-2.72-6.37-3-15.42A36.9,36.9,0,0,1,71.58,602a20,20,0,0,1,10.73-10.9A19.74,19.74,0,0,0,73,602.37a39.3,39.3,0,0,0-1.67,13.74c.18,4.94,1.62,10,3.18,15Z" style="fill:#26a258"/><path d="M71.47,587C69,596,65.3,607.17,63.87,616.72a64.83,64.83,0,0,0-.72,14.92h2.93c-.82-10.25,1.19-21.11,2.82-29.5,1.79-8.86,2.59-15.17,2.57-15.16" style="fill:#1d8949"/><path d="M64.11,605.87A75.69,75.69,0,0,0,63,593c.72,15.06-4.39,36.21-5.17,38.68h2.95a100.38,100.38,0,0,0,3.35-25.77" style="fill:#26a258"/><path d="M54.53,609.88A62.64,62.64,0,0,1,55.48,599c-.61,12.7,3.71,30.56,4.37,32.65h-2.5a84.79,84.79,0,0,1-2.82-21.76" style="fill:#26a258"/><path d="M60.84,609.88A65,65,0,0,1,61.79,599c-.6,12.7,3.71,30.56,4.37,32.65H63.67a85.27,85.27,0,0,1-2.83-21.76" style="fill:#26a258"/><path d="M74.3,595.74l0,0,0,0" style="fill:#26a258"/><path d="M74.78,602.21l0,0,0,0" style="fill:#26a258"/><path d="M70.06,631.63c-.3.26.16-11.58,5.19-21.34,0,.1-2,14.87.11,21.35Z" style="fill:#26a258"/><path d="M77.8,613.58c-.76,6-1.91,14.19-2.41,18.06h2.94c.87-8.81-.3-18.14-.53-18.06" style="fill:#26a258"/><path d="M82.72,587c-2.43,9.06-6.17,20.19-7.6,29.74a65.57,65.57,0,0,0-.73,14.92h2.94c-.82-10.25,1.18-21.11,2.82-29.5,1.79-8.86,2.58-15.17,2.57-15.16" style="fill:#26a258"/><path d="M70.38,613.23c-4,5.15-3.26,14.06-2.17,18.41h3.85c-3-6.9-2.25-16.69-1.68-18.41" style="fill:#26a258"/><path d="M74.24,605.87A73.4,73.4,0,0,0,73.11,593c.73,15.06-4.39,36.21-5.17,38.68h3a100.35,100.35,0,0,0,3.34-25.77" style="fill:#1d8949"/><path d="M78.89,611.07c4.47,5.75,3.65,15.71,2.43,20.57H77c3.3-7.7,2.51-18.64,1.87-20.57" style="fill:#1d8949"/><path d="M67.12,613.23c-4,5.15-3.27,14.06-2.17,18.41H68.8c-3-6.9-2.25-16.69-1.68-18.41" style="fill:#1d8949"/><path d="M61.19,621.07c2.3,2.95,1.87,8.07,1.24,10.57H60.22a20.76,20.76,0,0,0,1-10.57" style="fill:#26a258"/><path d="M62.75,616.94c3.19,4.11,2.6,11.23,1.73,14.7H61.41c2.36-5.51,1.79-13.32,1.34-14.7" style="fill:#26a258"/><path d="M48.84,587c-2.43,9.06-6.17,20.19-7.6,29.74a64.83,64.83,0,0,0-.72,14.92h2.93c-.82-10.25,1.19-21.11,2.82-29.5,1.79-8.86,2.59-15.17,2.57-15.16" style="fill:#26a258"/><path d="M41.48,605.87A75.69,75.69,0,0,0,40.35,593c.72,15.06-4.39,36.21-5.18,38.68h3a100.38,100.38,0,0,0,3.35-25.77" style="fill:#26a258"/><path d="M31.9,609.88a75.77,75.77,0,0,1,1-10.89c-.61,12.7,3.71,30.56,4.37,32.65h-2.5a84.79,84.79,0,0,1-2.82-21.76" style="fill:#26a258"/><path d="M38.21,609.88A65,65,0,0,1,39.16,599c-.6,12.7,3.71,30.56,4.37,32.65H41a85.27,85.27,0,0,1-2.83-21.76" style="fill:#26a258"/><path d="M33.82,609.88a63.8,63.8,0,0,1,1-10.89c-.61,12.7,3.71,30.56,4.37,32.65h-2.5a85.68,85.68,0,0,1-2.82-21.76" style="fill:#1d8949"/><path d="M51.67,595.74l-.05,0,.05,0" style="fill:#26a258"/><path d="M81,592a17.37,17.37,0,0,1,4.63-.71c-5.35-.57-11,2.56-15.23,6.22a28.79,28.79,0,0,0-8.74,13.27c-.64,1.8-1.16,3.53-1.6,5.16a41.77,41.77,0,0,0-1.45-9.74,20.32,20.32,0,0,0-4.09-8.1,12.63,12.63,0,0,0-2.81-2.34c3.33,2.5,4.95,6.59,5.78,10.6a41.71,41.71,0,0,1,.82,6.39,29.66,29.66,0,0,0-1.55-4,22.25,22.25,0,0,0-4.57-6.51c6.2,8,5.8,22.31,5.76,22.2H58c0,.43-.06.86-.09,1.26-.18.78-.29,1.2-.28,1.21l.2,0c0,.23,0,.46,0,.68a11.62,11.62,0,0,1-.68,3.43l1.87.61a26.93,26.93,0,0,0,1-6.18c0-.13.05-.26.08-.39h0c1.2-4.42,5.1-8.53,8.81-10.44a13.21,13.21,0,0,1,7-1.59c-4.38-1.26-10.16,1.28-13.28,4.4a21.16,21.16,0,0,1,1.1-2.05,20.26,20.26,0,0,1,6-6.22,16.87,16.87,0,0,1,8.6-3.25c-5.84-.45-12.62,3.69-15.81,8.25,1.75-6.35,4.25-12.15,8.7-16,3.43-3.21,7-5.45,9.83-6.24" style="fill:#1d8949"/><path d="M78.24,605.93h0" style="fill:#26a258"/><path d="M52.15,602.21l0,0,0,0" style="fill:#26a258"/><path d="M47.43,631.63c-.3.26.16-11.58,5.19-21.34,0,.1-2,14.87.11,21.35Z" style="fill:#26a258"/><path d="M55.17,613.58c-.76,6-1.91,14.19-2.41,18.06H55.7c.86-8.81-.3-18.14-.53-18.06" style="fill:#26a258"/><path d="M60.09,587c-2.43,9.06-6.17,20.19-7.6,29.74a65.57,65.57,0,0,0-.73,14.92H54.7c-.82-10.25,1.18-21.11,2.82-29.5C59.3,593.28,60.1,587,60.09,587" style="fill:#1d8949"/><path d="M47.75,613.23c-4,5.15-3.26,14.06-2.17,18.41h3.85c-3-6.9-2.25-16.69-1.68-18.41" style="fill:#26a258"/><path d="M51.61,605.87A75.1,75.1,0,0,0,50.49,593c.72,15.06-4.4,36.21-5.18,38.68h3a100.35,100.35,0,0,0,3.34-25.77" style="fill:#26a258"/><path d="M49.35,597.86a113.77,113.77,0,0,0-1.28-16.92c.82,19.73-5,47.46-5.85,50.7h3.35a152,152,0,0,0,3.78-33.78" style="fill:#1d8949"/><path d="M56.26,611.07c4.47,5.75,3.65,15.71,2.43,20.57h-4.3c3.3-7.7,2.51-18.64,1.87-20.57" style="fill:#26a258"/><path d="M44.49,613.23c-4,5.15-3.27,14.06-2.17,18.41h3.85c-3-6.9-2.25-16.69-1.68-18.41" style="fill:#26a258"/><path d="M38.28,612.3c-4,5.15-3.27,14.06-2.18,18.41H40c-3-6.89-2.25-16.69-1.67-18.41" style="fill:#26a258"/><path d="M38.56,621.07c2.3,2.95,1.87,8.07,1.24,10.57H37.59a20.88,20.88,0,0,0,1-10.57" style="fill:#26a258"/><path d="M40.12,616.94c3.19,4.11,2.6,11.23,1.73,14.7H38.78c2.36-5.51,1.79-13.32,1.34-14.7" style="fill:#1d8949"/><path d="M34.36,616.94c-3.2,4.11-2.61,11.23-1.74,14.7H35.7c-2.37-5.51-1.8-13.32-1.34-14.7" style="fill:#1d8949"/><path d="M81.54,631.64s.15-12.83,1.85-21.23a171.68,171.68,0,0,1,1,21.23Z" style="fill:#26a258"/><path d="M82.44,621.07c2.3,2.95,1.88,8.07,1.25,10.57H81.48a20.73,20.73,0,0,0,1-10.57" style="fill:#26a258"/></g></g></g></g></svg>